/* XPM */
static char *adc7141f4c924081fa8cff8c98dd178bwYwGTLJHiL4h92MM[] = {
/* columns rows colors chars-per-pixel */
"60 60 245 2 ",
"   c #000000",
".  c #0B0608",
"X  c #130E09",
"o  c #160D13",
"O  c #1A1419",
"+  c #281607",
"@  c #25171C",
"#  c #331A11",
"$  c #17220A",
"%  c #2D2B02",
"&  c #352603",
"*  c #3A3203",
"=  c #233014",
"-  c #1F1821",
";  c #211922",
":  c #303527",
">  c #51350C",
",  c #653B10",
"<  c #543226",
"1  c #683823",
"2  c #38441B",
"3  c #3B4D2D",
"4  c #3A4C35",
"5  c #4B4603",
"6  c #584A08",
"7  c #595605",
"8  c #4E4517",
"9  c #665906",
"0  c #6F5110",
"q  c #756B0C",
"w  c #435632",
"e  c #4E5732",
"r  c #465A34",
"t  c #4B5A35",
"y  c #4A5D34",
"u  c #635D3D",
"i  c #4F6729",
"p  c #4C6335",
"a  c #4E6539",
"s  c #536539",
"d  c #546638",
"f  c #546B3A",
"g  c #5B6C3D",
"h  c #5C7338",
"j  c #676C33",
"k  c #2E3742",
"l  c #3B4846",
"z  c #394855",
"x  c #495753",
"c  c #6A5A43",
"v  c #5E7342",
"b  c #536A52",
"n  c #677744",
"m  c #6F7351",
"M  c #445562",
"N  c #566866",
"B  c #5D7369",
"V  c #5C7378",
"C  c #66766C",
"Z  c #75756D",
"A  c #915919",
"S  c #84720D",
"D  c #886813",
"F  c #976A16",
"G  c #9B7516",
"H  c #A87617",
"J  c #B0751C",
"K  c #945523",
"L  c #92782B",
"P  c #B56E26",
"I  c #C47925",
"U  c #877759",
"Y  c #927450",
"T  c #847A66",
"R  c #6A8A3B",
"E  c #75943D",
"W  c #6B8549",
"Q  c #768B49",
"!  c #6D9B49",
"~  c #759848",
"^  c #68835E",
"/  c #759752",
"(  c #6FA44E",
")  c #7BA347",
"_  c #72A54F",
"`  c #76A84E",
"'  c #7CAB4E",
"]  c #6FA451",
"[  c #72A550",
"{  c #77A850",
"}  c #7BAA51",
"|  c #718E6E",
" . c #6C847A",
".. c #799A72",
"X. c #7EA868",
"o. c #968D0E",
"O. c #A28A0A",
"+. c #A69A08",
"@. c #A68519",
"#. c #B88519",
"$. c #AA9B15",
"%. c #BA971B",
"&. c #B3AB0F",
"*. c #B6A817",
"=. c #99882F",
"-. c #AD8B2A",
";. c #A4A53D",
":. c #CD8F1E",
">. c #C6981C",
",. c #D8971E",
"<. c #E29B1D",
"1. c #C4B50B",
"2. c #C4A71A",
"3. c #C5B615",
"4. c #D4B117",
"5. c #E8A71E",
"6. c #EDB21F",
"7. c #CB8523",
"8. c #D48825",
"9. c #CA9A21",
"0. c #DA9923",
"q. c #E29C25",
"w. c #DBA524",
"e. c #D0AD30",
"r. c #D9B93A",
"t. c #E4AB24",
"y. c #E8A927",
"u. c #E9AC24",
"i. c #ECB323",
"p. c #EEBA25",
"a. c #E5B528",
"s. c #EBB42A",
"d. c #EEBB2B",
"f. c #F0B721",
"g. c #F1BD25",
"h. c #F1BD2A",
"j. c #E4AF32",
"k. c #E6B936",
"l. c #D2C80C",
"z. c #D7C415",
"x. c #EDD315",
"c. c #F8EA0A",
"v. c #FAF205",
"b. c #F9E515",
"n. c #DBC73A",
"m. c #E9C12A",
"M. c #F3C325",
"N. c #F6CC26",
"B. c #F2C32B",
"V. c #F5CC2B",
"C. c #F7D026",
"Z. c #F7D22B",
"A. c #E6C339",
"S. c #F2CB32",
"D. c #87954D",
"F. c #94885C",
"G. c #87A747",
"H. c #82AE4E",
"J. c #94AE4C",
"K. c #86B04E",
"L. c #8BB34D",
"P. c #91B64D",
"I. c #9AB34C",
"U. c #95B94D",
"Y. c #9BBD4C",
"T. c #87AB53",
"R. c #92AC58",
"E. c #89B251",
"W. c #96B654",
"Q. c #A5AB4A",
"!. c #AAB64B",
"~. c #A1BE4C",
"^. c #B9BA48",
"/. c #ADB951",
"(. c #988867",
"). c #87877B",
"_. c #939271",
"`. c #A7986B",
"'. c #AB9873",
"]. c #A89778",
"[. c #84AC6C",
"{. c #8AB369",
"}. c #95B962",
"|. c #9CBE62",
" X c #93B76D",
".X c #9CBD6D",
"XX c #86A775",
"oX c #9CA878",
"OX c #8AB271",
"+X c #93B772",
"@X c #B0AD72",
"#X c #B8A678",
"$X c #C8AE44",
"%X c #C7B944",
"&X c #D5BB46",
"*X c #E1B842",
"=X c #C3AE7D",
"-X c #C6B67D",
";X c #A4C24B",
":X c #ABC54A",
">X c #B3CA49",
",X c #B7C849",
"<X c #A5C25F",
"1X c #9FC068",
"2X c #A4C26C",
"3X c #AAC668",
"4X c #ACC774",
"5X c #CFC545",
"6X c #6A7682",
"7X c #6E8A8B",
"8X c #728B83",
"9X c #769186",
"0X c #7A9186",
"qX c #6D879C",
"wX c #7793AA",
"eX c #7895A9",
"rX c #8D8F88",
"tX c #97989D",
"yX c #A99D86",
"uX c #86AC81",
"iX c #8DB485",
"pX c #94B583",
"aX c #94BE8E",
"sX c #B8A584",
"dX c #A5BA88",
"fX c #889AAE",
"gX c #9A9BA3",
"hX c #8EA8B0",
"jX c #ADAFB4",
"kX c #C5AF86",
"lX c #C8B784",
"zX c #CDBB85",
"xX c #D0B585",
"cX c #D2BE86",
"vX c #96C08F",
"bX c #9AC28F",
"nX c #A7C88D",
"mX c #B2C98D",
"MX c #C9C688",
"NX c #D4C386",
"BX c #D7CB88",
"VX c #DBD088",
"CX c #A5CBCC",
"ZX c #BCC1C0",
"AX c #C4C7CA",
/* pixels */
"2X.X2X2X[.OX3X X3X+X.X2X.X3X3X3X2X2X+XOX X X XOX X.X@X+X+X.X X.X.X+X X X2X+X+X2X.X.X X.X2X[..X2X2X.X X.X[.2X2X2X3X3X3X4X",
"Y.Y.P.;X} ] :X~.:X` Y.Y.Y.Y.;XU.U.~.E.' H.P.L.' I.$X*XT.K.K.U.K.Y.H.L.E.Y.L.K.U.U.U.L.L.Y.L.P.Y.:X~.Y.:XP.~.~.Y.;X:XY.3X",
"U.;XL.;X~.] ;X;X;XK.:XE.;XY.Y.U.Y.U.K.U.H.P.W.L.I.j.j.%XE.P.U.L.U.H.P.K.U.U.P.U.K.U.' U.~.Y.P.Y.~.~.:X;X;XY.;X~.;X>X;X3X",
"U.;X:X;X;XU.:XY.Y.' :XL.;XK.;XY.E.;XL.W./.U.%X*X^.j.d.k.&X&XL.P.P.K.E.L.K.U.U.U.K.H.H.U.K.Y.P.P.Y.:X:XY.;XY.Y.~.:X:X:X<X",
"U.Y.Y.:XY.Y.;XY.H.G.;XH.U.} Y.W.T.k./.5XS.%Xr.B.k.j.s.k.s.k.!.R.E.H.E.H.H.E.E.Y.H.` K.L.` Y.~.H.U.>XY.P.Y.U.Y.:X~.;X>X1X",
"L.Y.L.:XL.K.;XL.` :XK.} P.Y.&X&X^.k.A.*XB.S.S.B.B.s.s.d.m.d.%XK.T.} J.H.' P.' Y.K._ P.H.! :XP.H.L.,XY.L.L.:XP.>X>XP.>XW.",
"' U.K.;XL.' :X' K.:X[ H.;XH.^.A.k.k.h.d.d.B.d.B.B.h.d.h.h.d.r.T.R.J.&X} } P.` P.Y._ Y.' } ~.:XL.L.,X~.L.U.:XY.Y.;XU.;X|.",
"_ L.L.L.U.' ;X( Y.P.' ~.W.L.J.%Xd.d.d.h.B.S.S.d.B.B.h.h.h.h.r.R./.&X&XW.! E.Q.!.~._ ;XY.L.G.L.>X' >X:X' ;XI.:XE.Y.Y.Y.<X",
"K.K.U.L.Y.K.~.' ~.K.Y.%Xk.a.0 j *Xd.s.s.d.h.S.%.9.B.h.h.h.h.&XQ./.d.&X=.! r.s.k.Y.Y.:XU.2 i G.:XU.Y.;X' :XY.;X` L.Y.P.<X",
"L.K.U.K.U.L.U.L.;X} >Xd.B.B.d.D F d.y.s.s.s.d.d.6 M.h.s.h.h.d.;.%Xh.e.i r.a.p.d.:X>XU.2 j K.U.Y.Y.L.Y.L.Y.L.~.` P.Y.U.|.",
"U.U.U.U.U.U.U.W.&XA.5XA.h.B.B.g.D F y.y.y.y.y.y.H @.h.s.h.V.S.A.k.B.D %.d.h.d.j.5X:X9 j P.L.P.P.P.L.U.L.P.H.>XK.E.U.U.W.",
"L.L.L.Y.P.L.L.,X$Xd.B.B.d.h.h.d.s.6 I q.q.q.q.q.0.> #.q.y.M.M.V.B.H q a.g.i.s.s.A.G D n.L.K.L.H.L.P.H.K.H.H.>XU.K.L.L.}.",
"K.K.Y.U.K.K.E.,Xj.h.y.s.s.s.h.B.d.0.# I I I 8.8.8.7., A P H H %.D D a.p.g.g.h.i.9.% j.%XH.H.' ' ' P.{ ' { P.;X>XK.K.K.}.",
"H.K.;XH.H.H.;XE.k.s.s.s.s.u.B.h.d.q.A > P P K I I P 0             #.p.p.p.g.p.a.& H a.Q.P.' P.` _ I.` ( { P.U.,XL.H.K.{.",
"' L.U.' K.Y.P.} ^.d.s.u.y.y.i.y.0.0.H   , K < < 1 # .             & ,.g.y.y.t.6   w.r.J.L.` ' ;X` L.L.( I.H.K.,X;X` Y.R.",
"` Y.Y.Y.H.5X%Xe.%X*Xs.s.y.q.y.q.8.8.P ,   @ ; ; ; .             + > H y.0.q.0   F B./.Y.L.H.( ;XL.H.Y._ :X_ Y.>X>X{ :X{.",
"K.Y.` :X;Xa.a.a.a.w.>.8.q.8.I I 8.I P K >   o ; ; o                 F I 7.0 . #.M.Z.5X;X] L.( G.G.! J.} ;X` ;X:X>XP.~.|.",
"U.L._ U.Y.G.=.Y F.@X`.`.`.T '.T c c 1 @ - o   . - -               . 1 K >   J :.@.-.Q ^ | X.........X.^ W h J.;X;XU.Y.<X",
"L.L.} ~ v [.bXNXzXzXxX=X#X'.].T _.Z 6X .B B x 4 : X   5 &.z.z.1.q   X : c U (.#X-XdXpXpXuX0XiX+XXXbXnXvXvXiX| h ) L.U.|.",
"U.K.R ^ nXnXMXlX-X#X=XsX#X'.].].T 4 x N N x N B N z % z.z.z.z.z.z.9 x C Z U F.F.F.c c oX+X0XiXaXuXpXOXiXvXbXvXaX^ R U.|.",
"K.E ..bXMXVXBXNXNX=X`.#X'.].].T T 7X9X9X9X9X9X9X8Xz o.z.3.2.*.3.3.$.4  .sXzXzXcXNXNX-X`.F.vX....XXXXaXaXvXvXbXbXvX..E 1X",
"` b aXoX-XVXVXBXNXzXcX`.(.c x (.tX0X9X9X9X . .B N O $.3.*.*.*.*.3.*.l Z `.#XsX-XcXBXVXBX-Xe m ..XXvXaXvXvXaXnXuXuXvXW E.",
"} v bXdXU `.-X-XNX-X#X(.T ].).T B B B B x l l  .V   q 3.2.$.$.*.*.$.: Z (.m Y F.@X`.`.'.@XoXXX^ ..iXbXvXiXoX..^ aXaXQ {.",
"H.~ ^ bXmX=X@X`.F.F.#XzXkXkXsXyX0X8XN B  .9X .V qX  . $.3.*.*.2.*.> z wXZ =XNX=XF.`.-XcXNXaXmXpXuX..^ ^ XXXX+XbXaX^ P.{.",
"H.H.! b +XmXBX-X#X'.`.`.=X#XT T B l B 7X7X6XqXwXwX      S $.&.o.*     eXfXtX(.-XxXF.U `.....nXaX....XXOXnXaXaXXXv ) U.{.",
"K.} L.E.G.e F.-XcXcXcXxXkXsXyXrX .7X .V qXwXwX6Xo                   . o rXjXjXgX(.=X-X=XlXnXmXmXvXaXbXmXiX^ p G.L.Y.U.}.",
"K.U.E.Y.>X=.ZXgX).(.(.#X].].].6XB V wXhXwXqXk .                         # Y gXjXZXtXrXU '.#X.XpXiX..| 9XhXhXE Y.;XU.P.}.",
"E.~.} ;Xn.i.).AXAXAXgXgXgXgXhXjXhXeXwXqXM O .   .     % q R q 6       O . 6 9.(.gXjXjXZXjXjXgXhXeXhXCXCXCXB P.;XY.U.L.1X",
"Y.P.E.;XU.Q.9.rXAXZXtX8X6Xx V gXfXqXz o o     @ X   i o.o.S o.q %     , @.    @.-.m gXjXjXb b 9X8XfXCXCX .~ Y.;XY.U.U.W.",
"~.Y.Y.Y.P.e.y.9.Y rXjXjXgX6XtXN # @ @ O     O #   2 o.= % 7 7 7 %     & d.9.    -.!.G.8  .eX6XhXhXhX7XW ` L.Y.U.~.Y.K.|.",
"U.K.;XY.r.w.0.w.5.<.:.J P K , # K 0 @ .   O O O   o.&.&.3.3.3.&.&.$.%   0.<.H   D i.e.~   E R E ! E L.L.' U.U.L.;XU.' 1X",
"L.H.;XY.P.%Xj.s.5.<.,.8.I P + J q.I ,   X ; @ O   $.&.3.l.l.l.l.*.&.9   :.<.5.0   9.d.&Xi 2 ` U.L.L.P._ L.U.U.K.;X' K.1X",
"H.E.Y.Y.] %Xt.w.w.0.w.u.w.9 > p.i.<.&   > - @ o 6 $.+.o.o.R 9 9 7 9     >.,.<.J   0 g.p.Q.  i ) K.H.` { P.L.P.L.~.H.U.W.",
"} K.U.Y.Q.w.w.w.w.i.M.M.f.M.2.M.6.>.  > K < @ o 9 7         .           >.i.,.,.    >.i.s.Q H.{ H._ [ } K.P.K.L.Y.L.E.|.",
"L.H.L.P.L.Y.^.^.A.V.p.p.N.N.M.x.M.q   D ,.J K + 7 5 7 +.1.l.l.l.1.o.*   >.M.<.<.X   G -.j Q ` ` ' _ H.' H.P.L.H.Y.L.K.}.",
"P.E.K.P.L.U.;X!.V.M.Z.Z.Z.N.N.N.N.@.  D i.g.g.0 7 &.l.x.c.v.v.c.c.b.3.  2.N.<.,.X   J e p p n / _ _ _ Y.H.H.L.' P.P.H.{.",
"L.L.K.L.L.~.Y.A.S.V.Z.Z.C.N.M.M.i.f.G * N.N.N.H 9 x.x.v.v.v.v.v.b.b.3.  2.V.5.5.  H u.e p p d f ! ] ] E.U.' P.' K.L.' }.",
"P.L.L.K.L.;X^.V.S.Z.V.p.p.i.5.5.g.C.p.  a.N.M.#.q b.1.&.+.+.+.+.+.1.O.  a.u.6.>.& p.h.j s y p p f ! [ _ ;XK.U.' K.L.~.{.",
"K.P.K.H.Y.>Xj.a.a.r.%Xa.5.5.5.i.C.C.N.q 2.C.6.4.2 +.                    a.,.5.0 0 =.=.e w p w y p p G.( U.Y.K.U.K.Y.P.}.",
"H.Y.H.H.;X:XQ.Q.~.Y.e.u.6.u.6.N.Z.C.C.q @.M.6.p.  &.5 +.+.+.+.+.+.5   + p.5.5.8 : p y r e 3 t y p p h L.L.;XK.Y.L.;X' W.",
"' Y.L.L.;X;XL.` U.,XM.i.i.u.k.Z.Z.Z.z.$ %.i.M.C.* z.b.b.b.c.b.b.b.x.  0 5.5.u.0 $ d r y p r 3 w y 4 p L.K.;XU.K.;XY.K.}.",
"Y.P.Y.Y.;X;XY.H.;Xr.M.k.r.!.:XZ.V.m.*   t.g.C.Z.S 2.x.z.1.1.1.1.4.z.  G 5.5.u.G   + t t p y w 3 3 r 3 Q Y.;X~.` ;XL.Y.{.",
"Y.H.Y.Y.Y.;XY.;X;X/.:XU.L.Y.Y.S.V.Z.@.>.M.N.Z.Z.%.S O.                =.<.5.5.,.2 : j r r r w w 3 3 3 r Y.;X;XK.Y.U.U.<X",
"L.` U.Y.L.~.U.U.Y.P.U.U.U.U.W.A.V.M.6.M.C.Z.Z.Z.4.  2.&.4.z.x.4.o.    L.e.,.5.,.L s y j r r r r p 4 3 3 D.~.Y.~.;XU.Y.<X",
"P.' L.P.L.U.U.P.K.L.P.P.L.P.~.h.i.u.%XZ.Z.Z.Z.5Xu.6 9 M.x.n.x.C.*.  i L.D.=.,.:.-.d y d d r r r w p w r v ;XU.U.;XU.L.|.",
"L.H.L.H.K.L.L.` K.K.L.L.L.L.^.d.i.$X{ S.Z.A.n.R.u.#.  6 *     9 %   ) E.' s j L L p p s j u r t x y p r p U.U.L.P.U.K.}.",
"K.' L.' H.} K.` ' K.K.K.K.E.Q.a.e.E._ !.W.{ } T.e.5.D             h H.L.` R y p e p p s p n s r r y y a 4 E.U.L.E.E.K.}.",
"H.` ' ' ` ' ` ' ' ' L.' K.H.H.U.K.H.} { [ [ { { e.t.t.D       $ R H.E.H.` ) e t y p p d d d n s r p r a 4 T.Y.U.' ' ' E.",
"' ' _ ' ( ` [ ` ` ' K.' ' ' ' ' ' K.' ' ` ( ` ( P.w.w.Q.E     ( U.H.H.` ` ` n r p y p p p f p g p p r r w D.P.L.' ' L.X.",
"` H.( ( _ ( ( [ ] L.' ' ' ' ` ' ' ' ` L.( ` L.` ` W.e.T.P.= 3 ' ;X' ` ( _ _ { f y p p p f f p p n d y r r ~ } L.} ' U.X.",
"L.` _ ' ( _ [ _ ` L.` } ` ` ` ` ' ` ` L.` ] U.' ( ( :XK.E.i h U.L.L.( ( _ { _ _ f p f a f f f p p n p s a n K.L.{ ' P.} ",
"P.( L.` ] ( ( ( ' U.` ' ` ` ' ` L.' ` L.' ] ' Y.] ] Y.;XE.~ ) ~.H.L._ H._ _ H._ ] h a f f f f p a p n p p v H.K.E.' E.{.",
"L.' P.] _ ` [ _ ' U.` E.] L.' } ` U.` L.K.' ` Y.K.] L.Y.P.L.E.Y.{ H.L.` _ ` ' H._ ' ~ v f f f f d g g n a s / H.L.K.K.}.",
"K.L.K._ ' _ H._ ' E.` ' ' L.` K.[ L.U.K.' K.` K.U.` K.P.P.K.U.U.H.H.E._ H.{ ( H.{ ' { _ W v f f f f d g v y Q L.U.K.P.1X",
"L.U.' H.' _ ` ' ' K.' ' U.U.} L.K.K.U.' ' ' ' ' L.K.' P.K.K.L.P.H.H.' ' H.` _ ` H.{ ' ` [ T.Q v f d f g n n n U.U.P.U.|.",
"U.U.` U.{ ` ' ' ' ' K.} U.K.U.U.P.K.U.' ' ' ' ` ' ' K.' ' ' ' ' H.H.' H.` { _ { { ` H.` [ L.{ } / / W v f n n E.U.U.U..X",
"U.U.P.E.} [ ` ' ' ` ` K.U.U.U.U.U.L.E.' ` ` ` ` ` ` ` ' ` ' } ' ' ` ' ` ' ' L.' _ _ L.( [ U.] H._ ( L.] T.Q n Q W.U.Y.1X",
"U.U.U.' E.' ] ` L.[ ] L.Y.U.U.U.U.U.L.E.] ] ] ] ] ] ] ` } ` } ' H._ H.` ' ` U.' [ ' P._ H.L.` ' ( [ U._ } U.Y.T.R.W.Y.1X",
"U.U.Y.] ] Y.} ] ;X] ] Y.U.U.U.Y.U.U.U.' } ] ] ` ` ] ` ] } { ' E.K.` ' P.' ' L.L.{ L.L.( P.' P.' [ E.P.' ] P.Y.U.W.:XY.1X",
"2X2X3XOXX.1X2XOX3X X X3X1X4X2X3X2X2X2XOX2XX.OX1XOXX.OXOXOX1X1X1X.X+X+X2X X+X.X3X+X2X.XOX2XOX1X3X2X2X X2XOX2X3X2X4X3X3X4X"
};
