/* XPM */
static char *cb4d6920a1e14ba8d31539bf5264dc8byJJ3EleDsTk6JBxF[] = {
/* columns rows colors chars-per-pixel */
"60 60 254 2 ",
"   c #000000",
".  c #0B0809",
"X  c #150A07",
"o  c #161B0A",
"O  c #0D0C13",
"+  c #140E14",
"@  c #151119",
"#  c #1B141C",
"$  c #2D1912",
"%  c #1B260F",
"&  c #2C2A02",
"*  c #352702",
"=  c #2C3314",
"-  c #1A1721",
";  c #1D1821",
":  c #211922",
">  c #271B21",
",  c #323124",
"<  c #4C3605",
"1  c #663217",
"2  c #472F27",
"3  c #683924",
"4  c #37481A",
"5  c #39492A",
"6  c #3B532A",
"7  c #4C4603",
"8  c #584A07",
"9  c #595505",
"0  c #565618",
"q  c #6B510C",
"w  c #7A590C",
"e  c #766C0C",
"r  c #43572C",
"t  c #51532F",
"y  c #455733",
"u  c #465A33",
"i  c #495D35",
"p  c #635438",
"a  c #4B652A",
"s  c #53672B",
"d  c #4C6336",
"f  c #4E6638",
"g  c #53653A",
"h  c #566638",
"j  c #546B3A",
"k  c #5B6C3D",
"l  c #577337",
"z  c #65673B",
"x  c #637C35",
"c  c #303742",
"v  c #35414D",
"b  c #4D544D",
"n  c #6A5E42",
"m  c #5B7547",
"M  c #566F50",
"N  c #746F4D",
"B  c #677543",
"V  c #617C59",
"C  c #485A69",
"Z  c #5C706C",
"A  c #6D746D",
"S  c #657D6C",
"D  c #8E5619",
"F  c #847A0A",
"G  c #8D6A10",
"H  c #987716",
"J  c #A77718",
"K  c #AE7218",
"L  c #864923",
"P  c #995723",
"I  c #B26C25",
"U  c #B96B24",
"Y  c #C67A25",
"T  c #897A53",
"R  c #827C6A",
"E  c #5C873F",
"W  c #6A8B3C",
"Q  c #738D3C",
"!  c #76943C",
"~  c #698749",
"^  c #699748",
"/  c #74984A",
"(  c #708A54",
")  c #6FA34E",
"_  c #72A54F",
"`  c #7CA54A",
"'  c #76A84E",
"]  c #7CAB4E",
"[  c #6FA451",
"{  c #72A550",
"}  c #77A850",
"|  c #7DAA50",
" . c #6B8A65",
".. c #708A6F",
"X. c #77956D",
"o. c #748C7A",
"O. c #779974",
"+. c #7DA76F",
"@. c #8C8707",
"#. c #9B9706",
"$. c #948B11",
"%. c #A49A09",
"&. c #A78517",
"*. c #B18E16",
"=. c #B6961B",
"-. c #AEA50F",
";. c #B6A712",
":. c #BCB713",
">. c #918B38",
",. c #AC912C",
"<. c #ACA83E",
"1. c #C68C1B",
"2. c #C6961C",
"3. c #D79A1D",
"4. c #C7A719",
"5. c #D5A91B",
"6. c #C5B915",
"7. c #D0B811",
"8. c #E8A91E",
"9. c #ECB51D",
"0. c #F0B21D",
"q. c #CC8426",
"w. c #D48925",
"e. c #DA9425",
"r. c #DD9B24",
"t. c #E29D26",
"y. c #DCA324",
"u. c #D8A826",
"i. c #D0AF31",
"p. c #D7B73A",
"a. c #E4A424",
"s. c #E5AB24",
"d. c #E9AD24",
"f. c #E8AA28",
"g. c #E3B523",
"h. c #EBB324",
"j. c #EDBB25",
"k. c #E5B32C",
"l. c #EBB42A",
"z. c #EEBB2B",
"x. c #F1BD23",
"c. c #F1BD2A",
"v. c #E4AF32",
"b. c #E6BA36",
"n. c #D6CE0B",
"m. c #D3CE0D",
"M. c #C9C411",
"N. c #E9C817",
"B. c #EAD411",
"V. c #F4D61A",
"C. c #F0EA05",
"Z. c #D9C33C",
"A. c #EDC42A",
"S. c #F3C425",
"D. c #F6CC26",
"F. c #F2C42B",
"G. c #F5CD2B",
"H. c #F6D224",
"J. c #F7D22B",
"K. c #E5C239",
"L. c #F2CA33",
"P. c #8E924E",
"I. c #968C5C",
"U. c #83A446",
"Y. c #82AE4E",
"T. c #94AD4C",
"R. c #86B14E",
"E. c #8CB34D",
"W. c #91B64D",
"Q. c #99B34D",
"!. c #95B94D",
"~. c #9BBD4C",
"^. c #85AC52",
"/. c #93AD55",
"(. c #89B251",
"). c #97B654",
"_. c #AAB64B",
"`. c #ACB44F",
"'. c #A1BE4C",
"]. c #B8BA48",
"[. c #A6BE52",
"{. c #998864",
"}. c #8F9273",
"|. c #A4936A",
" X c #A79A69",
".X c #AC9A73",
"XX c #84AE6C",
"oX c #8BB463",
"OX c #89B26D",
"+X c #95B962",
"@X c #9CBE62",
"#X c #93B76D",
"$X c #9CBD6D",
"%X c #87A975",
"&X c #9FAE7D",
"*X c #8AB271",
"=X c #94B870",
"-X c #B3A56E",
";X c #BAA977",
":X c #B1B072",
">X c #C7B944",
",X c #CFB54A",
"<X c #E1B842",
"1X c #C3AE7C",
"2X c #C3B47B",
"3X c #CABD7E",
"4X c #ADC446",
"5X c #A4C24B",
"6X c #ABC54A",
"7X c #B3CA49",
"8X c #B6C849",
"9X c #ABC35A",
"0X c #9FC068",
"qX c #A4C26C",
"wX c #AAC668",
"eX c #ACC774",
"rX c #D1C544",
"tX c #CEC37F",
"yX c #5B7181",
"uX c #668386",
"iX c #799288",
"pX c #6D879C",
"aX c #7997A7",
"sX c #7692A9",
"dX c #7DA0A6",
"fX c #909387",
"gX c #85AB83",
"hX c #89B388",
"jX c #8EBA8E",
"kX c #93B885",
"lX c #93BD8E",
"zX c #9EA39D",
"xX c #ADAE8F",
"cX c #8A9DB0",
"vX c #90A9AB",
"bX c #87AAB6",
"nX c #A4A9A5",
"mX c #AEB3B0",
"MX c #B4BAB5",
"NX c #C2AB86",
"BX c #CBB884",
"VX c #D2BC86",
"CX c #97C08F",
"ZX c #9BC28E",
"AX c #A4C58E",
"SX c #BBC88B",
"DX c #BEC3BE",
"FX c #C9C58A",
"GX c #D6C786",
"HX c #96A9C0",
"JX c #97C1C9",
"KX c #A7C9CE",
"LX c #BBC8C6",
"PX c #C0C9C0",
/* pixels */
"qX$XqXqXXX*XwX#XwX=X$XqX$XwXwXqXqXqX=XXX$X*X#XOX#X$X:X*X#X$X=X$X@X=X=X$X$XXX*XwX$X$X$X#XqXOX$XqXqXqX#XqXXXqXqXqXwXwXwXeX",
"~.~.W.5X| [ 6X~.6X} ~.!.~.~.5X~.!.5X(.| Y.E.E.] T.,X<X^.R.R.~.R.~.Y.E./ B V W ~.!.!.E.W.~.R.E.~.5X~.!.6X(.5X[.~.5X5X~.wX",
"!.5XE.5X~.{ 6X5X5XR.5XE.5X~.~.!.~.).R.!.Y.!.)./.Q.v.b.>XE.E.!.E.!.Y./  .ZXZXO.! E.Q.] W.'.~.W.~.5X'.6X5X6X~.5X~.6X7X5XwX",
"!.5X6X5X6X!.6X!.~.U.6XE.6XR.5X!.R.5XW.)._.W.>Xb.].k.l.b.,X<X(.E.W.R.m CXlX%XAX ./ Y.Y.!.R.~.W.!.~.4X4X~.'.~.~.5X5X6X6X9X",
"!.'.'.4X~.!.6X!.Y.Y.'.Y.!.| ~.).^.b._.rXL.>Xb.K.b.v.l.b.z.b.`.(.(.W %XCX .hXlXAXm ) E.E.' ~.'.R.!.7X~.!.!.!.~.6X'.'.7X0X",
"E.~.E.6XE.E.6XE.' 6XR.Y.W.5X,X,X].K.K.<XL.L.L.F.c.z.l.z.A.z.,X` x 6 ZXhXX.AXlXAXX.^ !.] ) 5XW.] E.8X~.E.E.6XW.6X7XW.7X).",
"' !.R.~.E.] 6X' E.5X{ ] 5X^.`.L.b.b.c.z.z.F.F.F.G.c.z.z.c.b.i.S vXX.FXO.gXZXlXAXkXf !.] ] 5X6XW.E.8X~.E.E.6X~.'.5XW.6X0X",
"_ E.E.E.!.] 5X) ~.!.] '.).E.[.>Xz.l.z.c.F.F.L.F.c.F.c.c.c.u.fXJXvXxXFXX.jXlXAXkXAXm 5X~.W.W.W.4XR.4X4XY.5X~.6XE.!.~.~.9X",
"] E.W.E.~.Y.~.] ~.Y.~.>Xb.z.b.,X<Xz.l.l.c.c.c.L.F.F.c.c.c.T DXKXo.GX X( lXFXGXBXAX( '.Q.~.R.E.4X!.~.6X] 6X~.5X] E.'.W.9X",
"W.E.!.R.~.E.~.E.[.Y.8Xz.F.F.L.z.l.l.l.l.l.l.c.c.F.F.c.c.l.zXLXLX}.GX:X .VXGX3X;XSX%XU.R.~.Y.W.~.~.E.~.R.~.R.~.' E.~.E.0X",
"!.W.!.W.!.!.!.).,XK.rXK.c.F.F.c.c.l.f.f.f.f.v.f.c.c.l.f.q.mXnXzX|.GX X-XBXGX XBXSX%X<.].!.W.W.W.W.E.E.E.!.Y.8XE.R.!.W.@X",
"E.W.E.~.E.E.E.8X>Xl.F.F.c.c.c.c.l.l.t.t.t.t.t.e.t.f.f.t.,.DXfXzX1XGX-XVX|.-X2X;X;X|.u.b.E.Y.E.Y.E.E.E.R.E.] 7X!.E.E.E.).",
"R.R.~.!.R.E.E.8Xl.z.k.h.l.d.c.S.c.l.t.Y Y Y w.w.Y w.q.e.K nXiXzX3XGXVXGX|. X-X2X;X Xu.>XY.] ] Y.} !.] ] ' E.5X6XR.R.R.oX",
"] R.6X] ] ] 5XE.b.l.l.l.l.l.S.c.l.t.t.w.Y U P Y Y I < L L A b zXNXVX3XGX-XN ;X2X3X X3._.!.] W.' _ Q./ ) ] !.!.8XE.] R.oX",
"] W.!.] E.!.E.Y.].z.k.l.f.d.h.f.t.t.Y Y Y L 3 2 3 > X   # sXyXmX;XVX-XGX1Xp 2X2X1X-Xi.(.E.' ` '.' E.4 ^ !.Y.R.8X5X' 5XoX",
"' ~.~.~.Y.rX>X>X>Xb.l.f.f.t.t.t.Y e.Y Y U 2 : > > > : # . C cXHXR 1X|.3X|.1XI.1X;XI.9X).E.R._ '.Y.s s ) 6X) ~.7X7X{ 6XoX",
"R.~.' 6X6Xp.k.k.l.z.l.f.t.8.w.Y Y Y U P L : ; : : ; : : ; . aXcXA .X|.NX{.BX|.;X2XI.Z.~.) ~.' E.a a !.] ~.' 5X7X7XE.~.@X",
"!.E._ W.~.5Xp.k.l.c.c.d.t.Y Y Y Y P L 2 > : : + . # : : : : pXsXyXiXb fXR BXNXn 2X>.].[.+.R.U.4 W ] !.!.!.R.!.5X5X~.~.9X",
"E.E.] E.~.6X_.v.f.d.t.f.t.Y U P 1 X > : ; ; O       . # > > v sXsXS A A |.NXNXT 3XP.).).W a % ! E.Y.5XE.R.R.W.!.E.E.!.@X",
"!.R.Y.R.5X5XZ.k.k.s.8.t.e.w.Y U 1   . O .     X +       . : ; pXbXZ iXA R NXVXT 3X&.b.0   4 U.!.] !.~.] ] E.] R.R.] !.@X",
"Y.E.Y.(.rXL.z.z.d.s.s.r.w.Y Y U P : + + + # > : - - - O     @ C sXpXuXiXN BXVX|..X3.J   s ^.E.E.Y.!.R.] (.(.!.R.] R.~.0X",
"] E.R.,XL.A.F.j.h.a.a.r.w.Y K L 3 > ; ; ; : ; - - - - - @     # sXsXZ fXn ;XNXT |.J   e S.,X'.Y.R.W.R.R.R.] 5X] R.] 5X(.",
"| Y.R.].d.s.h.h.h.d.a.e.w.Y U L 2 : # # ; > # - - - - - - @   . c bXpXA n NXGXI.I.  w 8.x.>X5XY.Y.Y.!.] ] 5X5XW.] ] 6XOX",
"Y.Y.Y.Y.].p.s.z.F.F.A.d.e.U U L $ : ; # @ @ + O O O O @ @ - +   @ yXsXyX}.|.GX Xp w a.h.p.Y.8XY.] ` Q ] 6X(.E.5XR.R.!.0X",
"Y.Y.R.| 9X8XK.F.l.h.a.3.e.Y U D $ .     & 9 9 9 9 9 0     . O .   @ pXsX}.T 2X Xp 5.8.k.| _ 6X/.a 4 W 4X6X] E.6X] ~.~.+.",
"R.| (.(.7X6Xk.k.h.d.d.t.w.P *   9 F #.@.e :.M.-.7 9 -.-.@.=             . > n T G 1.G D ,.Q.4X7 W ) R.7XW.] E.5X(.~.!.0X",
"| !.(.!.6Xp.z.d.a.s.t.e.w   < H e ;.:.4   -.m.M.7   #.:.-.$.8           F -.&.*       < * H 0 ! W.E.5X4XE.R.!.!.5X!.W.).",
"(.5XR.5XZ.x.l.d.8.8.t.G   8 5.$.  -.m.@.  #.C.B.#.  #.M.:.& $.&       ;.9.V.V.B.7           H 6XR.!.4X'.E.E.E.5X~.!.E.0X",
"~.W.(.5X~.`.k.l.9.8.K     * 5.;.  #.m.@.  #.C.C.6.  @.M.:.& $.e     F 6.V.V.V.V.4.          <.5XE.W.5X!.E.E.~.5X~.!.!.+X",
"~.~.~.~.E.i.y.2.D *         9.;.  -.m.#.  %.C.C.n.  Q M.6.0 @.Q     %.5.H.H.V.N.N.          s ~.W.W.~.W.R.E.~.!.'.~.E.+X",
"!.W.5X!.p.u.r.r.J G         4.;.  %.m.@.  #.C.C.n.  e M.6.9 e e     ;.5.S.9.N.V.B.          l ~.!.E.~.R.] !.!.E.5X!.] 0X",
"E.Y.5X~.R.p.b.d.d.t.1.*   9 9.4.  ;.m.@.  #.n.C.6.  9 7.:.9 Q 9     %.N.N.N.V.V.7.          W W.E.R.E.' E.!.W.(.5X] E.0X",
"| R.!.~./ >Xu.y.y.r.y.*.  * 4.F   4.B.F   @.n.n.%.  9 M.;.& &       7 N.N.N.N.N.e     *     r Y.E.] ' ' !.E.W.E.'.] ~.).",
"| E.!.~.`.u.y.y.y.j.S.S.&.        7.N.7   %.M.M.e   9 ;.%.            9 6.N.4.e * <   q * ~ r l R.' ) ] E.!.E.E.~.E.(.0X",
"E.R.E.!.E.'.].].Z.G.x.x.H.g.G             F %.$.&     7 *         8   b 2 n p T D 3.J w s / ) 4 6 ^ Y.Y.] W.R.] !.W.] +X",
"E.R.R.!.E.!.'.5XG.S.G.J.J.D.D.D.4.&.w &                   8 *.w * 2.MXMX-X X;X|.0 1.e.y t d B _ E 6 l ~.] R.W.] !.!.] oX",
"E.E.R.E.E.~.!.K.L.G.J.J.J.D.S.j.9.h.D.S.9.g.2.*.H K K u.S.D.H   =.xXnX|.:X-X3X Xn 8 y.t f f j j / [ E Y.~.] E.] E.E.] (.",
"!.E.E.E.E.6X>XF.G.G.G.j.j.9.8.8.A.H.D.D.D.J.S.8.S.S.D.G.D.=.  q 1XMXzXtXT ;XVX|.I.  w z h i i d j / { { '.Y.!.Y.] E.~.oX",
"R.!.R.R.~.6Xv.d.k.p.>Xk.8.8.8.h.J.J.H.J.J.H.h.x.D.D.D.J.=.    4.xXmX XGXB 3XVXA }.e   = r t y d d f Y.) W.~.R.!.R.~.!.0X",
"] ~.Y.] 5X6X_.Q.[.~.i.9.d.8.h.D.J.5.&.H *.4.8.D.H.S.4.q     J  XmXzXtX2XI.VXBXN o.5 5   o 5 y i i i l E.E.4XY.~.E.5X] +X",
"] '.W.E.5X5XE.] !.8Xx.j.d.h.b.J.*.  < $.H &   o X       G 5.2.zXPX XGXI.|.VXBXN fX5 i =   . 4 5 i u u /.^.6X!.E.5X~.] 0X",
"~.E.~.!.5X5X~.R.6Xp.F.b.p._.[.J.=.8 A.J.x.z.=.      w 3.8.h.T MXzXtX X X|.VXGXb o.y i u u 4 . , 6 6 6 ( !.5X~.' 5XE.~.(.",
"~.] ~.~.~.5X~.~.'.4X'.!.E.~.'.L.J.G.G.x.S.H.J.4.*.5.0.0.8.8.zXMX&XtXN xX|.VX3Xp o.y n u d 6 6 % % 6 6 6 ~.'.'.E.5X!.!.@X",
"E.] !.~.W.~.!.!.~.W.~.!.E.!.~.K.G.S.9.S.G.J.J.J.F.9.x.0.3.< mXDXI.3X%XAX}.BX|..X}.C i z u u d d , @ 6 b U.'.~.'.5X!.!.wX",
"W.` E.E.E.!.E.W.E.E.E.W.W.E.'.F.l.d.>XJ.J.J.J.Z.9.0.s.G   A mXMX:XGXO.ZXO.&X{..X}.V i k g y y y r 4 o 6 m 5X!.!.5XW.E.0X",
"R.E.E.R.R.E.E.] Y.E.E.E.E.E.].j.f.i.} L.J.K.rX/.d.=.  < ,.dXZ nX&XZX%XCXiX, iX}.fXS i h n m u i b i % 6 d !.!.E.W.W.] 0X",
"R.] R.Y.Y.] Y.' ] R.R.R.R.R._.k.i.(.' `.).} } ^.i.8.G 3.>.uXb vXgXCXkXZXO.M ..o.o...r f d B g u u f u d 6 (.!.E.(.(.R.+X",
"] ' ] ] ' ] ] ] ] ] R.R.Y.] Y.Q.Y.Y.| } { { } { i.s.u.u.Q bXuXdX%XCXkXlX ...S o.o.S r g f g B g 6 d u b y ^.~.!.] ] ] (.",
"] ] ' ' ) ' _ ' ' ] (.] ] ] ] ] ] ] ] ] ' [ ] ) W.u.r.].W bXuXdXkXCX+.dXX.iX+.o.iX .6 d d j i z g d i u u ^.E.E.] ] !.+.",
"' R.) _ _ ) _ { [ E.] ] ] ] ] ' ] ] ' E.[ ' E.[ ' Q.i.| / vXdXbXX.CXo.O.+.CX+.iXiXS 6 f M l d d B g i u y / ^.E.' ' !.| ",
"E.' ' ' _ ) [ _ ' E.' ' ' ' ' ' ] ' ' E.' ' !.] ) ' 4XE.U.iXJXKX..CX+.V jXCXjXO.iX..d f f j f a d B d d g ~ Y.R.] ] !.+.",
"W.) E.' [ _ ) ) ] !.' ] ' ' ] ' W.] ' E.] [ ] ~.) ) !.'.(.V JXKXuXCXO.V jXCXCXdXjXV f l f l j f d d B d i g ^.Y.R.] E.XX",
"E.] E.[ _ ' ) { ] !.[ R.' (.' ' ' !.' E.] ] ' !.R.) E.~.W.R.uXKXdX+.CX .hXjXCXCXjXm / m j j j j j j k B d f / Y.E.R.E.).",
"R.W.R.{ ] ' ] _ ] R.' (.' W.' R.[ E.!.R.R.R.' R.!.' Y.!.W.] `  .bX .CX+.+.CXjXCXjXl ] [ ~ m j j j j j z n f ( E.W.E.E.0X",
"E.!.] Y.] _ ] ] R.R.R.] !.W.R.(.E.] !.] ] ] ] ] W.] ] W.R.R.E.E.) f jXdX[ CXjXjX ./ Y.} ' U.~ B j h j j B B ~ !.!.!.!.@X",
"!.W.] !.' _ ] ] ] ] ] ] !.R.W.W.W.(.!.] ] ] ] ' ] Y.] Y.] ] | | ] W O.jX .iXjXjXf { Y.{ { W._ ] / / ~ m g x B /.!.!.W.$X",
"!.!.!.R.] [ ' ] ] ' ' R.!.W.!.!.!.W.E.] ' ' ' ' ' ' ' ] } ] ] ] ] ' m jXjXgXCX .^ ) E._ { W.) ^.{ { (.{ ^./ B ( Q.).~.@X",
"!.!.!.] (.] [ ' W.[ [ E.~.!.!.!.!.!.E.(.' [ [ [ [ [ [ ' ] ' | ] R.[ ^ E lXjXO.W ) ] E._ Y.E.' Y.{ { !.{ | !.).^./.'.~.@X",
"!.!.~.[ [ ~.] [ 5X[ [ ~.!.~.!.~.!.!.!.] ] [ [ [ [ [ [ ' | } ] (.] ' } ] E M ^ !.] E.E.) W.| E.] { (.W.| [ !.'.!.).5X5X@X",
"qXqXwX*X+.0XqX*XwX=X#XwXqXqXqXwXqXqXqX*XqX+.*X0XOXOXOX+.*X0X0X0X0X=X=XqX$X#X#XeX=XqX$X*XwX*X$XwX$X$X$X$X%XqXwXwXeXwXeXeX"
};
