/* XPM */
static char *b2b552d0e8b54c8ffa2d621a96e8371dsnLTdkMY4GRFHRtn[] = {
/* columns rows colors chars-per-pixel */
"60 60 248 2 ",
"   c #000000",
".  c #08060A",
"X  c #150D0A",
"o  c #130E15",
"O  c #1A131A",
"+  c #2C1808",
"@  c #25161B",
"#  c #2A2804",
"$  c #352702",
"%  c #30310D",
"&  c #1D1721",
"*  c #231921",
"=  c #2C322F",
"-  c #4A2F0B",
";  c #5E361F",
":  c #384A1C",
">  c #3C4C2B",
",  c #3A4A36",
"<  c #4C4503",
"1  c #5A4907",
"2  c #595405",
"3  c #474915",
"4  c #695908",
"5  c #79570C",
"6  c #6D4B13",
"7  c #766B0C",
"8  c #7A6909",
"9  c #42552C",
"0  c #435632",
"q  c #465A34",
"w  c #4B5B36",
"e  c #495D35",
"r  c #525831",
"t  c #6C4926",
"y  c #4F6628",
"u  c #4C6335",
"i  c #4E6539",
"p  c #556737",
"a  c #536539",
"s  c #546B3A",
"d  c #5B6C3D",
"f  c #5C743A",
"g  c #6C712F",
"h  c #65673D",
"j  c #3A494F",
"k  c #475552",
"l  c #55585B",
"z  c #5C7344",
"x  c #536E53",
"c  c #52665E",
"v  c #6F6D4C",
"b  c #677744",
"n  c #576C66",
"m  c #5D7269",
"M  c #536771",
"N  c #677770",
"B  c #8E5618",
"V  c #837508",
"C  c #856211",
"Z  c #8E6E11",
"A  c #9C7616",
"S  c #AA7119",
"D  c #8C4D22",
"F  c #A55B21",
"G  c #937629",
"H  c #B66B22",
"J  c #C57A23",
"K  c #8A7A53",
"L  c #857A64",
"P  c #5F883F",
"I  c #66883D",
"U  c #73913B",
"Y  c #6B8548",
"T  c #6A9948",
"R  c #759A48",
"E  c #738F50",
"W  c #6FA44E",
"Q  c #72A54F",
"!  c #7DA449",
"~  c #76A84E",
"^  c #7CAB4E",
"/  c #6FA451",
"(  c #72A550",
")  c #77A850",
"_  c #7BAA51",
"`  c #668664",
"'  c #6C847A",
"]  c #738F71",
"[  c #759973",
"{  c #7EA868",
"}  c #968E0E",
"|  c #99880B",
" . c #A69909",
".. c #A68718",
"X. c #B49317",
"o. c #B2A409",
"O. c #B7A816",
"+. c #BDB712",
"@. c #908F34",
"#. c #B08F2A",
"$. c #B9AB34",
"%. c #C48B1B",
"&. c #C6981B",
"*. c #D6991C",
"=. c #E39F1D",
"-. c #C4B60B",
";. c #C5A719",
":. c #C6B615",
">. c #CCB113",
",. c #E7A81E",
"<. c #EAB31E",
"1. c #CA8C24",
"2. c #D48924",
"3. c #D99422",
"4. c #DC9B23",
"5. c #E29D24",
"6. c #DDA323",
"7. c #D8A725",
"8. c #D0AE2C",
"9. c #D9B83A",
"0. c #E4A424",
"q. c #E5AB25",
"w. c #E9AD24",
"e. c #E6AD29",
"r. c #E4B726",
"t. c #EBB325",
"y. c #EDBA26",
"u. c #E5B32C",
"i. c #EBB52A",
"p. c #EDBB2A",
"a. c #F1BD26",
"s. c #F0BE29",
"d. c #E4AF32",
"f. c #E6BA35",
"g. c #B7C035",
"h. c #CDC70D",
"j. c #D6C313",
"k. c #E7D213",
"l. c #F3D914",
"z. c #F7EB09",
"x. c #F9E810",
"c. c #CDC638",
"v. c #EDC52B",
"b. c #F2C225",
"n. c #F6CC25",
"m. c #F1C32B",
"M. c #F4CC2B",
"N. c #F6D12B",
"B. c #E8C437",
"V. c #F2CC33",
"C. c #E9E02A",
"Z. c #8F904F",
"A. c #928759",
"S. c #A98F42",
"D. c #84A749",
"F. c #82AE4E",
"G. c #86B04E",
"H. c #8CB34D",
"J. c #91B64D",
"K. c #9BB44E",
"L. c #95B94D",
"P. c #9BBC4C",
"I. c #86AB53",
"U. c #92AC52",
"Y. c #89B251",
"T. c #95B655",
"R. c #A5AB4A",
"E. c #A8B64C",
"W. c #A1BE4C",
"Q. c #B8BA47",
"!. c #A4BB53",
"~. c #B6BD56",
"^. c #9A8A69",
"/. c #999367",
"(. c #8D8C78",
"). c #A8966B",
"_. c #A79A68",
"`. c #A99977",
"'. c #B29C77",
"]. c #84AF6C",
"[. c #8BB463",
"{. c #89B26D",
"}. c #95B962",
"|. c #9CBE62",
" X c #93B76D",
".X c #9CBD6D",
"XX c #87AB78",
"oX c #8AB271",
"OX c #94B870",
"+X c #ADA56A",
"@X c #B4AA6E",
"#X c #B9A778",
"$X c #B1B573",
"%X c #C8AF45",
"&X c #C7B944",
"*X c #D6BB47",
"=X c #E1B842",
"-X c #C0AA7F",
";X c #C6B87B",
":X c #AFC647",
">X c #A4C24B",
",X c #ABC54A",
"<X c #B3CA49",
"1X c #B6C849",
"2X c #AEC258",
"3X c #9FC068",
"4X c #A4C26C",
"5X c #AAC668",
"6X c #ACC774",
"7X c #D0C845",
"8X c #CDC47E",
"9X c #5E7580",
"0X c #7C7D84",
"qX c #738D82",
"wX c #708A8E",
"eX c #769186",
"rX c #7C9286",
"tX c #6C879B",
"yX c #7FA881",
"uX c #758CA2",
"iX c #7A98AA",
"pX c #7D9AB3",
"aX c #949390",
"sX c #84AC82",
"dX c #8AB488",
"fX c #8EBB8F",
"gX c #97B383",
"hX c #94BD8D",
"jX c #9BB197",
"kX c #AFAA89",
"lX c #9098A2",
"zX c #88A6B1",
"xX c #A9ACAB",
"cX c #B2B5B4",
"vX c #C6AF87",
"bX c #D2BD86",
"nX c #9AC28E",
"mX c #9EC091",
"MX c #AFC38D",
"NX c #CCC789",
"BX c #D4C485",
"VX c #D7CA86",
"CX c #D9CB87",
"ZX c #DCD287",
"AX c #93BBC1",
"SX c #9BC3C8",
"DX c #A5CCCE",
"FX c #C5C9C8",
/* pixels */
"4X.X4X4X].oX5X X5XOX.X4X.X4X5X4X3X4XOX{ .XOX XoXOX.X;X{. X3XOX.X.X.XOX.X4XoXOX4X.X3XOXOX4X]..X.X5X.X.X.X{.5X.X.X5X5X5X6X",
"P.P.J.>X_ / >XW.,X) W.L.L.W.>XP.L.>XJ._ T z b T K.%X=XI.^ G.L.G.P.F.H.F.W.H.G.L.L.L.H.L.P.H.H.P.>XW.L.,XH.W.!.W.,X,XP.5X",
"L.>XH.>XW./ ,X>X>XG.>XH.,XP.P.L.P.L.Y.R [ mXmXx D.d.f.%XH.J.L.H.L.F.J.F.L.L.J.L.H.T.^ L.W.P.J.P.>XW.:X>X>XP.>X>X>X:X>X5X",
"L.>X,X>X>XL.,XP.P.D.,XH.>XG.>XP.G.>X! ] MXOXMXNXg d.d.f.&X*XJ.H.H.H.H.H.G.H.L.L.F.F.F.L.H.L.J.L.W.,X>XP.>XP.P.W.,X:X>X2X",
"L.W.P.:XP.P.,XL.F.D.>XF.T._ T.T.F.f.h MXZX$XA.BX`.#.i.i.p.f.E.U.I.G.G.F.F.F.F.W.F.Q D.H.~ P.W.G.J.<XP.J.L.L.P.,XP.>X:X4X",
"G.W.G.,XH.G.>XH.~ ,XG.F.L.P.*X*XQ.u./.NXCXCX_.NXBXG &.f.s.s.&XI.I.I.K.^ F.J.F.P.H.~ J.F.Q >XJ.^ H.1XP.J.J.,XL.:X<XJ.<XT.",
"^ L.G.W.H.^ ,X^ G.W.( F.>XG.~.f.f.A bXVXCXCXvX+XCXA.xXL 7.p.9.I.U.U.*X) _ J._ J.L.Q P.^ ^ W.,XH.H.1XW.G.L.,XP.P.>XJ.,X|.",
"~ G.H.H.L.^ >XW W.J._ W.L.H.!.*Xp.S.NXBXCXCXBX+XCX;XxXFX(.i.*XU.E.*X*XT.( Y.R.E.W.Q >XP.L.J.J.<XF.<X,XF.W.P.>XH.P.P.P.5X",
"^ G.L.H.L.F.W.F.W.F.P.&Xs.B.=X*Xs.K BX;XBXCXCXA.@XCX(.FXFXS.%XR.E.s.=X2XF.9.u.f.P.P.,XL.>XD.H.,XJ.P.,X^ :XP.>X~ H.P.J.5X",
"L.G.L.G.P.H.L.H.W.F.1Xp.s.s.s.s.0.'.bX#XbXBXBXA.#XCX^.FXFXaXf.R.&Xs.f.,X9.i.p.p.,X<XL.Y.P.F.J.P.P.H.P.F.W.F.P.~ J.P.L.T.",
"L.H.L.J.L.J.L.T.*XB.7Xf.s.s.V.s.6.`.;X;X'.bXvX)._.BX_.xXxXcX;.B.f.m.s.i.p.s.i.u.7X!.Q.&XL.J.J.J.L.H.L.H.J.F.<XG.G.L.L.|.",
"H.H.H.W.H.J.H.1X%Xi.m.M.i.s.s.s.7.).-X-X'.'.^.vX'.bX#XlXaXcX&.m.m.s.i.i.s.a.i.i.B.f.i.f.H.F.H.F.H.J.D.G.H.^ <XL.G.H.H.}.",
"H.G.P.L.G.G.Y.1Xf.i.w.i.i.i.s.s.6.).#X'.^.^.L vXkXvXkXlX0XxXX.i.t.a.p.p.a.a.a.p.i.i.p.9.F.F._ F.^ J._ _ _ H.>X<XG.G.G.[.",
"G.G.,X^ ^ G.>XJ.d.i.i.i.w.w.s.s.7.).'.'.^.v L kX'.kX`.iXk 0XS 2.C t.a.a.a.y.y.a.y.t.u.R.L.) J.Q W P.( / _ J.L.1XH.F.Y.Y.",
"^ J.L.^ G.L.J.R y a.w.i.w.e.i.e.2.^.kX'.#X= N aXN aX0XuXk lXD - . %.t.s.0.w.t.s.t.i.9.Y.J.~ ^ W.~ J.H.Q K.D.G.<X>X^ P.[.",
"~ L.W.L.G.7X&X$.3 G i.w.w.5.5.5.2.L `.`.L ' m qXn 0XN zXpXM   - D 2.w.w.3.5.w.w.w.m.~.L.H.F.( >XF.F.P.Q ,XQ P.<X<XQ ,X[.",
"G.P.Q :XW.9.i.i.7.1 A w.w.5.2.J 2.K L (.N ] m rXm ' c pXpX. & * t 2.2.J 2.3.0.t.m.V.7XP.Q P.! H.P.^ P.^ P.~ >X,X<XH.>X|.",
"L.H.Q J.W.W.*Xi.p.u.C C 3.J J J H h L j qXeXm qXk qX9XpXtX& & & & @ - D J 5.5.q.m.V.Q.W.{ G.L.L.P.^ L.L.L.G.P.>X>XP.P.|.",
"H.H.F.H.W.>XE.d.e.e.q.A + F F F D ; 0Xj eXeXm m n ' uXpXk * * & .       B J 3.y.s.3 I !._ ^ J.L.H.G.>XH.G.G.L.L.H.H.L.|.",
"L.G.F.F.W.,Xc.d.e.e.0.=.H +   6 D @ 0Xk eXeXm n qXn zXuXO @ o           . + C A -   G ~.H.) H.L.^ J.P.^ ^ H.^ Y.G.^ H.3X",
"F.H.G.H.7XV.s.y.q.q.q.6.3.J -   6 @ N c rXeXx ' wXtXuXM o     . o & & ; F X.A C A %.s.V.~.I.H.H.G.L.G.^ J.H.J.^ ^ G.P.3X",
"^ H.I.&Xv.m.m.s.t.0.0.4.2.J F -   O m l eXqXj qXM pXtXo     O * * & & D 0.4.2.5.w.b.M.a.m.&XW.I.G.H.^ Y.H._ >X^ G.^ >XY.",
"_ _ G.Q.u.e.i.t.t.w.5.4.2.J F D X   c c eX' j ' tXpXj .   o * * @ * @ ; J e.p.b.n.a.t.<.a.&X,XF.Y.^ P.^ _ P.P.J.^ ^ ,X[.",
"G.G.I.F.E.u.q.r.7.m.s.w.2.J H D @ X k c eXN m m tXtXo   o & & @ O O o O 6 1.7.y.5.5.w.w.9.F.:XF.^ ^ P.G.,XH.J.>XY.H.>X{.",
"G._ G.^ 2X2XB.m...5 %.4.2.J H F - O = m ' c N pXpXo   . o .                   + 5 A %.9._ / :XP.~ ~ H.,X>X^ H.>X_ P.P.[.",
"^ G.H.Y.<X>Xu.t.t.*.C 6 2.J B ; @ O . k , j = j   .         # 2     # }  .}             7 @.<X>XL.~ H.<XJ.^ H.>XH.P.J.3X",
"G.L.Y.P.<X9.s.w.w.w.,.B 6 B + +   .   4 } O...<             } O.2   7 h.h.o.  < j.>.        @.>XL.J.P.,XG.Y.L.P.>XL.J.}.",
"Y.W.^ >Xc.s.t.w.w.5.=.=.5     X     7 j.:.:.:.+.%       % # +.+.2   o.h.l. .   .l.;.  V &.$   U H.L.,X>XH.Y.H.>XP.L.H.3X",
"W.L.G.>XK.E.f.t.w.q.3.2.F           -.:.:.O.O.+.|     2 7 2 +.+.4   h.k.z. .   .C.O.. :.C.7   # D.H.>XL.J.H.P.>XP.L.L.T.",
"P.W.L.W.U.8.6.6.,.4.3.3.Z           k.j.+.#.#.O.o.    8 } 2 +.h.4   h.z.z. .   .l.O.  c.c.        y U G.^ L.P.J.W.P.G.|.",
"L.Y.>XP.9.7.4.6.,.w.w.3.B           j.:.:.O.O.O. .    U } 2 +.h.U   h.z.z.o.   .l.-.  g.c.        % y ! ^ L.P.H.>XL.^ |.",
"G.G.>XP.U.&Xu.i.q.5.*.%.S           -.j.:.O.O.;.V   . 4 } % +.h.}   h.z.z. .   .l.-.  c.1X%     U G.J./ J.J.J.Y.>X^ H.3X",
"G.G.L.P./ &X7.0.6.4.0.w.A           < j.j.:.:.O.      # } # +.h.}   o.z.z.o.   .l.>.  O.B.3   s G.^ ~ ^ H.H.H.J.W.^ L.}.",
"^ G.L.P.R.e.6.7.6.t.n.X.4 ..- -       $ |  .8           < } O.+. .  2 x.x.-.  < l.k.| O.1   y ~ G.~ Q _ H.L.G.H.P.J.G.3X",
"H.F.H.L.H.P.Q.&XB.v...1 v.n.;.V | r.Z K v @               2  .>.k.8 7 j.x.k.|  .>.X.8   # f W W ^ / ^ ^ G.H.H.^ L.H.G.T.",
"J.G.G.L.H.J.P.,X;.1 ..v.n.n.n.n.n.<.t +X;X).#XlXlX+ . - B $     8 V 8 8 8 8 -   $ 5 A 3 q u b ( Q Q ~ P.^ G.J.^ L.L.^ [.",
"H.H.H.H.H.W.P.9.X.v.N.N.N.n.n.b.<.5 h +X8X+X;X(.lXaXZ . &.v.*.&.X.......X.;.%.=.,.,.q.r q i s s E Q Q G.P.^ H.^ H.H.G.[.",
"J.H.G.H.H.>XQ.M.V.N.M.y.y.<.,.,.C   A./.ZX;XK -XaXcX1.1 # 7.,.n.n.n.N.N.V.w.<.v.y.b.m.d a q e u u R ~ Q >XF.L.F.G.Y.P.{.",
"G.L.G.G.P.,Xd.q.i.9.&Xu.,.<.,.5   ..@XA.ZX8Xh 8X`.cXxX;.  X X.n.l.n.M.N.M.=.=.#.#.#.@.t q w q q u i D.W J.P.G.J.G.P.H.}.",
"F.P.^ ^ >X,XE.R.>XW.8.q.<.,.5   X.>.;X+XZX8XA.;XVXjXxX_...    Z r.n.b.a.t.*.S 6 9 > e e q > w w u q f H.H.,XG.P.H.>XG.T.",
"^ P.H.H.>X>XH.^ J.1Xa.a.6.1   C M.X.8XA.ZXCX+X@X8X/.FXxX*.%.4     1 Z 5 $   6 1     > u e q > 9 e q q U.G.,XL.H.>XP.^ 3X",
"W.J.P.P.>X>XP.F.W.7Xb.X.# g @.v.N.#.8XY BXCX+X_.;X;XxXxXK <.a.O.-       C *.,.#.9 X % q u e 9 > > q > Y L.,XP.~ >XH.P.Y.",
"P.^ P.P.P.>XP.>XW.Q.U : ! P.P.V.M.S.;Xv BXZX+XVXg BX(.xXaX<.b.n.N.:.6 g ,.,.,.*.p 9 h q q q q 9 > , 0 q L.>X>XG.>XL.L.|.",
"H.~ L.P.H.P.L.L.P.y r J.H.L.L.B.M.Z.#X@X+XZX@XZX@X;X^.cXxXC y.a.M.v.E.T.8.*.,.*.G u e h q q q w w > > , D.W.P.W.>XL.L.5X",
"J.! H.J.H.L.H.H.y y H.L.J.J.P.m.t.A.kX8X_.BX@XNX).;X-XcXcXm - X.p.B.P.H.D.G 4.2.#.p u d a 0 q q 0 e q q z P.L.L.>XL.H.|.",
"H.G.H.G.G.H.H.R : G.H.H.H.H.Q.y.w./.XX;X8Xz $XnX'.;X;XcXN iX@.$ % U H.Y.! p g G G u u u h d w w i e q q u L.L.H.H.L.H.}.",
"G.~ G.^ F.^ F.~ Q F.G.G.G.G.E.r.$.] XXgXXXx [ nX;XbX;XxXk N I R.: H.G.H.~ Y e u r e u i u f a w q e u k q Y.L.H.Y.G.G.T.",
"G.^ ^ ^ ~ ^ ^ ^ ^ ^ G.G.^ G.^ K.R [ sXsX[ ` ] nXkX;X-XlXwXyXP ^ ! G.H.^ ^ R e q e u i p s p v r q u 9 w q _ P.L.^ ^ ^ [.",
"~ ^ W ^ W ~ W ~ ~ ^ H.^ ^ ^ ^ ^ W { sXsXsX[ [ dXXXvX#XlXwXzXP W L.^ G.Q ~ ~ Y 9 u q u u u s u f i e e q 0 D.U.H.^ ^ J.{ ",
"~ G.Q Q W Q W ~ / H.^ ^ ^ ^ ~ ^ P [ dXhX] fXdX[ [ mX/.iXiXzXP ~ W.^ ~ W Q W ) s q u u u s f u u h s e q q R ^ H.~ ^ L.{ ",
"G.~ ~ ^ W Q / Q ~ H.~ ~ ~ ~ ~ ~ W ] fXXXdXfXnX` [ fX[ DXSXiXT P.H.H.W ~ Q ~ ( W s u i p s s s u u b u i i Y F.H.~ ^ H.{ ",
"L.W G.~ ( W W W ^ L.~ ^ ~ ~ ^ ~ G.` fXOXfXfXfXY [ fX] DXDX` ~ >X^ J.Q ^ W Q I.( W b i s i s s u s u b i i a F.F.H.^ H.[.",
"H.^ J./ W ) / Q ^ L.~ Y./ H._ _ W Y hXhXhXhXfX[ nXyXiXDXqX^ J.P._ F.J.Q Q ~ ^ F.W _ R z s s p s p d f b w a R I.G.G.H.}.",
"G.H.G.Q G.W F.W ^ H.~ ^ ^ H.~ G.W g hXhXhXnXsXXXnX` AX' ! G.J.J.F.F.G.Q F.~ Q F.^ ^ ~ ( Y z s d s u a z z w E H.L.Y.J.3X",
"H.L.^ ^ ^ Q ~ ^ G.G.^ ^ L.L.^ H.G.R [ hXhXhX] sXnX> P D.G.G.J.H.F.F.~ _ F.^ Q ~ F.) ^ ~ ( I.Y b d a p d f z b P.L.L.L.|.",
"L.L.^ L.) ~ ^ ^ ^ ^ ^ _ L.G.L.L.H.G.z hXhXsX` fXXXI ! ^ G.^ _ _ F.F.^ F.) ~ Q ~ ) ~ F.~ Q H.~ _ ( E Y b d b b U.J.L.L.|.",
"L.L.H.H.) / ) ^ ^ ~ ~ G.L.L.L.L.L.J.! ` fX[ fXfXi / / _ ) ^ ^ ^ ^ ~ _ ^ _ _ H.^ ~ Q H.W Q L.W F.( Q H./ I.E b E T.L.T.|.",
"L.L.L.^ Y._ / ~ J./ / J.L.L.L.L.L.L.J.I [ nXfX` P / / ) _ ) _ F.F.( F.~ ^ ~ L.^ W ^ H.Q F.H.~ ^ ( Q J.Q _ J.P.U.U.K.W.3X",
"L.P.P./ / P._ / P./ / P.L.L.L.P.L.L.L.^ I x x T / / / / _ ^ F.H.G.~ ^ H._ ^ H.L._ H.H.W J._ H.^ Q Y.J.F.( L.W.L.T.>XW.3X",
"4X4X5XoX{ 3X6X].5X3X{.5X4X6X4X5X4X4X3XoX3X{ {.oXoX].oX].oX3XOX3X.X X X4X XOX.X4XOX4X.XoX4XoX4X5X.X.X.X.XoX.X5X5X6X5X5X6X"
};
