/* XPM */
static char *_15c899cb9494a4dff703b2915aaf06ej6XaP6kZImvwrqn1[] = {
/* columns rows colors chars-per-pixel */
"60 60 240 2 ",
"   c #000000",
".  c #0B0400",
"X  c #190C00",
"o  c #181402",
"O  c #271902",
"+  c #351E01",
"@  c #2C270E",
"#  c #362905",
"$  c #393408",
"%  c #262C19",
"&  c #462B03",
"*  c #483707",
"=  c #563906",
"-  c #5D3901",
";  c #633C01",
":  c #3A4B20",
">  c #4B4305",
",  c #5B450A",
"<  c #5E5506",
"1  c #5A4C14",
"2  c #684808",
"3  c #744701",
"4  c #77580B",
"5  c #685111",
"6  c #6D5512",
"7  c #775B16",
"8  c #5F6615",
"9  c #67690F",
"0  c #766A0C",
"q  c #797604",
"w  c #7D6314",
"e  c #515031",
"r  c #715C32",
"t  c #566726",
"y  c #486237",
"u  c #587836",
"i  c #55564E",
"p  c #675946",
"a  c #586D47",
"s  c #5A755A",
"d  c #6C684A",
"f  c #687650",
"g  c #7B7554",
"h  c #5A6A6D",
"j  c #686F70",
"k  c #865403",
"l  c #8A5A0B",
"z  c #87640E",
"x  c #866516",
"c  c #8D6A12",
"v  c #8C6D1A",
"b  c #916D13",
"n  c #926E19",
"m  c #877414",
"M  c #957114",
"N  c #9A7516",
"B  c #9A771B",
"V  c #A37D1B",
"C  c #94722A",
"Z  c #A47D24",
"A  c #847B53",
"S  c #698A3B",
"D  c #758F38",
"F  c #668549",
"G  c #6A9746",
"H  c #739A44",
"J  c #729A45",
"K  c #68835E",
"L  c #6FA44E",
"P  c #72A54F",
"I  c #7CA348",
"U  c #76A84F",
"Y  c #7CAB4E",
"T  c #6FA451",
"R  c #72A550",
"E  c #77A852",
"W  c #7BAA50",
"Q  c #698665",
"!  c #6F906E",
"~  c #77946D",
"^  c #779974",
"/  c #7DA864",
"(  c #7EA47B",
")  c #9B9B00",
"_  c #928C11",
"`  c #A59A0C",
"'  c #A5841C",
"]  c #AB841D",
"[  c #B2891F",
"{  c #A79814",
"}  c #A8A801",
"|  c #BCBC00",
" . c #B9A418",
".. c #B4B518",
"X. c #8B9937",
"o. c #A78423",
"O. c #AA8423",
"+. c #B48C22",
"@. c #BC9324",
"#. c #BA9429",
"$. c #A29030",
"%. c #8AA23E",
"&. c #B1A925",
"*. c #C7B51A",
"=. c #CBB31A",
"-. c #C69B28",
";. c #C59C2B",
":. c #C09A32",
">. c #C5A925",
",. c #CCA32C",
"<. c #D3A62D",
"1. c #D5A92E",
"2. c #DAAD2F",
"3. c #D4B32B",
"4. c #D4A833",
"5. c #DBAD32",
"6. c #DDB132",
"7. c #E0AF34",
"8. c #E3B533",
"9. c #E9BA36",
"0. c #ECBD36",
"q. c #BDC31E",
"w. c #CFCF00",
"e. c #D9C919",
"r. c #E2D80F",
"t. c #E7CC1B",
"y. c #E9D217",
"u. c #F7F109",
"i. c #F9E91A",
"p. c #D7C82B",
"a. c #E7C924",
"s. c #EDD224",
"d. c #F7DC2A",
"f. c #EFC037",
"g. c #F4C439",
"h. c #F8C83B",
"j. c #FACA3B",
"k. c #FAE522",
"l. c #FAE424",
"z. c #89835D",
"x. c #928F50",
"c. c #AE9450",
"v. c #87A846",
"b. c #82AE4E",
"n. c #95A74D",
"m. c #86B04E",
"M. c #8CB34D",
"N. c #97B245",
"B. c #91B64D",
"V. c #95B94D",
"C. c #9BBC4C",
"Z. c #84AB54",
"A. c #88B253",
"S. c #95B85B",
"D. c #A8BA45",
"F. c #A1BF4B",
"G. c #B3B151",
"H. c #8C8866",
"J. c #928C67",
"K. c #899368",
"L. c #98936A",
"P. c #9C956C",
"I. c #898B75",
"U. c #899A78",
"Y. c #9B9A75",
"T. c #A2996D",
"R. c #A19B74",
"E. c #86AD68",
"W. c #9BA768",
"Q. c #8CB363",
"!. c #86B06D",
"~. c #8CB36E",
"^. c #92B665",
"/. c #95B962",
"(. c #9CBD63",
"). c #92B76E",
"_. c #95B96F",
"`. c #9CBD6D",
"'. c #87A977",
"]. c #8BB272",
"[. c #95B773",
"{. c #ABA56D",
"}. c #B5A66A",
"|. c #A2BC6B",
" X c #B9B964",
".X c #ABA579",
"XX c #B5AC78",
"oX c #A9B876",
"OX c #B8B478",
"+X c #CEAD53",
"@X c #E2B84D",
"#X c #C5AB64",
"$X c #D3B868",
"%X c #C5B87C",
"&X c #A4C24B",
"*X c #AAC54A",
"=X c #B4CB47",
"-X c #B3CA49",
";X c #A5C25B",
":X c #9FC06F",
">X c #A9C665",
",X c #A4C26C",
"<X c #AAC56B",
"1X c #B3C769",
"2X c #AAC47A",
"3X c #B7C477",
"4X c #D4C753",
"5X c #EEC24B",
"6X c #CDC374",
"7X c #687684",
"8X c #718B8B",
"9X c #8B9090",
"0X c #86AC83",
"qX c #89B388",
"wX c #8EBB8F",
"eX c #96BA89",
"rX c #93BD8E",
"tX c #9DA694",
"yX c #A9AB8F",
"uX c #BBB787",
"iX c #8F9AA7",
"pX c #85A4A9",
"aX c #96AAAE",
"sX c #96A8B7",
"dX c #A3A6A4",
"fX c #A8AFB2",
"gX c #B4B8B5",
"hX c #C4BB86",
"jX c #C6BC85",
"kX c #96C08F",
"lX c #9BC38E",
"zX c #9EC497",
"xX c #A6C58C",
"cX c #BAC78B",
"vX c #BCC0BC",
"bX c #CCC287",
"nX c #D5C788",
"mX c #B4BCC0",
"MX c #9DC5C8",
"NX c #A4CCCE",
/* pixels */
",X`.,X:X!.].<X).<X_.`.,X|.,X<X,X:X,X_.!._.).).~._.~.[.~.~.|.[._.`.[.).`.,X].).,X_.:X`._.,X].`.|.,X|.[.|.].,X,X,X<X<X>X2X",
"C.C.B.&XW L &X&X*XW C.V.C.C.&XV.V.F.M.Y D s F G V.U m.W b.m.C.A.C.m.M.m.F.M.m.V.V.C.M.M.C.M.M.C.*XF.V.*XM.F.F.C.&X&XC.>X",
"V.&XM.&XF.P &X&X*Xb.*XM.*XC.C.C.C.C.m.D ~ lXlXf v.B.b.b.A.b.V.M.V.m.B.m.V.V.B.V.m.V.Y V.D.V.V.V.F.F.*X&X*XC.&XF.&X=XC.>X",
"V.&X*X&X&XV.*XC.V.Y *XA.&Xm.&XC.m.C.I ! zX].kXeXu M.E B.Y m.M.M.B.m.m.M.m.M.V.V.m.b.b.V.m.C.B.B.C.*X*XC.F.C.C.F.&X-X*X;X",
"V.F.C.*XC.C.&XV.b.v.&Xb.V.W V.B.P V.u lXxX0XK lX( D A.V.Y m.m.m.m.m.m.m.b.b.b.F.b.U m.B.P V.F.b.B.-XC.V.V.V.C.*XC.&X=X>X",
"M.C.M.*XM.M.*XM.P *Xm.b.V.C.M.U P I Q kXxXlX! eXkXy I Y m.m.Y b.Y Y m.Y b.B.b.F.m.R B.b.P *XB.b.M.-XC.B.B.*XB.-X=XM.=XS.",
"Y V.b.F.M.Y *XU m.*XP b.F.b.V.R Y u qXwXkXlX0X( lXK MXh G M.m.b.b.E v.Y U B.Y B.C.P C.b.Y F.*XM.M.=XC.m.B.*XC.C.D.V.*X|.",
"P M.M.B.B.Y &XP C.B.b.C.M.M.F.R L F wXwXrXkXqX~ lX].8XNXj b.m.U C.W b.B.P m.b.b.F.P &XV.B.B.B.-Xb.-X*Xb.D.C.*Xm.C.C.C.B.",
"b.m.V.m.V.m.F.b.C.b.C.F.W U V.v.Y K wXwXwXkXkXs ( kX8XMXMXF A.m.V.m.Y *XE V.B.b.C.F.D.B.F.m.m.*XB.F.*XW *XC.&XW M.F.V.>X",
"M.M.C.m.C.M.V.M.C.Y *XV.L P I V.H ^ kX( wXrXrXQ ( kX! NXMX8XM.V.M.m.M.&XC.M.C.b.F.=XV.M.C.b.V.C.C.A.F.b.C.b.C.H v.v.D y ",
"V.B.V.B.V.V.V.V.V.m.*XM.L L G v.G ^ xXwX^ wXqX'.^ zX^ sXaXsXv.(.N.V.M.C.=XM.B.B.=XF.B.B.V.B.V.B.V.M.B.v.V.v.D.v.%.S ) < ",
"M.M.B.C.M.M.B.*XB.B.*Xb.G I u   8 Q [.8X^ 0XU.uXR.bXOXdX9XgX:.@X6XOX~.F.=XV.b.F.=XB.M.B.M.b.m.v.m.B.m.A.m.H *XN._ } ) } ",
"m.m.C.V.M.m.M.*XM.M.F.U m.C.u ) ) K.'.eXU.H.z.hX%XnX%XdX9XgX>.h.f.h.@X1X-XB.Y -X*Xb.F.b.Z.b.Y b.W V.W W W v.N.t } q.) S ",
"b.m.&XY b.b.F.B.N.M.C.W =Xm.L t } Q oXtXI.p J.hXhXnX%XdXi 9X,.9.v j.f.@X6XS.C.*XC.A.C.R C.U B.P R C.R R W B.n...| } _ b.",
"Y B.V.Y m.C.B.H t m.V.C.-XW G X.q {.~ U.yXe R.jX{.jX%XgXj dX,.1   ;.8.8.2.+X6X;XB.C.V.m.B.U Y &XP M.v.G C.b.m.D ..t N.E.",
"P C.C.C.U *Xm.P : t C.-XF.U G ^.{ s 3XU.H..XT.jXT.jX}.gXgXj   B 5.g.j.g.0.9.2.%XS.C.B.C.m.b.R C.m.v.v.T *XR C.-X-XG F.E ",
"m.C.U *X&XB.V.m.v.: S -XV.Y E 3XZ a U.I.z.hXT.jXT.%Xx.vXgX2 5.h.5Xj.j.j.h.f.0.$XS.V.V.C.H C.W m.C.S C.U C.U &X*X-XM.N.S.",
"V.M.P V.C.V.b.m.M.B.8 8 v.E.OXW.C d yXe yXhXP.jXA nX9XgXtX9.j.j.j.6.+.,.g.f.8.4.#XOX`.&XR m.v.v.v.u u I V.b.C.&X&XC.C.>X",
"M.M.Y M.F.*XB.m.Y C.&XS % r x N V r R.e OXuXL.T.z.%XdXgXA h.j.5.7       O.5.<.,.#.* x.S.W Y B.C.I     o I b.M.C.M.M.V.(.",
"V.m.b.b.F.F.V.V.P N.F.C.K.O   2 ] x yXA uXhXL.J.jXJ.mXdX#.5.C       X o   # x v $   C ,XM.E m.V.D   | w.9 D L D m.Y V.(.",
"b.B.b.b.C.M.*XC.Y Y F.B.n.n &   c V Y.z.uXjXJ.XXjXtXfXP.O.    7 ,.g.g.h.0.>.o.v n #.<.cX(.m.M.M.W D ) 9 } q.M.b.G Y V./.",
"Y m.W W b.V.=Xb.M.L ;XoXc.V B , . M J.H.hXjXd jXT.gXdX,.    -.5Xj.j.h.j.h.h.5Xf.8.6.-.-.#XOXF.b.H t | w.<   D Y b.H &XS.",
"W b.m.b.m.=X&XM.M.[.}.x c V O.] ,   A H.hXXXg hXtXgX#X6   ,.j.j.j.j.j.j.h.h.g.9.8.<.<.<.,.-.6Xb.D N._ q w.u...V.b.H *XQ.",
"b.b.b.b.V.=XB.Y H {.c c N N ' [ +.& p K.hXR.T.H.dXdX+.  o.h.g.8.4.,.;.,.#.4.5.8.8.8.5.2.<.,.+XZ.E S } w.q   @ v.G b.&XQ.",
"b.b.Y m.*X-XB.A.u 1 6 b N V ] ] [ ] e J.yXH.P.fXfX+.# 7 #.1                   O w o.#.6.6.1.,.XXP P X.  w.u.q.F.Y V.C.Q.",
"Y Z.M.A.=XC.Y M.I x.= * N V N w x [ 4 g e p : i   2         > w     $ =.*.'             w ;.4.XXC.P b._ w.$ S F.A.F.V./.",
"A.V.M.V.-XM.W V.R OXb 2 , x O *   $ + 4 >.=.=.,             s.d.0   { k.l.e.  > a.p.        v N P.,X%.&XY D v.C.F.V.V.S.",
"A.&XY &X&XY U m..Xv Z V =     O     0 y.y.s.s.t.>       , > d.l.0   *.i.k.{   { l.=.  m  .#   x N x.*X&XB.M.B.&XC.V.M.(.",
"F.B.A.&XV.U U `.x z z B x           =.y.a.a.a.s. .    n >.w l.l.q   t.i.i.`   { l.*.  =.a.,   O ' c.>XC.M.B.V.&XC.V.V./.",
"C.C.C.C.Y U S.x.z z b b 2           y.y.t.a.3.t.=.    >.>.0 l.l.0   r.i.u.`   ` k. .  =.a.      . 1 x.M.Y B.C.B.F.C.m.(.",
"V.M.&XC.U U M.x.z c b N 5           y.y.t.a.a.a.=.    &...9 l.l._   r.u.u.}   ` i.*.  p.a.        $ a I U C.C.M.&XV.m.(.",
"A.b.&XC.H M.B.c.z b M N w           *.y.t.t.a.s.'     { *.> 4Xp.`   e.u.i.}   ` k.*.  a.s.$     ] OX/.U B.B.B.m.&XY m.(.",
"b.b.C.F.L V.,X.Xv n N N 2           > e.y.y.t.=..     > p.% G.4X&.  ..i.i...  { k.e.   .a.5   v @.}.Q.W M.M.M.M.F.Y V.S.",
"W A.B.C.Y C.,XC x B b 4 * 5 O #       # ` >._           9 x.G.p.&.  < i.k.*.  > l.d.{ >.1   w -.-.@.OXU b.C.m.M.C.B.M.|.",
"M.b.M.V.M.C.c.4 l z 5 # b V x , 4 V 7 d p %       #       1 $.G.p.m 4 e.l.s.{  .3. .0   * +.1.<.-.-.#Xb.b.B.M.b.V.B.b.S.",
"V.b.m.B.M.C.x.4 2 @ , b V O.[ ] V V e I..Xz.Y.iXiXZ # 6 B @     0 0 0 0 0 0 *   # 7 o.,.g.0.6.6.2.-.#X,Xb.b.M.Y V.V.Y Q.",
"B.M.M.M.M.F.x.4 2 z b M V ] [ +.#.1 e J.yXJ.Y.I.aXI.x   Z Z c x v v n n Z +.;.4.0.h.j.j.j.g.9.6.2.<.#XB.V.Y M.Y m.M.m.Q.",
"B.M.m.m.M.;XoXw l z b N V V [ [ 2   A J.jXXXg %XiXgXc.= X ; ; ; = 6 Z @Xh.j.j.j.j.j.j.j.g.g.f.8.2.,.oXP &Xb.V.b.m.M.C.Q.",
"b.V.b.b.C.&X`.}.x z b M B V [ 2   x T.A jXjXp nXR.gXyXl   . - 3 ; = 7 -.h.h.j.5Xj.j.h.h.j.f.8.6.<.-.hXW V.C.m.V.b.C.V./.",
"b.C.b.b.&X*XOXz n B b b N N ,   z Z R.J.jXjXA %XjXdXfXj ;     & ; ; = C 0.8.;.O.#.8.g.g.0.8.6.1.-.-.@.OXm.*Xm.C.M.&XY S.",
"Y C.M.M.&X1XC z c M V V n $   = Z b XXA jXhXR..XnXA mXiXk k +     X + & #   6 6 o   #.6.6.4.1.1.,.-.-.#Xv.*XV.M.&XC.M.Q.",
"F.B.C.C.*XG.x z c M N w O 6 n ] V x R.d uXuXR.A R.uXiXsXp l k ; X       5 -.5.5.;.# x 5.8.9.8.8.2.1.,.$XV.*XC.U C.V.C.Q.",
"C.Y C.C.C.1Xx c M N 5 & B [ @.;.-.A .Xp hXjXR.jXd jX9XiX9Xk k k 3 = O = Z 5.7.7.9.5.h.h.h.g.0.9.6.3.1.#X&X&X&Xm.&XV.V.(.",
"M.Y V.C.M.C.{.z c , = ' [ [ @.;.-.g %X.XY.jX}.nX}.jXA fXiX& k k 3 ; ; l -.j.j.j.j.j.j.j.j.h.h.0.9.6.1.bX&X&XC.F.&XV.V.(.",
"M.Y M.B.M.V.oXc.* = N ] ] [ @.-.-.A yXXXA jX}.nX}.nX.XfXiXh X - 3 ; ; l <.j.j.j.j.j.j.j.j.h.g.f.9.6.$X;XC.&XV.V.C.V.M.(.",
"M.m.B.b.m.m.B.E.e $.N V ] [ [ [ -.P.XXXXjXp uXnXXXnXjXsX7X8X= X O = = l 8.j.j.j.j.j.j.j.h.g.f.0.9.4X2XV.V.V.V.M.V.V.M./.",
"m.Y b.Y b.Y m.E E oXoXc.' ] [ [ Z R..XXX}.d .XjXjXjXuXiXi h ; ; O ; = x 0.j.j.j.j.j.j.h.j.0.9.@X1X:XV.V.V.V.V.M.m.m.m.Q.",
"Y U Y b.W W W E W W m./.oXOX#Xc.Z A R..XyXA A jXjXjXuX9X7XiX; 3 - - = C 9.0.0.0.g.0.0.0.@X6X X2XM.V.m.m.m.m.V.V.m.Y m.Q.",
"Y Y P Y L U P U U Y M.Y Y Y Y A.Q.'.eXyXyXY.K.uXY.uX.XaX7XsX= 2 ; = r O.5.@X$X@X6X%X X|.`.b.S.A.b.V.b.m.m.V.M.M.Y m.M.Q.",
"U m.L L P L P P T M.Y U Y Y U Y G ^ rXqX! wXqX^ ^ zXU.8XpXsXK.2XOX.XuX].R R E U U m.Y M.Y U Y C.Y V.Y Y m.C.Y M.U U V./ ",
"M.U P Y L L L P U B.U U U U U U G ! rX'.qXwXzXK ^ wX! MXMX8XT C.B.M.R R R U R R P m.P b.m.U P V.m.M.U P m.V.m.M.U Y M./ ",
"B.L M.U P P L L Y V.U Y U U Y U b.K wXeXrXwXkXK ^ wX8XNXNXs / &XZ.M.R b.R U W T L Y P P V.U P b.B.Y Y R V.V.M.m.m.m.M.Q.",
"M.Y B.R L U L P Y V.U M.T M.Y W U f wXkXkXkXwX~ kX8XwXNX8Xb.M.C.W b.M.P R P Y m.P Y W P m.Y Y Y B.m.m.U M.V.M.m.M.m.m./.",
"m.M.m.P b.P Y R Y M.U Y W M.U m.U u kXkXrXkX'.( lX! MX! I Y V.V.Y b.M.P m.U R Y U U Y P Y m.m.U Y Y Y Y m.M.V.M.V.m.V.(.",
"M.V.U b.Y P U Y Y A.Y Y V.M.Y V.M.H ~ kXkXwX^ 0XkX: S I M.m.V.M.m.m.W Y Y Y L U b.U b.U U m.m.P Y Y U m.Y M.V.V.V.V.V.(.",
"V.V.Y V.U P b.Y Y Y m.Y V.M.M.V.B.m.a rXrX0XQ wX( S Y m.Y Y Y Y m.W Y Y W Y L Y E U b.U P M.P Y P m.U U V.m.C.V.V.V.V.:X",
"V.V.B.A.U U U Y U U U Y V.M.V.V.V.M.I K kX^ wX8XF L L U U Y Y W W U W U W W M.Y U R M.L R B.R m.L P M.L m.V.C.V.V.V.C.(.",
"V.V.V.Y m.Y T U B.U U B.C.V.V.V.V.V.M.S ! wXwXK G T L L W U Y Y m.U Y Y Y Y B.Y U Y M.R m.M.P Y L P V.L Y V.F.V.V.V.C.(.",
"V.V.V.R T C.W T &XT L C.C.C.V.C.C.V.V.Y S s a L T T L L Y Y Y M.Y Y Y M.Y Y M.B.W M.M.R M.Y B.Y U A.B.b.T V.C.V.V.*X&X(.",
",X,X<X~.]._.<X!.<X).~.>X:X<X:X<X:X:X,X!.`./ !.).].!.!.!.).`._.:X:X).).,X_._._.<X_.,X_.!.<X].:X<X,X`./.:X].:X<X,X<X<X<X2X"
};
