/* XPM */
static char *_b13aecbb02a40fef638c64ffa8f7e98OMwp4C669PhNU7Hg[] = {
/* columns rows colors chars-per-pixel */
"60 60 245 2 ",
"   c #000000",
".  c #0A0600",
"X  c #130B01",
"o  c #191502",
"O  c #261D02",
"+  c #301C00",
"@  c #1B250A",
"#  c #352905",
"$  c #31300C",
"%  c #473906",
"&  c #573A06",
"*  c #462B02",
"=  c #623B03",
"-  c #423F32",
";  c #3A481B",
":  c #3B5423",
">  c #4C4205",
",  c #56420B",
"<  c #5C5504",
"1  c #5E4A11",
"2  c #64480C",
"3  c #79590B",
"4  c #6C5513",
"5  c #765B14",
"6  c #68550A",
"7  c #6A6503",
"8  c #776A0D",
"9  c #716A13",
"0  c #4C562C",
"q  c #6F5B32",
"w  c #577636",
"e  c #51682D",
"r  c #697032",
"t  c #54564D",
"y  c #615D44",
"u  c #57704C",
"i  c #7A754C",
"p  c #677E59",
"a  c #6D6D4D",
"s  c #5D6F6A",
"d  c #777C63",
"f  c #667377",
"g  c #845C10",
"h  c #88650E",
"j  c #8C6B13",
"k  c #876817",
"l  c #916D14",
"z  c #936D19",
"x  c #8B7219",
"c  c #997516",
"v  c #9D7A1B",
"b  c #967319",
"n  c #887A07",
"m  c #A27C1B",
"M  c #9C7B22",
"N  c #91743C",
"B  c #A57C20",
"V  c #857C57",
"C  c #86774D",
"Z  c #807F67",
"A  c #66883B",
"S  c #78943B",
"D  c #778C34",
"F  c #5D8239",
"G  c #6A9948",
"H  c #759C45",
"J  c #6B8654",
"K  c #6FA44E",
"L  c #72A54F",
"P  c #76A84F",
"I  c #7CAB4E",
"U  c #7DA347",
"Y  c #72A650",
"T  c #7BAA50",
"R  c #77A952",
"E  c #6FA451",
"W  c #6A8767",
"Q  c #778669",
"!  c #76946E",
"~  c #789973",
"^  c #6D877B",
"/  c #7EA76F",
"(  c #898703",
")  c #958A02",
"_  c #9B9800",
"`  c #958A15",
"'  c #A49902",
"]  c #AB831D",
"[  c #A4841A",
"{  c #B1891F",
"}  c #B0871E",
"|  c #AD9917",
" . c #AAA502",
".. c #B7A502",
"X. c #BCBC00",
"o. c #BBA71A",
"O. c #B9B819",
"+. c #819C3D",
"@. c #AA8623",
"#. c #A98725",
"$. c #B48C23",
"%. c #B98F22",
"&. c #BC9324",
"*. c #B99228",
"=. c #A78D2D",
"-. c #90A73D",
";. c #C9B518",
":. c #C8B00F",
">. c #C19625",
",. c #C59B26",
"<. c #C59D2A",
"1. c #CA9E2A",
"2. c #C69A29",
"3. c #CCA22B",
"4. c #C7A728",
"5. c #D2A62D",
"6. c #D5A92D",
"7. c #DAAD2F",
"8. c #D9B628",
"9. c #DBAD32",
"0. c #D5A832",
"q. c #DDB132",
"w. c #CFA730",
"e. c #E3B533",
"r. c #E6B934",
"t. c #EBBC35",
"y. c #ECBC37",
"u. c #D8D200",
"i. c #D6C90B",
"p. c #EAD61A",
"a. c #ECD517",
"s. c #F3E417",
"d. c #F5ED09",
"f. c #D6CC2C",
"g. c #E7CC25",
"h. c #EAD826",
"j. c #F4DB24",
"k. c #F9D62B",
"l. c #F6D827",
"z. c #EFC037",
"x. c #F4C53A",
"c. c #FACA3B",
"v. c #F6C73A",
"b. c #908952",
"n. c #AA9251",
"m. c #82AE4E",
"M. c #87A945",
"N. c #86B04E",
"B. c #8BB34D",
"V. c #91B64D",
"C. c #95B94D",
"Z. c #9BBD4C",
"A. c #98B346",
"S. c #82AC53",
"D. c #86B151",
"F. c #8AB254",
"G. c #95B85C",
"H. c #91AD4C",
"J. c #A1BF4B",
"K. c #A8B845",
"L. c #AEAE59",
"P. c #8A896A",
"I. c #948C63",
"U. c #9B946B",
"Y. c #889976",
"T. c #969877",
"R. c #89916E",
"E. c #A49A6B",
"W. c #A29970",
"Q. c #84AF6A",
"!. c #8CB36E",
"~. c #89B267",
"^. c #95B962",
"/. c #9CBE62",
"(. c #92B66E",
"). c #95B96F",
"_. c #9CBD6D",
"`. c #94B665",
"'. c #86A674",
"]. c #8BB272",
"[. c #96B773",
"{. c #98A776",
"}. c #B5A76A",
"|. c #A6BA6B",
" X c #A9A57A",
".X c #B4AC78",
"XX c #A7BB76",
"oX c #B6B576",
"OX c #B6B167",
"+X c #D0AE53",
"@X c #E2B74B",
"#X c #C5B97A",
"$X c #CDB164",
"%X c #A4C24B",
"&X c #AAC54A",
"*X c #B3CA49",
"=X c #B3CA47",
"-X c #A5C25C",
";X c #A4C26C",
":X c #AAC668",
">X c #B8C87A",
",X c #AEC572",
"<X c #9FC06F",
"1X c #ECC24C",
"2X c #D0C473",
"3X c #E1C27A",
"4X c #717C84",
"5X c #748B87",
"6X c #738D88",
"7X c #85939D",
"8X c #949B9E",
"9X c #8D9482",
"0X c #86AA81",
"qX c #98A785",
"wX c #8CB488",
"eX c #94BD8D",
"rX c #96B685",
"tX c #9DAF98",
"yX c #A7AA86",
"uX c #BAB586",
"iX c #AAAD8D",
"pX c #8896A3",
"aX c #969DA1",
"sX c #9BA5AA",
"dX c #99A9B5",
"fX c #88A8B0",
"gX c #A1A7A7",
"hX c #A4AEB4",
"jX c #B3B8B7",
"kX c #ADB4B6",
"lX c #C4BB86",
"zX c #C9BF87",
"xX c #9BC28F",
"cX c #9FC49E",
"vX c #A7C68B",
"bX c #B3C88B",
"nX c #CCC286",
"mX c #D5C889",
"MX c #D9E784",
"NX c #9BB1C4",
"BX c #A8B9C6",
"VX c #A6CBCC",
"CX c #ACC9D4",
"ZX c #9FC9CE",
"AX c #C0C5C1",
/* pixels */
";X_.;X<XQ.].:X(.:X)._.;X_.:X:X;X<X<X).Q._.!.(.!.(.!.).!.!._.[.).|.).(.).;X(.!.:X).;X).).|.]._.;X;X|.).|.Q.;X;X;X:X:X;X,X",
"Z.Z.V.%XT Y %X%X&XI Z.C.Z.Z.%XZ.C.%XB.I m.B.V.P A.T m.T m.B.Z.N.Z.m.B.D.Z.B.N.C.C.C.B.C.Z.B.B.C.&XZ.C.&XF.%XJ.Z.%X%XJ.:X",
"C.%XB.%XZ.Y &X%X%XN.%XN.&XZ.Z.C.Z.C.N.C.m.V.V.m.C.V.S.m.B.m.C.B.C.N.V.m.C.C.C.V.N.C.I C.J.Z.V.A.%XJ.&X%X&XZ.%XJ.&X*X%X-X",
"C.%X&X%X&XC.&XC.Z.I &XB.&Xm.%XC.N.C.B.C.V.V.B.B.C.V.T V.I D.B.B.B.N.B.B.D.B.C.C.D.m.m.C.B.Z.V.C.Z.&X&XZ.J.Z.Z.J.%X*X&X-X",
"Z.Z.Z.&XZ.Z.&XC.N.m.%XN.C.P Z.V.R V.V.B.Z.N.B.C.C.B.B.V.T B.m.N.N.N.m.B.m.B.N.J.m.P N.B.P Z.J.m.V.=XJ.V.C.C.Z.*XZ.Z.=X:X",
"B.Z.B.&XB.N.&XB.L &XN.I C.Z.B.I L N.N.N.C.B.m.C.B.I C.m.m.N.I m.I I N.I I V.I Z.B.Y V.m.L %XC.I F.*XZ.V.B.&XV.&X*XV.=X^.",
"P C.m.J.B.I &XP N.&XL I %XI Z.L I I I P B.B.P V.B.I C.N.P B.N.m.m.R B.I P C.P V.C.K Z.I T Z.&XB.B.*XZ.N.V.&XZ.Z.&XC.&X/.",
"L B.B.V.V.I %XL %XC.I Z.B.B.-.P K C.K E I N.L N.V.B.N.C.P N.N.R Z.I m.B.G B.N.N.%XK %XZ.H.M.V.=Xm.=X&Xm.J.Z.&XB.C.Z.J.G.",
"m.B.V.B.Z.m.Z.I J.m.Z.Z.P L ; 0 G Z.P P I N.P A A N.N.C.V.V.B.N.C.N.I D A V.B.m.J.Z.%X-.; 0 N.&XV.Z.&XI &XZ.%XP B.Z.V.-X",
"V.N.Z.m.Z.B.Z.B.Z.I &XZ.K K U e e B.B.I L I P V.$ I B.B.C.B.Z.C.B.N.M.e Z.B.Z.N.J.=XV.; r m.C.Z.J.H.Z.m.J.N.Z.K +.V.S e ",
"C.V.V.V.C.V.Z.C.V.B.&XB.K K G M.: w Z.P L P I %Xu J G.|.|.:X/.-XV.V.e +.=XV.V.V.=X%X: F V.V.V.V.V.B.V.B.C.U -.M.-.F _ 7 ",
"B.B.B.Z.B.B.B.&XB.B.&Xm.G U w   9 @ D G G !.oX$X+X> *.x.x.x.1X1X2Xi 0 J.=XA.I %X=XF e V.B.M.B.m.B.B.B.N.N.U *X-.(  ._ _ ",
"B.N.Z.C.B.N.F.&XB.V.J.T N.A.u _  ._ @ F.}.=.,.5.q.q.4 M 3.#.#.3.k k @X:X*XC.N.*X-.@ -.B.m.m.I m.P V.T T T M.H.r  .X. .r ",
"m.N.%Xm.m.m.J.V.Z.B.Z.T *XN.G 9 X.7 8 ; m @.,.5.e.y.#.            <.1X@X>XG.%X-.@ w Z.P A.P V.Y L Z.Y E T V.H.O.X. .( m.",
"I B.C.I m.Z.V.m.Z.N.C.Z.=XT G +.D u.<   , &.,.5.7.*.%             # w.e.q.@X#X;   M.Z.N.C.P P J.P F.M.Y Z.m.N.D O.: Z.~.",
"P Z.Z.Z.I &XD.P Z.B.Z.=X%XP G `._ < u.>   4 3.0.q.5 %           # 4 #.x.y.q.4   w C.C.Z.N.N.L Z.N.M.M.G J.P J.=X*XK &XT ",
"N.Z.L &X%XB.C.F.B.M.-.-.H.G E uX[ 8 v b k   4 9.r.M                 *.c.y.5 . n.V.C.C.Z.E H.G M.M.F M.P J.I J.&X*XB.A.G.",
"C.V.L C.Z.M.w u J Y.!.Y.~ ~ Y.d a r 5 k #.k   5 q.6.              % y.r.1   =.*.C b.J p W ~ ! ! ! W W J J w H.J.%XC.Z.:X",
"B.B.I U u Q.eXxXeXvXvXrXwXqXT.T.T.W.yXyXU.I.d q 0 z   > :.a.a.i.8 # b q a b.U.W. X XiXrX0X0XwX].'.6X6X6XrXeX! w U B.C./.",
"V.N.A W vXvXvXxXwX'.rXrXqXT.T.T.T.t a i I.Z V U.E.i # g.h.h.l.k.a.8 V E.E.I.I.I.V y y qX0X'.wXwX6X^ {.>X9XwXwXwXW A C./.",
"N.S ~ xXxXxXbXxXxX6X].wX9XR.qXZ P.yXuXuXuXzXzXmXlXi | l.l.l.l.l.l.:.y #XmXmXmXmXnXnXuXY.! wX'.~ '.Y.rXqXvXbXxXeXwX! S ^.",
"U u xX~ ].xXbXxXxXeXcXrXP.y 0 yXuXuXuXuXlX.X.XE.I.$ :.l.k.k.k.k.k.g.y }.$X#XmXzXnXnXlXuXiX0 p ~ / 6X>XbX0X6XwX'.0XeXp ^.",
"K u xXwXW '.rXeXxXcXyXd d P.T.I.P.I.U.U.V y i .X.X  ` l.k.k.k.k.k.;.- }.}.C i I.T.U.U.U.W.T.{.W W [.rXqX>X2XR.p wXwXG F.",
"I G W xXxXvX'.! p Q Q T.qXyXyXyXuX XP.U. XzXuX9XgX    8.l.k.k.k.g.2 t kXT.lXzX#XU.E.zXzXlXlXlXtXwX! p b.Q s ^ eXwXp A.!.",
"I I K u [.vXxXeX~ 9XQ P.9XyXP.P.P.y U.lXuXP.8XgX8X      [ ;.8.o.,     kXgXaXU.#XmXI.V E.E. XoXiX~ ~ '.s bXMXbX'.u U Z.F.",
"I D.B.N.-.0 W wXeXiXyXyXyXyXyX XyXuXyXZ 8XhXjX9X*.#                 4 3.uXjXjXgXE.zXzX#XzXzXlXjXxXeXeXrXoXu 0 +.B.Z.C.G.",
"D.C.F.Z.*XF dX6X4X^ d T.T.T.T.T.Z Z sXBXgXaXn.v #                     $ *.$XgXkXAXgX9XI. X.X XT.8X~ ^ 6XfXfXA Z.%XC.V./.",
"B.%XI %X%XE 6XCXCXNX7XpX7XpXhXBXhXdXgXaXZ #.,   5     , | ;.4.x       5   5 1.U.aXjXjXjXjXgXpX7X6XdXVXVXZXs V.J.C.C.V.^.",
"Z.C.N.%XC.P G 6XNXNX7X4X4Xt s dXdX7XC B k   O *.@.  r h.f.4.;.4.>     w.#.    #.,.C aXjXhXs t 4X5XsXVXZX^ S J.%XZ.C.C.^.",
"Z.Z.Z.Z.I P F.b.t 7XpXNX5X4XpXs = *.2.B   o <.7.# 6 f.> % 8 8 8 >     1 v.<.    q.r.1.& f 8X4XdXhXsX6Xp L B.Z.C.Z.Z.B./.",
"C.B.%XZ.I P F.b.h h 3 5 5 k 5 # @.>.2.&   @.6.*.  o.h.j.j.h.j.j.j.g.>   e.r.$.  z t.r.2.  $.@.B M M ,XD.I C.C.B.%XV.N./.",
"B.N.%XZ.K B.C.n.h z z z B z O j %.>.M   5 6.7.*.  g.j.j.j.h.f.h.j.k.8   e.1X1X4   0.x.t.x , 3.0.5.oX/.P B.V.C.D.&XI N.^.",
"I N.Z.Z.E Z._..Xj j l c l % # } %.&.#   *.6.q.@.8 g.;.o.` ` e 9 9 8     7.c.c.3.  5 x.z.6.  5 3.&.OX~.I B.B.B.B.%Xm.C.^.",
"I B.C.Z.I Z.XXN k v l c m m j } %.b   % 3.6.9.b 8 n                     3.1Xc.x.    0.y.r.*.0.3.>.*..XI N.Z.N.B.Z.B.B./.",
"N.N.B.V.H.C.H.3 3 h c m m m m ] { ,   4 ,.3.5.x 9 6 < o.i.f.i.f.;.` $   3.x.x.x.o   M r.9.9.6.6.1.>.$XT m.V.B.N.C.B.m.^.",
"V.N.N.C.N.V.n.3 g h l c m m } ] [ 5   2 &.>.,.k 7 ;.s.d.d.d.s.s.s.j.;.  *.r.r.e.X   *.r.z.t.r.7.5.>.$X;XI m.B.I V.V.I `.",
"B.B.B.B.B.Z.n.3 g h l c m ] { %.>.>.4 + $.$.&.k 7 p.p.s.d.d.d.d.a.p.o.  #.0.e.9.  $.c.c.c.z.t.q.7.5.$XG.Z.I B.I B.B.N.G.",
"C.B.B.N.V.-XXX5 g h l c m m { %.>.,.>.  3.e.e.*.7 p.;. ._  ._ _ (  .(   q.c.c.3.# x.c.c.c.x.t.e.7.5.XXH %Xm.C.m.N.B.Z.~.",
"N.C.N.N.Z.%X_.}.h h l c m m } %.&.,.3.1 #.r.y.6.% |                     y.c.c.=.M c.c.x.c.y.r.q.6.>.lXR V.Z.N.V.N.Z.V.^.",
"I Z.m.I %X&XoXh z c l l c m m } &.>.3.6 x q.e.9.  o.> ) ) _ ) ) ( #   X z.x.x.M M c.x.z.t.r.q.6.1.&.&.oXB.&XD.Z.B.%XI G.",
"I Z.B.F.*X:XN h l l m m m c m ] { { { X v 5.7.e.# 8.a.u.u.u.u.u.:...  * 0.r.r.M # q.r.e.9.0.0.6.3.3.>.$Xm.&XC.B.%XZ.N.^.",
"J.V.Z.Z.%XK.g h l c c m } $.$.{ } m #   $.,.3.5.6 %.i.:... . .' ' '   = $.6.0.$.  , 3.q.e.y.e.e.6.5.3.$XZ.%XZ.R %XC.C.~.",
"Z.I Z.J.Z.:Xk k l c m ] } { >.>.,.3.k ] 5.0.0.7.@.8 n   .             4 B 9.e.e.M $.v.c.v.x.z.r.e.q.6.$X%X%X%XB.Z.C.C./.",
"B.P V.J.V.J.}.h l c m m } %.>.>.3.5.6.e.r.y.x.c.q.  :.c :.....' 7     g 2.c.c.c.c.c.c.c.c.c.x.y.r.8.6.nX%X%XZ.Z.%XC.C.:X",
"V.P B.V.B.C.,Xn.j z v [ } { { 2.,.5.6.7.e.r.y.v.c., < :.:.:.....n   + g 5.v.c.c.c.c.c.c.c.v.x.z.r.q.$X-XZ.%XC.C.%XV.V./.",
"N.H.B.m.N.B.B.(.uX=.c [ m { { >.>.1.3.6.7.e.t.t.z.3.  % #     % O   * g e.c.c.c.c.c.c.c.c.x.z.t.g.$X,XC.C.Z.C.B.V.V.N.^.",
"B.P B.I m.T N.R S.XXoXn.m m { { >.>.,.1.5.7.7.q.e.e.k             * & k z.c.x.c.c.c.c.x.v.z.t.@X>X:XC.C.C.V.C.B.N.N.N.^.",
"I P I m.P I P T T R B.`.XX}.}.+X%.{ &.>.,.1.1.6.6.7.6.5       X * & = M r.t.z.x.z.x.y.t.r.3XOXvXB.B.N.B.N.N.C.B.N.I N.~.",
"P m.L I K P K R P I N.I I N.I F.<X_.|.OX$XL.+X$Xw.<.<.&.2     = = = q @.q.@X$X@X2X#XL.|.[.D.G.B.N.C.I N.N.C.V.B.m.m.B.R ",
"P m.K L K L L L L B.I I I I I I P I I B.E E B.H L G.bX_.|.$ e |.oX|.uX].L L R R I N.I C.I I I Z.T C.I I N.Z.I B.P P C.Q.",
"B.I L I K K K L P B.P P P P P P I P P B.Y E V.T K L %XB.B.0 w C.V.B.E E K R R E Y m.L m.D.L L C.N.B.Y P N.C.N.B.P R C.R ",
"V.K B.L Y L K K I V.P I L P I P B.I Y B.m.Y S.Z.L K Z.%XN.M.L %XS.B.Y m.E Y D.E K I E L C.Y K N.V.I I E C.C.C.I D.D.F.Q.",
"N.I C.E K R K L I C.E N.P B.I I P C.Y B.m.m.L Z.N.L B.Z.V.B.B.Z.I I V.P L L I N.L I P L N.m.T I B.N.I I B.C.B.I B.N.B.^.",
"N.B.N.L I P I L D.B.P N.T B.P D.L V.V.m.m.m.P m.B.P m.V.V.N.V.C.I D.N.Y N.P L I P P I P T m.m.I N.N.I I N.B.C.C.C.N.C./.",
"B.C.I I m.L I I I N.I I B.C.I B.B.m.V.m.m.T m.P B.m.m.B.N.N.B.B.N.N.I I I R L P m.T I P P m.m.Y I I I I I B.C.C.C.C.C./.",
"C.C.I C.P L I I I I N.I C.D.C.C.B.D.V.m.T Y m.P m.m.I I I N.T m.D.I I I I I K I T P m.P L V.L I P I P P C.N.Z.C.C.C.C.<X",
"C.C.C.F.P P P I P P P N.C.F.C.C.C.V.N.I P P P L P P P I P I I P I L I I I I F.I P K B.L E V.K N.K K B.K B.C.Z.C.C.C.C./.",
"C.C.C.P N.I E P C.K K B.Z.C.C.C.C.C.B.B.E L K L L K E P I L I D.N.E N.P I T C.I K I B.L D.B.P I K P C.K I C.Z.C.C.Z.%X/.",
"C.C.Z.K E Z.R E %XE K Z.Z.Z.C.Z.C.C.C.D.I K Y I E K K L D.P N.F.N.P I V.I I B.C.I V.B.K V.I B.I L N.V.I E C.Z.C.C.%X%X/.",
";X;X:X!.].).:X].:X(.(.:X<X:X<X:X;X<X<XQ.<X].!.!.Q.].Q.].).).(._._.(.!.<X).).).:X).;X).].:X].<X:X;X_._.;X].<X:X;X:X,X;X,X"
};
