/* XPM */
static char *_61357e53db94e97e9c6843247259a52E3ocWHb2DHByBQE0[] = {
/* columns rows colors chars-per-pixel */
"60 60 240 2 ",
"   c #000000",
".  c #0C0701",
"X  c #170D01",
"o  c #181804",
"O  c #251601",
"+  c #2C2103",
"@  c #372905",
"#  c #283117",
"$  c #2E3020",
"%  c #462A00",
"&  c #463807",
"*  c #583602",
"=  c #573E17",
"-  c #653D02",
";  c #2D441B",
":  c #374E26",
">  c #494204",
",  c #59450C",
"<  c #5D5605",
"1  c #66490C",
"2  c #764802",
"3  c #6A590D",
"4  c #614B11",
"5  c #6B5413",
"6  c #755B14",
"7  c #6B6B00",
"8  c #75670A",
"9  c #796C0D",
"0  c #6D720E",
"q  c #7B6315",
"w  c #48552A",
"e  c #5A573B",
"r  c #625B3E",
"t  c #526E31",
"y  c #6B7032",
"u  c #51554E",
"i  c #587147",
"p  c #696548",
"a  c #696B55",
"s  c #6C7550",
"d  c #7A785A",
"f  c #555D64",
"g  c #6C756F",
"h  c #855706",
"j  c #855913",
"k  c #8E740E",
"l  c #8C6A14",
"z  c #876818",
"x  c #916D13",
"c  c #897317",
"v  c #977418",
"b  c #9D7A1B",
"n  c #A37D1B",
"m  c #957727",
"M  c #A57C21",
"N  c #837951",
"B  c #59843E",
"V  c #698A3A",
"C  c #758D34",
"Z  c #76943C",
"A  c #6B9443",
"S  c #6B9C4A",
"D  c #739A44",
"F  c #789C43",
"G  c #678652",
"H  c #6FA44E",
"J  c #7CA347",
"K  c #72A54F",
"L  c #76A84F",
"P  c #7CAB4E",
"I  c #6FA451",
"U  c #72A550",
"Y  c #76A850",
"T  c #7BAA50",
"R  c #788568",
"E  c #72916C",
"W  c #78956C",
"Q  c #7DA767",
"!  c #888506",
"~  c #9B9B00",
"^  c #938C11",
"/  c #A69B0D",
"(  c #A6801D",
")  c #AB841D",
"_  c #B2891F",
"`  c #A59613",
"'  c #B19F1A",
"]  c #A8A602",
"[  c #BCBC00",
"{  c #B8AE11",
"}  c #B9A619",
"|  c #8D9531",
" . c #A98423",
".. c #AE8A23",
"X. c #B48D22",
"o. c #B88B24",
"O. c #AE922F",
"+. c #BC9324",
"@. c #B99528",
"#. c #BC9529",
"$. c #8AA23E",
"%. c #B0AA31",
"&. c #CCB50A",
"*. c #CEB514",
"=. c #C7B51A",
"-. c #C39926",
";. c #C49B2A",
":. c #CA9E2A",
">. c #C5AB22",
",. c #CDA22C",
"<. c #CCAF2B",
"1. c #D2A52D",
"2. c #D5A92D",
"3. c #DAAD2F",
"4. c #D8B52A",
"5. c #D5AA32",
"6. c #DBAE31",
"7. c #DDB131",
"8. c #DEB138",
"9. c #E3B533",
"0. c #EABB36",
"q. c #EBBC36",
"w. c #BDC31E",
"e. c #C8C800",
"r. c #DAC50C",
"t. c #D9D900",
"y. c #DCC518",
"u. c #E4D016",
"i. c #F8F10A",
"p. c #FBEB1B",
"a. c #DDC624",
"s. c #E7CB24",
"d. c #EED428",
"f. c #F7DB2B",
"g. c #EFC037",
"h. c #F4C43A",
"j. c #F6C73A",
"k. c #F9C93B",
"l. c #FAE227",
"z. c #FAE424",
"x. c #958858",
"c. c #AD9450",
"v. c #87A845",
"b. c #82AE4E",
"n. c #93AA4E",
"m. c #86B04E",
"M. c #8CB34D",
"N. c #98B345",
"B. c #91B64D",
"V. c #95B94D",
"C. c #9BBC4C",
"Z. c #84AB56",
"A. c #88B254",
"S. c #96B85B",
"D. c #A1BF4B",
"F. c #B0AE59",
"G. c #858467",
"H. c #8C8A6B",
"J. c #948D67",
"K. c #9A946A",
"L. c #888A71",
"P. c #8A9376",
"I. c #979978",
"U. c #A49A6A",
"Y. c #A39D76",
"T. c #84AF6A",
"R. c #99AA6F",
"E. c #89B267",
"W. c #8CB36E",
"Q. c #94B665",
"!. c #95B962",
"~. c #9CBD62",
"^. c #92B76E",
"/. c #95B96F",
"(. c #9CBD6D",
"). c #86AD77",
"_. c #8AB271",
"`. c #96B871",
"'. c #A9A66A",
"]. c #B2A46C",
"[. c #A4B96B",
"{. c #BCB768",
"}. c #ABA578",
"|. c #B8AB75",
" X c #B4AC7B",
".X c #A9B877",
"XX c #BAB478",
"oX c #CFAE53",
"OX c #E2B84D",
"+X c #D2B866",
"@X c #C7BA7A",
"#X c #A4C24B",
"$X c #AAC54A",
"%X c #B4CB47",
"&X c #B3CA49",
"*X c #A5C25B",
"=X c #9FC06F",
"-X c #A9C565",
";X c #A4C26C",
":X c #AAC56B",
">X c #B1C575",
",X c #CAC276",
"<X c #E1C27A",
"1X c #707B83",
"2X c #6E8387",
"3X c #959B83",
"4X c #869196",
"5X c #939A9D",
"6X c #AB9E84",
"7X c #97A084",
"8X c #9CA184",
"9X c #90AF8D",
"0X c #94BC8A",
"qX c #A9A984",
"wX c #B8B585",
"eX c #BBB584",
"rX c #B0B591",
"tX c #8D9AA4",
"yX c #8AA1A9",
"uX c #9AA3A8",
"iX c #95ACB4",
"pX c #A7ABA7",
"aX c #A2ACB2",
"sX c #A8B3B8",
"dX c #B1B5B2",
"fX c #C7BC84",
"gX c #96C08F",
"hX c #9CC28E",
"jX c #9DC393",
"kX c #A5C88D",
"lX c #AAC699",
"zX c #B3C597",
"xX c #CCC287",
"cX c #D5C788",
"vX c #DDCE8A",
"bX c #9DB3C5",
"nX c #ABBAC5",
"mX c #9DC6CC",
"MX c #A5C8CE",
"NX c #C1C5C1",
/* pixels */
";X(.;X=XT._.:X/.:X`.(.;X(.:X-X:X=X=X/.T.(.W.^.W.^.W.^._.W.(.`.`.[./.^.(.;X^.W.;X(.[.(.`.:X_.(.[.:X[.`.;XT.;X;X;X-X:X;X>X",
"C.C.B.#XT U $XD.$XT C.V.C.C.#XC.V.D.M.P b.M.B.T N.Y M.T m.m.C.m.C.b.M.b.C.M.A.V.V.V.m.B.V.B.M.V.#X#XC.#Xm.#XC.C.$X#XD.-X",
"V.#XM.#XD.K $X#X$Xm.$XM.$XC.C.V.C.V.m.V.P V.B.b.V.B.Z.b.M.b.V.M.V.b.V.b.V.V.B.B.m.B.P V.#XV.V.C.#X#X$X#X$XC.#XD.#X&X#X*X",
"V.#X$X#X$XV.$XV.V.J $XM.#Xm.#XV.m.V.M.V.B.B.M.M.V.B.Y B.T m.M.M.M.M.M.M.b.V.V.V.m.m.m.V.M.N.B.M.C.$X$XC.#XC.C.D.$X$X&X-X",
"C.C.#X$XV.C.$XV.b.b.D.b.V.T C.M.Y V.M.M.#Xm.M.V.V.M.M.B.T m.m.m.m.m.b.m.b.M.m.D.P L m.M.L V.#Xb.V.&XC.B.V.V.C.$XD.D.&X~.",
"M.C.m.$XM.m.$XM.L $Xm.b.B.C.M.T L P m.m.V.M.b.V.M.P V.b.b.M.b.P P P b.b.P B.P C.M.Y B.m.K $XM.m.M.&XC.B.B.$XV.$X&XB.&XS.",
"L V.b.D.M.P $XL M.#XK P #Xb.N.U P P L L m.m.L V.M.P V.m.L M.m.P b.T M.P L B.P V.V.H C.P P D.$Xm.M.&XD.m.n.$XC.C.#XB.$X~.",
"K M.M.B.B.P #XH C.B.b.C.M.M.D.L U V.U H P M.K M.B.M.m.V.L b.F L V.P b.m.K M.b.M.#XH #XC.B.B.B.&Xb.&X$Xb.$XC.$Xm.C.C.D.n.",
"b.m.V.M.C.m.D.b.C.b.C.D.T P B.b.K C.U U P b.T M.b.m.b.V.B.V t b.V.m.P $XK N.M.b.C.C.$XB.D.b.M.$XB.C.$XT $XC.$XL B.D.B.*X",
"M.M.V.m.V.M.V.M.C.P $XC.H K J B.L B.M.T L P L V.P P M.B.V.w # N.m.m.M.#XC.M.C.b.D.&XV.M.C.b.V.C.C.M.C.m.C.m.C.S v.v.V t ",
"V.B.V.B.V.B.V.V.B.M.$XM.H H A v.K P C.U K K K D.T `.Q..XQ..   v.N.B.B.C.%XM.V.M.&X$XB.B.B.B.B.B.B.M.V.M.V.P %.v.$.V / < ",
"M.B.B.C.M.M.B.$XM.M.$Xb.S b.t   0 V N.S A Q.XX+XoX9.q.#.@       N XXE.D.%XV.b.#X%XM.M.n.M.m.M.m.m.B.m.b.m.K $Xv.! ] ~ ] ",
"m.m.C.V.M.m.M.$XM.B.D.T m.N.t ~ ] ] | S.'...;.2.7.0...            c OX>X&XB.b.$X#Xb.D.b.b.b.T b.T V.T T T v.n.y ] w.~ V ",
"P m.#Xb.b.b.D.B.V.M.C.T &Xm.D t w.7 w.F.n  .;.2.7.5.  @ 6     & 3   ;.OX,XS.C.$XC.B.C.K N.T B.U H C.U H Y V.B.{ w.] ^ A.",
"P M.V.P b.C.B.b.C.m.V.D.&XT A $.9 t.7 ! ..-.-.1.7.z   <.f.f.f.f.d.5 , 9.3.oX,X*XV.C.V.m.B.U P D.Y B.b.H C.b.M.C [ w N.Z.",
"L C.C.C.P $Xm.L C.M.C.&X#XL S Q.' 3 t.! +.:.,.2.5.    c 4.a.a.s.} >.  3.q.0.3.@XS.V.V.C.m.m.H D.n.J v.S D.U D.&X%XS #XP ",
"m.C.L $X#XM.B.M.B.B.#X&XV.P Q >X( 9 3 5 -.,.2.7.#.                ` c O.j.g.OX+XF y V.V.S C.T M.V.Z V.P C.L #X$X&XB.B.S.",
"V.M.K V.C.V.m.m.M.B.$X$XB.E.{.c. .c &   ( :.1.7.b   a.=.=.=.=.=.a.f.} z j.q.9.@.  $ A.C.U M.v.v.v.t y J V.m.V.$X#XV.D.*X",
"M.M.T M.D.$XB.m.P C.$XC.Q.c.v n n _  .+ z -.,.2.6   s.f.z.z.z.p.z.l.a.@ 0.7.2.b X ..+X~.T T B.V.J     o J m.M.V.M.M.V.~.",
"V.m.b.b.D.D.V.C.L V.#XC.R.b n M _ _ +.6 6 ,.,.5.o   > ` / ` / / / > '   6.9.9.v 5 ,.5.[.M.U M.V.A   [ e.0 V S J b.b.V.~.",
"b.M.b.b.V.M.$XV.P P D.V.n.n n M _ +.#.6 x 2.7.,.                    ` & 5.h.q.@.5 5.5.zXS.M.M.M.P ! ~ 7 [ { m.P A P V.!.",
"T M.b.T b.V.%XM.M.K S..Xc.n n _ _ -.-.+ ..7.9.,.  ^ =.' / ] ] / { =.d.9 ;.k.h.5.  ,.:.-.oXXXD.b.F w w.w.<   C P b.D $XQ.",
"T b.m.T b.&X#XM.M.`.].x x n ) _ _ +.l   ;.3.9.@.  =.z.p.p.i.i.i.p.p.l.9 @.k.h.0.@ q 5.,.:.;.,XZ.D %.! C t.i.w.B.P Z $XE.",
"b.b.b.b.C.%XB.b.m.'.l x x v n _ +.b   X ,.2.4.X.  >.z.p.p.p.i.i.p.z.a.9  .0.0.9.q   m 2.5.,.oXZ.H V ] t.0   o v.D m.#XE.",
"b.b.P A.$X$XV.A.b.c.l x n n n _ _ z   . :.:.2...  @ ^ =.r.u.t.r.{ < 8 9  .j.h.h.c   5 9.3.2.1. XK K |   e.i.w.D.T V.C.E.",
"P A.M.A.&XC.m.M.K c.x x n n x _ X. .    :.2.3.O.                    9 c  .j.k.h.,   #.0.9.X.1. XV.L P ^ e.> V D.M.D.V.!.",
"b.V.M.C.&Xm.P B.U  Xx v x *   n +.-.,    .3.7.;.    9 9 9 9 ` ` { <.d.q %.k.k.9.  & q.0.7.& = l R.(.$.#XJ Z m.C.#XV.B.!.",
"M.D.P #X#XP L m.qXz M M n b & 6 _ -.X.  , 6.7.,.  9 f.l.z.z.z.z.l.l.f.  ,.j.k.m   #.q.0...+ v M k c.$XD.B.M.M.#XC.V.M.~.",
"D.V.M.#XV.L K (.j j 5 j z z l . n -.-.6   M 7.6.  & s.l.z.l.l.l.l.f.<.  6.k.;.  5 j.0.6.% z v v l m ;XV.M.M.C.D.C.V.V.!.",
"D.C.V.C.m.H A.x.f 1XyXiXyX1XtXf & ..-.-.    ..7.,     & 9 9 9 > > 4.8 @ j.6.o   ;.9.5.5 g 5X1XtXnXiXyXG L M.C.V.#XC.m.~.",
"V.M.#XV.T U F g bXbXyX1X1Xf f aXuXtXa n l     m ..    > >.#.} a.d.q   ..#.O   M 2.N 5XsXdXg u 1X1XuXMXmX2XJ C.M.#XM.m.~.",
"M.b.#XC.U M.g MXbXbXiX2XtX4XtXbXsXaXaX5XG...4   6       c | | | >     6   4 -.U.pXdXpXdXnXsXaX5X5XyXMXmXmXE v.m.$XP m.(.",
"P b.V.D.I F iXiX1Xg d 3XI.I.I.I.d 4X5XnXaXuXc.M @                     @ o.c.pXdXNXpX6XJ.}.fX X}.Y.P.E 2X2XmXV M.#XP V.!.",
"T M.V.C.A t R P.3X8X3XqXqXqXqXqXY.wX}.N 5XpXsXpX#.4                 @ ,.6XNXdXpXK.+XfXfXfXfXfXfXwXwXpXgX0XW w F V.B.M.~.",
"M.b.F i W kXrX3XR R R L.I.qXH.H.H.a N rXwXG.5XiXaX    , ' %.#.b       pXpX5XY.fXvX].p ].U.}.fXeXK.K.8XW gXgXgX2Xi J P ~.",
"V.J G 0XgX0XW g a a L.3XqXqXqXqXqXqXP.N Y.wX}.N aXu , a.s.d.s.u.*.    uX3X@XfXXX].J.fXfXcXfXfXfXfXK.R R E Q 0X0XhXG S S.",
"M.s gXgXG W 7X3X3X8X3Xd d H.H.K.K.J.J.L.d p p J.K.$ >.y.y.*.-.&.s.^   Y.Y.d p x.U.].].].|.@X].J.K. XzXgXkX2XW G gXhXi E.",
"V.i gX).9XlXlX3X3X8X8XP.G.a w }.rXfXfXfXxXfXXX}.K.p y.s.&.} &.&.&./ # K.].@X@XvXvXvXvXvXfXp N U.}.eXzX0XkXgXjX9XW gXG Z.",
"A.Z W gXhXkXkXzX8X3XG.L.G.J.6Xd N qXwXfXfXxXcXvXfXp =.y.&.&.&.r.&.^ u  XvXvXvXvXvXvXvX].K.fX].U. XJ.lXjXkXkXjXjXgXW Z !.",
"P C.V E kXkXlX8X3XP.3XP.I.I.3X3XI.e p N H.J.x.U.].N 8 r.r.r.r.r.r.@ u N U.x.x.U.N N p ].@XfX|. X}. XI.kXhXkXgXkXE $.P S.",
"P C.M.P y W 8X3X8XqXqXI.I.P.I.I.Y.Y.Y.qXY.U.J.p e v O 8 &.u.&.&.&   @ $ u x.U.|.fXfX@X|.|.wX}. X XeXeXrXhXkXW t V.C.m.!.",
"D.B.C.V.C.%.1 e a R G.G.L.H.L.N d r z z  .b   & :.2.@           .   * j 1   c @.M M N d x.U.U.U.K.K.K.G.s C v.L C.M.V.!.",
"C.P C.D.C.>Xl l v l l v n n o.-.:.1.1.2.M . 5 ,.3.n                 % j n 6   m 8.q.k.k.k.0.6.1.,.@.@.+X#X#X#Xm.C.C.V.~.",
"M.L V.V.B.D.].z x v n M ) o.+.;.:.1.2.c   6 j.j.k...1 O           O O j -.j.z   j g.k.k.k.k.j.q.9.3.<.xX#XD.C.#X#XV.V.~.",
"B.K M.B.M.V.>Xc.l x b ( ) _ +.-.,.,.#.  , 7.q.j.j.9.@             X % j 5.k.k.z   <.k.k.k.h.h.q.g.7.+X-XC.#XV.V.C.V.B.~.",
"M.M.B.m.m.M.M.W.wXO.v ( ) _ _ +.+.,.c + ,.9.0.q.g.j.;.            % * j 8.k.k.j.5  .k.k.k.j.j.q.a.+X:XV.V.C.V.M.V.V.m.S.",
"M.L m.P b.T m.Y P .XXXc.n n _ _ +._ + ) 1.2.3.7.9.9.q * - - * * % O * j g.j.j.j.9.@ 7.j.j.q.0.OX,X=XV.V.V.M.V.M.m.m.m.!.",
"b.L P P L P L P T T M.!..X|.{.c.X.1 z -.-.:.,.1.1.5 m o.h h 2 2 1 % X m 9.g.q.h.j.#.4 9.9.<X{.rXM.M.m.M.m.M.V.M.m.T m.A.",
"L P K P H L H L L P M.P P P P m.G t [.F.@XF.oXoXO.5 ,.#.j 2 2 1 - * = 5 3.OX+X+X,X@Xy t `.Z.S.M.m.V.P m.m.V.B.M.m.P V.T.",
"L m.H K H K K K I M.P P P P H t # J P M.K K M.H : Z.>X(.F.[..X.X>X.XrX: S U L P P m.b.t t P P C.P V.P P m.C.P M.L L V.Y ",
"M.L L L K H K K L M.P P L L : ; J L L M.U U n.A t I #XM.m.m.K V.B.M.S B t L K K U m.K P w ; S B.m.M.L K m.V.m.M.L P M.T.",
"B.H M.L I H H H T V.L P L L L H m.P I M.b.U b.N.K K V.#Xm.M.P #XZ.M.K b.K K b.K K J K K B.A H m.B.P P I B.V.V.P m.P M.T.",
"m.P M.I K L K U P V.L P L M.T T K V.U M.b.b.I V.m.K M.C.B.M.M.C.T b.V.K K K P m.K P T H M.b.Y P V.P P P M.V.M.P M.m.M.!.",
"m.V.m.H P K P K P m.L m.T M.L m.U B.V.b.b.m.U m.B.K b.B.B.m.B.V.P b.b.K b.P K P T P T K T b.b.P m.m.P P m.B.V.B.V.m.V.~.",
"M.V.P b.P K P P m.m.m.P M.M.T M.M.b.V.b.b.T b.P m.m.m.M.m.m.m.M.m.m.P P P P K K b.Y P L K m.b.U P P P P P M.V.V.V.V.V.~.",
"V.V.P V.Y L P P P P P P V.M.V.V.B.b.M.b.P Y b.U m.P P P m.P m.P m.T P T P P K P Y L b.L K B.L P L P L L V.m.C.V.V.V.V.=X",
"V.V.B.A.L L L P L L L m.V.V.V.V.V.B.m.P L L K K L L L P Y P P L T L P L P T m.T I K M.L I V.H b.K K M.H m.V.C.V.V.V.C.~.",
"V.V.V.P m.P I L B.K K M.C.V.V.V.V.V.M.M.K H U K I K I L P K P A.m.U P P P P V.m.I P m.K m.M.L P K K V.H P V.D.V.V.V.C.~.",
"V.V.C.I I C.T I #XI K C.V.V.V.C.V.V.V.b.P I I P H H I K P P m.M.m.U P V.P P M.B.Y B.M.U B.T B.P K A.B.P H V.D.V.V.#X#X~.",
";X;X:XW._./.:XT.:X^.W.-X;X:X;X:X=X=X=X_.(._.^.^._._._.T.^./.^.(.(.^.^.;X/././.:X/.;X(.T.:X_.(.:X;X=X!.=X_.=X:X;X:X:X:X>X"
};
