/* XPM */
static char *e86465e551734bc2f0cc50d221352251PLBRWW5KGkB197Yj[] = {
/* columns rows colors chars-per-pixel */
"60 60 248 2 ",
"   c #000000",
".  c #0C0801",
"X  c #120C01",
"o  c #181402",
"O  c #271A02",
"+  c #1A2409",
"@  c #362804",
"#  c #312F0D",
"$  c #483907",
"%  c #593601",
"&  c #523D1A",
"*  c #374D23",
"=  c #4B4304",
"-  c #58450A",
";  c #5D5803",
":  c #4F4C16",
">  c #674809",
",  c #7B4C01",
"<  c #6C580C",
"1  c #7A590B",
"2  c #654D12",
"3  c #6C5513",
"4  c #755B14",
"5  c #785B14",
"6  c #6C6903",
"7  c #6E6F0E",
"8  c #76690B",
"9  c #7D6216",
"0  c #4E522A",
"q  c #635A37",
"w  c #516D32",
"e  c #68722C",
"r  c #575753",
"t  c #625D42",
"y  c #57704F",
"u  c #58774D",
"i  c #726B49",
"p  c #617C58",
"a  c #58686A",
"s  c #6B7468",
"d  c #6B7670",
"f  c #875806",
"g  c #955C01",
"h  c #88640E",
"j  c #9F6300",
"k  c #866717",
"l  c #8C6A13",
"z  c #916D13",
"x  c #936D19",
"c  c #887118",
"v  c #967214",
"b  c #997515",
"n  c #94741B",
"m  c #9A761C",
"M  c #9C791A",
"N  c #A96C07",
"B  c #A7771C",
"V  c #A37D1B",
"C  c #9C7B22",
"Z  c #907230",
"A  c #A37A20",
"S  c #887C50",
"D  c #78801D",
"F  c #688B3C",
"G  c #748F38",
"H  c #75933C",
"J  c #64804D",
"K  c #699545",
"L  c #6B9B4A",
"P  c #729A44",
"I  c #759B45",
"U  c #67835E",
"Y  c #6FA44E",
"T  c #7DA347",
"R  c #72A54F",
"E  c #76A84E",
"W  c #7CAB4E",
"Q  c #6FA451",
"!  c #72A550",
"~  c #77A953",
"^  c #7BAA50",
"/  c #6B8A65",
"(  c #738969",
")  c #78966D",
"_  c #7E897A",
"`  c #759973",
"'  c #7B9C72",
"]  c #7CA56F",
"[  c #898507",
"{  c #968A0E",
"}  c #9C9705",
"|  c #908A15",
" . c #A39A08",
".. c #A5841B",
"X. c #AB831C",
"o. c #B1881F",
"O. c #A89614",
"+. c #A9A802",
"@. c #B6A90E",
"#. c #BCBC00",
"$. c #B9A715",
"%. c #B7B61A",
"&. c #909135",
"*. c #AA8523",
"=. c #B58D23",
"-. c #B88C23",
";. c #B89327",
":. c #BC9224",
">. c #BC9429",
",. c #8AA23E",
"<. c #ADAA28",
"1. c #C3AE17",
"2. c #C7B416",
"3. c #D2BB1A",
"4. c #C49826",
"5. c #C49A26",
"6. c #C49B2A",
"7. c #C99F2A",
"8. c #C99E37",
"9. c #C7AA25",
"0. c #CCA22B",
"q. c #D2A62D",
"w. c #D5A92E",
"e. c #DAAD2E",
"r. c #D6AA31",
"t. c #DAAD31",
"y. c #DEB232",
"u. c #DEB138",
"i. c #E3AE30",
"p. c #E2B433",
"a. c #E9BB36",
"s. c #EBBC35",
"d. c #BDC31E",
"f. c #CAC703",
"g. c #D8D603",
"h. c #D7C617",
"j. c #EAD817",
"k. c #E9D518",
"l. c #F6EF07",
"z. c #F4E617",
"x. c #D8C62C",
"c. c #EACC26",
"v. c #EFD427",
"b. c #F6D727",
"n. c #EFC037",
"m. c #F4C539",
"M. c #F5C639",
"N. c #F9C93A",
"B. c #F8E125",
"V. c #8F8A52",
"C. c #9D985A",
"Z. c #AD944F",
"A. c #87A845",
"S. c #82AE4E",
"D. c #95A74D",
"F. c #86B04E",
"G. c #8CB34D",
"H. c #97B245",
"J. c #91B64D",
"K. c #95B94D",
"L. c #9BBC4C",
"P. c #85AC56",
"I. c #88B253",
"U. c #97B85C",
"Y. c #A8BA45",
"T. c #A1BF4B",
"R. c #B0A959",
"E. c #978E65",
"W. c #9C9469",
"Q. c #848A77",
"!. c #889671",
"~. c #A49968",
"^. c #A49B71",
"/. c #85AE6A",
"(. c #91AF6A",
"). c #8CB463",
"_. c #86B06D",
"`. c #8CB36E",
"'. c #94B665",
"]. c #95B962",
"[. c #9CBD63",
"{. c #92B66E",
"}. c #95B96F",
"|. c #9CBD6D",
" X c #86A876",
".X c #8AB271",
"XX c #96B871",
"oX c #ADA26D",
"OX c #A6AB68",
"+X c #B4A66B",
"@X c #A5BB6C",
"#X c #BCB768",
"$X c #AAA475",
"%X c #B5AB76",
"&X c #A8BA76",
"*X c #B6B576",
"=X c #CBA950",
"-X c #E3B74B",
";X c #CDB265",
":X c #C3B67B",
">X c #C9BB7D",
",X c #A4C24B",
"<X c #AAC54A",
"1X c #B4CB47",
"2X c #B2C949",
"3X c #A5C259",
"4X c #9FC06F",
"5X c #AAC666",
"6X c #A4C26C",
"7X c #AAC56B",
"8X c #B3C86F",
"9X c #ABC57A",
"0X c #D1C279",
"qX c #677786",
"wX c #708E87",
"eX c #778B9A",
"rX c #7B8EA1",
"tX c #869584",
"yX c #989A83",
"uX c #8E9495",
"iX c #AA9E84",
"pX c #85AB82",
"aX c #9EA78F",
"sX c #8BB386",
"dX c #8EBA8E",
"fX c #98B883",
"gX c #93BD8E",
"hX c #AAB08A",
"jX c #B6B584",
"kX c #8599AD",
"lX c #8C9FB1",
"zX c #86A5A8",
"xX c #92A8B3",
"cX c #A6A9A5",
"vX c #ADB2AF",
"bX c #B6BAB6",
"nX c #C8BD86",
"mX c #97C08F",
"MX c #9BC28E",
"NX c #A6C78C",
"BX c #B1C799",
"VX c #BCC1BC",
"CX c #CDC286",
"ZX c #D4C687",
"AX c #DBCC8A",
"SX c #9BC4CA",
"DX c #A5CCCD",
"FX c #BDC2C1",
/* pixels */
"6X|.6X4X_..X7X{.8X{.|.6X|.7X5X7X4X6X{._.|.`.{.`.{.`.{._.`.|.|.{.6X{.{.[.|./.{.6X|.6X}.}.6X_.|.7X6X@X{.7X_.@X6X6X5X7X7X9X",
"L.L.J.,X^ Y ,X,X<XE L.K.K.L.,XK.K.,XG.W S.G.J.E K.~ G.S.P.F.K.G.L.W G.Y u p F K.K.K.G.J.L.G.G.K.,XL.K.<XG.T.L.L.,X<XL.5X",
"K.,XG.,XL.Y ,X,X<XS.<XI.<XL.L.K.L.K.F.K.S.J.J.S.K.J.S.S.I.S.K.G.K.F.T / NXMX' G G.K.W K.Y.L.J.L.,X,X<X,X,XT.,X,X,X1X,X5X",
"K.,X<X,X,XL.<XL.K.S.<XF.<XS.,XL.F.L.G.G.J.J.G.G.L.G.^ G.S.F.G.G.G.A.y mXgX XNX/ P S.S.K.F.K.J.L.L.<X<XL.,XL.L.L.<X<X<X3X",
"K.T.L.<XL.L.,XK.S.A.T.F.K.W K.G.~ G.J.G.L.F.G.J.J.G.G.J.W S.S.G.W F ] mX/ sXgXgXy R G.G.R L.L.S.J.1XT.J.K.K.T.<XL.T.2X@X",
"G.L.G.<XG.G.<XG.E <XF.S.J.L.J.W E F.F.S.K.G.S.K.G.S.K.W W G.^ T J 0 mXsX) NXgXNX( K K.W R ,XJ.S.G.1XK.G.J.,XK.<X2XJ.2XU.",
"W K.S.T.G.W <XW G.T.R S.T.S.K.R W W W ~ G.G.E K.G.W K.F.E F.I wXxX/ gX' pXMXgXNXMXw K.W W T.<XG.G.1XT.G.K.<XL.T.<XK.<X[.",
"R G.G.J.J.W ,XY L.K.W L.G.G.,XR Y K.Y Y W F.R G.J.G.F.K.~ I wXSXzXsXgX) dXgXgXgXNXu T.L.J.J.J.2XP.2X<XS.T.L.<XS.K.L.L.J.",
"S.F.K.F.L.S.T.S.T.S.L.L.W W K.S.E K.E R E F.~ J.S.F.S.K.J.J DXSXwXMX' U gXMXgXgXhX/ T.H.T.S.G.<XJ.L.Y.W <XL.,XW G.T.K.5X",
"G.G.L.F.K.G.K.G.K.S.<XK.Q ! I K.E G.G.W E W E K.W W G.G.G.rXSXDX( gX X/ NXMXfX XNX(.A.G.L.S.K.L.L.G.L.G.L.S.L.P A.A.H 0 ",
"J.J.J.J.K.K.K.K.J.G.2XG.Q Y L A.T W L.E E Q E ,X^ XX|.&XC.xXzXzX` gX!. XhXMX' gXNX XA.G.K.J.G.J.J.G.J.G.J.A.H.A.W e } 6 ",
"J.G.G.T.G.G.J.<XG.G.<XS.L W w   7 F H.L L `.*X;X=Xp.s.m.0.VXwXcXjXBX XfX/. XpXXX&X' I J.G.S.G.G.G.J.S.G.F.P 2XH.[ +.} +.",
"F.F.L.K.F.F.I.<XG.J.Y.~ G.K.w } +.+.&.U.+X*.7.q.i.a.u.N.0.cXtXcX>XAXnXBX!.!. XfXfX` H.W S.S.W W ^ K.W W W G.A.e +.d.+.F ",
"F.F.,XS.S.S.T.J.K.G.L.^ 1XS.L 7 d.6 d.R.A V 6.w.p.a.3 r.0.wXr cXnXAXnXZXXXy  XfXfX` A.Y K.E J.E ! K.L E E G.H.%.d.+.[ F.",
"W G.K.W F.L.J.S.L.G.K.L.2XW K ,.D g.6 [ *.4.4.q.t.>.$ @ -.cXd bX>XAX$XnX$Xt jXgX.X!.K.F.K.! ^ ,XR D.* F K.S.G.G d.* H.I.",
"R L.L.L.W <XF.E L.G.K.1XT.E K }. .; g.[ 4.7.0.r.t.p.u.-.$ d bXFX%XnX+XZXoXnXW.hXsX/ K.K.F.F.Q ,XA.w * Y <XR L.2X1XK <XW ",
"F.L.E <X,XJ.J.G.J.K.,X2XK.W ] 8X..9 | m 5.0.w.y.a.s.m.N.m.k bXbXE.nX%XAXoXZX$XiXfXs K.K.Y K.W G.w * K.E L.E ,X<X2XJ.H.U.",
"K.G.R K.L.K.S.S.G.K.<X,XJ.).*XC.*.c o.:.4.0.w.n 3 4.m.N.N.s.cXvX^.ZXS nX+XZXnXt hXS [.,XY W G # e w e T J.F.L.,X,XK.L.5X",
"G.G.W G.T.<XJ.I.W L.,XT.].Z.v M 2 O X.-.:.;.9       $ >.m.m.V.vXvXnX+X~.~.nXnXi $XZ #X[.F w + H T     o T F.G.L.G.G.K.[.",
"K.F.S.S.T.T.K.L.E K.,XK.OXm V V l   X - -   @ 4 9 $     2 6.8.aXFXE.ZX+X^.nXZXS jXC 8.w   * S.K.H   #.f.7 G Y H F.W K.[.",
"^ K.W S.K.G.<XK.W W L.K.D.B V X.=.X.c k ..4.y.y.s.n.u.c     *.~.vXcX0X>XV.ZXZXE.^.>.n   w ^ G.G.W D +.6 #.%.F.W K W K.U.",
"S.F.^ ^ S.K.1XI.G.R [.*XZ.V ..o.=.4.4.0.q.e.y.a.n.m.N.N.6.O   8.cXbX^.AXi >XAXV.~.n   2 =XjXT.S.Y 0 d.d.;   G W F.L ,XU.",
"^ ^ F.F.F.2X,XF.G.XX+Xh z B X.o.o.4.4.0.q.e.y.s.n.m.N.N.N.y.@ 2 Z.VXcX>XS nXAXE.V.  3 7.6.6.>XP.P <.[ 7 g.l.%.J.S.P <X).",
"F.S.F.W K.1XK.F.F.OXl z z V V =.:.:.4.=.=.*...n C ..;.6.y.m.6.  =.iXcXyX%X~.ZX~.t 4 t.t.q.q.=XD.E F D g.8   + A.P S.,X).",
"S.S.S.^ <X2XJ.I.W Z.h v b V X.b k - O   # 6 8 8 7 8 8     # *.4 # >.cXcX%XW.ZXoXq y.s.p.e.r.q.^.w # D   f.l.d.L.S.K.K.).",
"S.S.G.I.1XL.F.G.~ Z.z b M h @   6 O.1.O.{ k.k.h.< c c.b.9.<       @       # i S M r.C k =.t.6.0 F Y W | f.$ H L.F.T.K.].",
"^ K.G.L.2XF.^ J.Q %Xv b -   = O.v h.k.=   2.z.B.;   2.B.B.y.c           ..1.O.@       $ @ n - 5 P.4X,.,XT P A.K.,XK.J.[.",
"G.,X^ ,X,XW E F.jXk M 2   = 2.O.  f.k.}   @.z.z.@.  %.b.B.$ v.=       p.b.b.b.k.=           3 X.b C.,X,XJ.G.J.,XK.K.J.].",
"T.K.G.,XK.E E |.h h >     @ 3.1.  @.j. .   .l.l.h.  O.B.B.= x.;.    O.b.b.b.b.z.2.          n o.:.Z.5XK.G.J.L.L.K.K.K.].",
"L.L.K.T.F.Q I.S $ O         3.1.  @.j.}   +.l.l.g.  { z.B.8 9.9.    3.b.N.b.b.b.k.          k 4.4.>.8XK.W J.L.K.T.L.G.[.",
"K.I.T.L.E ~ J.V.> $ .       2.1.  @.j. .   .l.l.g.. 8 z.b.8 %.$.    e.b.c.c.b.b.j.          c 0.5.8.9XF.W K.L.G.,XJ.F.[.",
"G.S.,XK.R G.H.Z.h z k o   - 2.$.  @.k.}   +.z.z.h.  7 B.v.4 &.e     $.b.b.b.b.b.3.          =.q.q.#X[.Y J.J.J.F.,XF.F.U.",
"S.S.K.T.R K.@X%Xl l v 4   O O.6   $.k.{    .z.z.2.  8 B.x.# #       : c.b.b.b.b.8     @     4 r.:.#X/.W G.G.G.G.T.S.K.].",
"^ G.J.L.^ L.@XZ k C z v <         2.2.=   $.b.j.{   8 b.x.            ; 2.p.1.8 @ $   2 @ =.4 k 4.:.%XW G.K.G.G.L.G.G.[.",
"F.S.J.K.G.K.D.1 f h m B B z -             { $.$.#     8 $         2   r & t i S C p.=.C 7.t.q.3 4 o.;XS.S.J.G.S.K.J.S.].",
"K.S.G.J.F.J.Z.1 5 l z v B *.*.X.l 1 - o                   - &.4 # >.vXvXoX~.:X~.0 0.u.a.n.s.p.r.*.> S 7XW S.G.W J.K.W ).",
"G.G.G.G.G.L.C.1 h h z v V ..o.-.>.4.:.;.*.V n n M M X.-.6.*.2   k cXlXQ.~.^.nX~.t 2 n.N.N.m.a.y.e.q.Z.P.K.^ G.^ G.G.F.).",
"J.G.F.G.J.3X*X5 f h z b M X.o.-.5.5.0.t.y.p.p.p.p.y.p.8.f % . O r lXuXnXS >XAX~.W.  k m.N.m.s.p.e.q.&XR ,XS.K.S.S.G.L.).",
"S.K.S.S.K.,X|.oXl h l v V ..o.o.:.4.0.w.t.p.s.m.N.N.N.B %     % eXrXd jXi ZXAXC.+X6.. 9 a.n.a.y.w.4.nX~ K.T.F.K.S.L.K.].",
"S.L.S.S.<X<X*Xh x m l z b V X.o.:.V k 9 n ;.t.s.m.n.>.@     % a rXrXtXQ.E.AXAX~.*Xr.>.  - r.y.w.4.4.-.*XG.,XF.K.G.,XW U.",
"S.L.G.J.Y.8XZ h l z B V M m V X.1   @ 5 9 @   o X   . . % f > rXxXa tXs W.ZXZXS nX*.a.x   O ;.q.0.0.4.;XF.,XK.G.<XL.F.).",
"L.K.K.K.T.Y.k l z b M V o.=.=.o.1 $ *.;.4.:.n       > j j g r lXkXtXy d Q.nXnXt %XZ q.t.0.*.@ C t.q.0.;XL.,XL.^ L.G.L.).",
"L.W L.T.L.8Xl l z b V ..o.o.:.4.0.7.0.q.0.r.r.=.m 6.4.N j g rXlXd tXr ^.Q.nX:Xq :XS N.N.N.m.y.k 4 q.w.;X,X<X,XF.,XK.K.[.",
"G.E K.K.J.T.oXh z b M X.o.o.:.4.0.q.e.p.s.s.m.N.N.N.i.N g O lXlXr Q.s yXW.AX~.:X>XV.N.N.N.N.m.a.C - 6.CX,XL.L.,X,XK.K.5X",
"J.~ G.J.G.K.&XZ.z B M ..o.o.:.4.4.0.w.e.p.s.s.m.m.N.r.>   a lXlXd tXs yX^.>X~.>X>X~.N.N.N.N.m.n.n.c : U.L.,XK.K.,XK.K.[.",
"G.A.G.S.S.G.J.'.jX&.b M X.o.o.o.4.7.0.w.e.p.s.s.s.0.  $ , rXa kXQ.yX( yX+Xq ZX>X>X%Xs.N.N.m.n.s.n.;Xw A.K.L.K.G.K.G.G.).",
"S.W G.S.P.W G.E S.&X*XZ.V V o.:.:.4.4.0.q.e.e.i.p.i.5 B , qXr rX_ tXwXyXoXS %X>X>XoXp.m.N.s.a.-X8X7XG.K.K.G.K.G.F.F.F.).",
"S.E W W E ^ E E E ^ G.].&X*X;XZ.:.o.:.4.4.0.q.q.w.w.0.-.> kXqXrX_ tXtXiXE.~.oX:X:X^.t.a.a.0X#XNXG.K.F.G.F.F.K.K.F.W F.).",
"W W R W Y ~ Y E E W G.W W W W I.4X6X@XR.:XR.=X;X=X4.7.4.> lXqXrX_ tX_ $XW.jX$XhXjX XC.@XXXP.U.G.^ K.W F.F.K.G.G.S.S.G._.",
"E S.Y Y Y Y Y E Q G.W W W W E W W E ^ G.E R J.R R U.8X|.V.xXzXxX!.MXpXwXpXdX` sXgX` P G.W W W L.^ K.W W F.L.W G.E E K.~ ",
"G.~ R W ! Y Y R E G.E E E E E E W E E G.R R K.^ R R ,XG.W wXSXDX( gXwXp dXdXdX' dX` L S.F.R R K.F.G.E E F.J.F.G.E ^ K.~ ",
"K.Y G.E Y R Y Y W K.E W E E W E G.W Q G.S.R S.L.R R K.T.F.J SXDXwXgX] / dXdXmXsXdXU Y R K.! R F.K.W W Q J.K.J.F.I.I.I./.",
"F.W G.Y Q R Y ! W K.E F.E G.W E R K.R G.S.S.R K.S.R G.L.J.S./ DXzXwXmX` dXdXgXgXdXu ^ Y G.S.E ^ J.W W W G.J.G.W I.F.G.].",
"F.J.F.R S.E W R W G.E F.^ G.E I.E J.J.S.S.S.E S.J.! S.K.G.S.R s xX/ dX` pXdXdXgXdXw ^ ~ E S.S.E F.F.W W F.J.K.J.K.F.K.[.",
"G.K.W S.W R W W I.W F.W G.G.^ J.G.S.J.S.S.^ S.E G.S.W G.I.G.G.G.P w dXsX/ mXdXdX/ L S.E R G.S.~ W W E F.W F.K.K.K.K.K.[.",
"K.K.W K.~ R W W W W W W K.G.J.J.G.S.J.S.^ E S.E W S.S.S.S.W S.W W K ` mXU pXdXdXw R S.R R J.E W E W E E K.F.L.L.K.K.K.[.",
"K.K.K.I.E E E F.E E E F.L.G.K.K.K.J.G.^ E E E E E E E W ~ W W E W E u sXdX] mX/ K Y G.Y Y K.Y S.R R G.R F.K.L.K.K.K.L.[.",
"K.K.K.E F.W Q E G.Q Y G.L.K.K.K.K.K.G.F.R Q Y Y Y Q Y E ^ ! W F.W ~ L J mXdX` K Y ^ G.R F.G.E W R R K.Y ^ K.,XK.K.L.L.[.",
"K.K.L.Q Q L.^ Q ,XQ Y L.L.K.K.L.K.K.K.S.W R ! ^ Q ! Q R S.^ F.G.F.E E A.J u H K.^ G.G.Y K.^ J.W E I.J.W Q K.L.K.K.,X,X[.",
"6X6X7X`..X}.7X_.7X{.{.5X4X5X6X7X4X6X6X_.4X.X`.`._._._._.{.XX{.|.|.{.`.4X}.{.}.7XXX6X|._.6X.X|.7X4X4X|.[..X4X5X6X7X7X7X9X"
};
