/* XPM */
static char *_37f88d0b2844273bdbdaaffc3c5e9a4BrR55xhAciPE8X3a[] = {
/* columns rows colors chars-per-pixel */
"60 60 247 2 ",
"   c #000000",
".  c #0B0707",
"X  c #160E08",
"o  c #120D14",
"O  c #190E14",
"+  c #171118",
"@  c #1C151D",
"#  c #291606",
"$  c #25181E",
"%  c #3F1F14",
"&  c #19260F",
"*  c #2C2A02",
"=  c #372903",
"-  c #3B3403",
";  c #38261D",
":  c #29391A",
">  c #1D1721",
",  c #221921",
"<  c #2B1C21",
"1  c #382E25",
"2  c #4D330C",
"3  c #663915",
"4  c #492923",
"5  c #6D3A24",
"6  c #33451A",
"7  c #374828",
"8  c #3A4F2B",
"9  c #4C4803",
"0  c #564A07",
"q  c #595606",
"w  c #555218",
"e  c #6D500D",
"r  c #76550C",
"t  c #776F0B",
"y  c #4C542B",
"u  c #445833",
"i  c #465A34",
"p  c #495D35",
"a  c #645433",
"s  c #516A2D",
"d  c #4D6335",
"f  c #4E6637",
"g  c #566537",
"h  c #536639",
"j  c #546B3A",
"k  c #5B6C3D",
"l  c #567436",
"z  c #6D6D2E",
"x  c #67673D",
"c  c #3C4B50",
"v  c #455451",
"b  c #5D7444",
"n  c #576D52",
"m  c #677644",
"M  c #6C714B",
"N  c #4F5A67",
"B  c #5B716D",
"V  c #637C6A",
"C  c #727773",
"Z  c #8E5618",
"A  c #8E7112",
"S  c #9A7513",
"D  c #A66F17",
"F  c #B77C1B",
"G  c #864522",
"H  c #845024",
"J  c #995624",
"K  c #A85B23",
"L  c #907725",
"P  c #B26F24",
"I  c #B96C24",
"U  c #C67A24",
"Y  c #8B7A50",
"T  c #947753",
"R  c #59843E",
"E  c #6A893A",
"W  c #76903B",
"Q  c #6B8648",
"!  c #6D9B48",
"~  c #779B4A",
"^  c #718A55",
"/  c #6FA34E",
"(  c #72A54F",
")  c #7BA348",
"_  c #76A84E",
"`  c #7CAB4E",
"'  c #6FA451",
"]  c #72A550",
"[  c #77A850",
"{  c #7BAA51",
"}  c #698668",
"|  c #71916B",
" . c #76946B",
".. c #6C8775",
"X. c #728E7B",
"o. c #779777",
"O. c #7DA76B",
"+. c #898509",
"@. c #948C0B",
"#. c #9B9808",
"$. c #948614",
"%. c #9B9614",
"&. c #A29C09",
"*. c #A78D18",
"=. c #B58419",
"-. c #B99719",
";. c #B0AC11",
":. c #B3AA14",
">. c #8D953A",
",. c #AB9128",
"<. c #B9A738",
"1. c #C8901E",
"2. c #D99B1E",
"3. c #C3AB13",
"4. c #CEB212",
"5. c #C3BB13",
"6. c #E5B01E",
"7. c #CD8324",
"8. c #D48825",
"9. c #C29D20",
"0. c #DA9524",
"q. c #DD9A24",
"w. c #E29D24",
"e. c #E39E28",
"r. c #DBA625",
"t. c #D0AE33",
"y. c #DAB93A",
"u. c #E4A424",
"i. c #E5AA26",
"p. c #E9AD25",
"a. c #E8AA29",
"s. c #E4B023",
"d. c #EBB325",
"f. c #EEBA26",
"g. c #E5B32C",
"h. c #EBB42A",
"j. c #EEBB2B",
"k. c #F1BD26",
"l. c #F1BD2A",
"z. c #E4AF32",
"x. c #E6BA36",
"c. c #D4CD0E",
"v. c #C9C412",
"b. c #F1CA19",
"n. c #E5D410",
"m. c #F4D418",
"M. c #F5DA1A",
"N. c #F0EA05",
"B. c #D9C43D",
"V. c #EBC429",
"C. c #F2C32B",
"Z. c #F4C92A",
"A. c #F7D32A",
"S. c #E6C23A",
"D. c #F2CA33",
"F. c #8C8554",
"G. c #96895B",
"H. c #939552",
"J. c #85A647",
"K. c #82AE4E",
"L. c #92AB48",
"P. c #86B14E",
"I. c #8CB34D",
"U. c #91B64D",
"Y. c #99B44A",
"T. c #95B94D",
"R. c #9BBC4C",
"E. c #86AB53",
"W. c #93AD55",
"Q. c #89B252",
"!. c #96B654",
"~. c #A7AA47",
"^. c #A9B54B",
"/. c #A1BE4C",
"(. c #B6B54E",
"). c #B9BA48",
"_. c #A4BA53",
"`. c #988967",
"'. c #92946D",
"]. c #A59866",
"[. c #AB9B6B",
"{. c #B29F70",
"}. c #84AF6C",
"|. c #8AB269",
" X c #95B962",
".X c #9CBE62",
"XX c #93B76D",
"oX c #9CBD6D",
"OX c #88AC78",
"+X c #9CA273",
"@X c #8AB271",
"#X c #93B772",
"$X c #ADA46A",
"%X c #B1B06E",
"&X c #B7A875",
"*X c #BEAD79",
"=X c #BDB375",
"-X c #C8AF45",
";X c #C7B944",
":X c #D7BB47",
">X c #E1B842",
",X c #C1AC7B",
"<X c #C6BA7A",
"1X c #AFC647",
"2X c #A4C24B",
"3X c #ABC54A",
"4X c #B3CA49",
"5X c #B6C849",
"6X c #AEC258",
"7X c #9FC068",
"8X c #A4C26C",
"9X c #AAC668",
"0X c #ACC774",
"qX c #D0C545",
"wX c #CFC67F",
"eX c #797B84",
"rX c #6C868F",
"tX c #7C9884",
"yX c #7B96A9",
"uX c #7EA0A4",
"iX c #879090",
"pX c #97999E",
"aX c #A79B81",
"sX c #86AA84",
"dX c #9CA785",
"fX c #8DB68B",
"gX c #94BD8C",
"hX c #98BB8A",
"jX c #ACB387",
"kX c #8F9BAC",
"lX c #83A3A5",
"zX c #91B2B8",
"xX c #A5A8AA",
"cX c #ADB1B8",
"vX c #CAB984",
"bX c #D1BA86",
"nX c #96C08F",
"mX c #9BC28E",
"MX c #A6C68D",
"NX c #B5C68C",
"BX c #C9C286",
"VX c #D7C986",
"CX c #DBD187",
"ZX c #DAD188",
"AX c #9ABFC2",
"SX c #9DC5C9",
"DX c #C3C6CA",
/* pixels */
"8XoX8X8X}.@X9XXX9X#XoX8XoX9X9X9X8X8X#XO.oX@XXX@XXXoX=X|.#X7X#X7XoX#XXXoX8X@XXX8XoX7XoXXX8X@XoXoX9XoXXXoX@X8X8XoX9X9X9X0X",
"R.R.U.2X{ ' 2X/.3X{ R.T.R.R.2XR.U.2XI.` K.I.I.` Y.-X>XK.` P.T.P.R.P.I.K.R.U.P.T.T.T.I.I.R.I.I.R.3X/.R.3XI./././.2X3XR.9X",
"T.2XI.2X/.] 3X2X2XK.2XI.3XR.R.T.R.T.Q.T.{ T.Y.Q.Y.z.x.-XQ.U.T.I.T.P.I.K.T.T.U.T.P.!.{ T.2XT.T.T././.3X2X3XR.2X/.2X4X2X9X",
"T.2X3X2X2XT.3XR.R.K.3XI.2XP.2XT.Q.2XU.!.(.U.;X>X;Xz.z.x.:X:XI.I.I.I.I.I.Q.I.T.T.P.K.K.T.I.T.U.T.R.1X3XR.2XR.R./.2X3X1X6X",
"T.R.R.1XR.T.3XT.K.J.2XK.!.{ !.!.K.>X(.qXD.).x.D.h.z.h.l.j.x.^.Q.Q.J.I.Q.K.Q.I.R.P.( P.I.( R.R.P.T.4XR.T.T.T.R.3X2XR.1X7X",
"I./.P.3XI.I.3XI._ 3XI.` T.R.qX:X).S.>XS.C.D.D.C.C.h.h.x.V.j.;XE.E.` Y.{ ` U.` R.I.( T.P.( 2XY.K.I.5XR.U.I.3XT.1X4XI.1X.X",
"_ T.P./.I.` 3X_ I./.( K.2XK.(.D.h.j.j.l.C.C.D.C.D.l.j.l.j.h.x.E.W.W.:X` { U.[ U.T./ R.` ` /.3XI.I.5XR.J.U.3XR.R.2XT.2X7X",
"( I.I.I.T.` 2X/ R.U.K./.!.I._.;Xj.x.j.j.C.C.C.C.C.C.l.j.l.g.t.E._.y.:XW.] Q.~.^.2X/ 2XR.U.U.U.1X` 4X3XK.2XR.3XI.R.R.R.6X",
"P.I.U.P.R.P./.` /.P.R.qXx.l.x.-X>Xl.h.l.l.l.D.l.C.C.l.l.l.=.z ~._.V.>X6XK.y.g.x.R.R.2XT./.P.I.3XT.R.3X` 3XR.2X_ I.2XU.7X",
"U.P.T.P.T.I.T.I.2X{ 1Xx.l.C.D.j.h.l.a.h.h.h.l.j.C.C.l.h.l.Z 2 <.t.C.x.2Xy.j.j.j.6X4XT.I.R.K.T.R.R.I.R.P./.K./._ U.T.Y.7X",
"T.U.T.T.T.T.T.!.:XS.qXx.l.C.Z.l.l.a.a.e.a.a.z.z.l.j.f.a.s..   <.x.C.j.x.j.l.j.g.qX2X).;XT.I.U.U.U.I.U.I.U.K.4XI.P.T.U..X",
"I.I.U.R.I.I.U.5X;Xh.C.Z.f.l.l.l.l.h.e.e.e.e.e.e.e.u.a.F *       S f.j.h.k.f.h.h.S.x.j.x.I.J.I.K.I.I.I.P.I.{ 4XT.P.I.I.!.",
"P.P.R.T.P.I.Q.4Xg.h.p.g.h.h.l.C.l.a.e.U 7.U 7.0.8.8.D             A f.j.f.k.f.j.f.h.h.t.K.K.` ` _ U.{ ` ` I.2X1XP.P.P. X",
"` P.3X` P.` 2XU.x.h.g.d.p.p.C.k.h.e.e.8.U I J I I J   * 0     = e   -.l.k.f.f.k.f.d.g.^.Y._ U.[ ( R.] ' _ U.U.5XI.P.P.|.",
"` U.T._ P.T.I.` ).j.p.h.a.a.f.a.e.e.U U 7.H 5 4 5 $   t %.3.4.d.6.0 3 k.p.u.h.k.d.j.y.Q.U._ ` /._ L.I.] R.K.K.5X/._ R.|.",
"_ R./.R.K.qX;Xt.;X>Xh.d.p.e.e.e.8.U 8.U P 4 > , >     w $.%.%.:.@.-.  1.w.w.p.p.i.D.(.R.I.K.] /.I.K.R.' 3X] /.5X4X( 1XQ.",
"I.R._ 3X2Xy.h.g.p.f.l.p.e.p.8.U U U G 5 H > > > @                 $.t Z 8.u.i.s.-.$.:X2X/ R.) I.R.` R.` R._ 2X3X1XI.2X.X",
"T.I.( U.R.R.y.g.h.l.l.p.e.U U I U K #   $ > , , o   %.%.%.&.&.&.;.;.A 2 7.q.q.0.  - ~.6XO.I.T.T.R.` R.T.U.P.R.2X2XR.R..X",
"I.I.K.I./.2X_.g.a.a.u.u.w.U I K K 5 < . o > , , .   :.v.v.c.c.c.v.5.#.# 7.7.0.=.X (.U._.[ ` U.R.P.P.2XP.P.P.U.R.I.I.T..X",
"T.P.K.K./.3XB.g.g.a.w.w.w.8.U I G % < . o > , <     - t +.@.@.+.+.- +.  Z I i.*.r f.x.6XI.[ I.U.` T.T.P.` I.` P.P.` T..X",
"` I.P.Q.qXD.C.h.p.a.u.r.0.U I I J < > o o > , >                     t * J q.u.=.e p.l.D.(.Q.U.I.P.T.` P.I.Q.T.` ` P.R.7X",
"` I.K.;XC.C.C.j.d.u.u.q.8.U D Z 5 < > . + > > +   t &.+.#.#.&.#.#.&.5.q =.r.7.8.  6.A.k.V.:X/.K.P.U.` P.P.` 3X` P.` 2XQ.",
"` K.Q.).s.s.d.d.d.p.w.q.8.U K G 4 @ o   @ , > o   %.v.c.N.N.N.N.N.c.5.q Z d.j.k.2 A p.6.j.;X3XK.P.` R.` P.R.R.U.P.` 3X|.",
"K.K.K.E.).y.i.f.C.C.k.p.2.U I G < O     > , > o   @.5.c.n.N.N.N.c.c.;.q 3 q.f.V.r   S p.y.{ 3XK.{ ` R.P.3XI.U.2X` I.2X|.",
"K.K.` K.9X5Xx.C.k.p.u.w.8.U I K 4 o     > , > o   * E &.v.c.c.5.#.9 9 q r 0.p.f.Z   r g._ / 1XT._ _ I.3X2XP.Q.2X` R.R.|.",
"K.K.I.Q.4X3Xg.d.6.p.p.w.8.U G G ; +     @ > > o       .             q q 3 w.q.f.2   F 6.z.>.4X2XT._ P.4XU.` I.2XI.R.U.7X",
"K.T.I.R.1Xy.j.i.p.p.w.0.7.3   3 ; @ .   + $ @ +     q q q q A +.%.#.;.9 % I 0.2.  = 2.u.2.2 w Y.R.I.2X3XQ.P.U.R.R.R.U.7X",
"I./.{ 2XB.j.f.p.u.u.w.0.2.U 2 3 4 $ +   . , , +   9 ;.:.v.c.v.c.v.:.;.  D r.k.A   D 2.u.=.* 9.3XI.T.2X2XI.I.I.2XR.T.I. X",
"R.U.I.2XT.~.x.d.u.w.F D K K J   3 $ $ .   O < $   * %.:.5.5.5.5.;.;.+.  r.A.3.  w t.f.p.2 %.<.~ W W Y.T.U.I.R.R.R.T.T. X",
"/.R.R.R.I.t.r.q.T iXxXcXxXeXkXeX# $ $ @     O < .     * q q q * * $.9 X x.r.X   S ^.L.a B uXeXuXAXlXlX} ( U./.T./.R.I. X",
"T.I.2XR.:Xz.-.C DXDXxXeXC v N kXkXyXc O O     O O     * t W W @.%.9   e =.#   D 1.F.iXzXzXB c ..rXuXSXSXrXJ.T.I.2XU.` 7X",
"I.K./.R.E.;XT DXDXDXxXpXpXkXkXcXcXcXkXeXN O .   .       q t t t *     r   2 =.G.pXcXxXcXSXzXlXlXuXuXSXSXSX..P.I.2XP.I. X",
"K.P.R.R.~ ,.cXxXC `.`.,X,X,X<X&XG.`.pXAXyXeXN o                       = =.T aXxXDXxX'.`.dXsXsXsXtXo.} rXuXzXE P.R.K.T. X",
"` E.U.R.>.z Y jXvXbXVXCXwXCXCXwX<X<XbX`.yXyXyXeX+ .                 - -.aXcXcXpX`.*XvXvXjXjXnXgXnXnXnXnXfX' u ! R.I.I..X",
"I.` ~ k  .MXjXNX+X=X$X&XwXwX,X$X{.T ].wXvXC iXyXyX    - @.4.;.S       xXxXpXT vXvX{.M `...o.fXfXO.o.O.o.fXmXnXO.b ~ K. X",
"U.~ ^ mXmXhXOXOX`.F.%XBXCXCXCXwXCXwX].G.&XbXbXC kXc 9 4.6.m.b.m.4.    xXiXvXbX&X[.T jXiXtXtXsXfXtXo.} } | o.fXnXhX^ !  X",
"I.Q nXnX}  .dXBXCXCXwX$X].$X%X$X{.{.$X,X].M Y [.'.c 3.b.b.A.b.m.M.@.  %X=XY x T ].[.[.V ......V } sXfXnXmXOX .} hXmXn E.",
"I.b nXOX#XMXNXVXCXCXCX,X$XY a ,XwXCXwXCXwXwX<X{.[.a n.m.m.m.b.m.M.4.; ].$X*X,XVXVXVXVXiXtX8 v B ..fXgXfXMXnXmXfXo.nX^ O.",
"P.W o.nXMXMXVXVXBXBX+X{.].[.<X].].wXwXwXCXCXVXVX<Xx 3.M.M.b.b.M.M.&.Y <XZXbXvXjXjXjXdXV B tX....X...fXgXmXMXnXmXnXO.W  X",
"` R.E | MXMXMXhXMXOX*X,X,X,X,X<X<XM z H.].].G.$X{.F.t m.M.m.m.M.n.- Y ].].G.Y C n v 8 ..X...X.X.X.X.| nXnXMXnXmX| >.` !.",
"` R.I.` z  .gXgXmXNXVX<X&X=XjXwX<XwX<XwX=X].G.M a $.= t 4.m.n.4.9   S a x Y ].'.tXtX| X.X.tX..X.tXtXtXhXnXMX .k U.R.U.Q.",
"2XU.R.T.2XY.E R ^ +X$X].].'.}.].T H.,.-.4.9.  0 V.b.2               4.2.r   S D 1 y v v n V V V V V B V m E L._ /.I.R.|.",
"R.` R././.2XT./.2X~.L.J.) J.L.Z.A.A.A.k.=.  A V.m.*.                L <.0.r   S g u b u i u 8 8 7 : 7 u R././.I.R.R.T.7X",
"I._ T.T.I./.T.T.R.I.T.T.T.T.U.S.Z.Z.6.S   A Z.A.Z.D e =           9 s Y.-X0.r   2 p y M u u p p i u 8 8 J./././.2XT.T.7X",
"U.) I.U.I.T.U.U.P.I.T.T.U.U.^.V.f.6.~.  q Z.A.B.6.2.=             - ~ I.J.L 0.e   y d g g u u u u p i i k R.T.R.R.T.I..X",
"I.K.I.P.P.I.I.` P.P.P.I.I.I.).f.d.t.l = C.S.qXW.p.6.9.            z I.P.) g z L = : f f x b u p v p p p d T.T.I.T.T.Q.!.",
"P._ P.K.P.` P._ ` P.P.P.P.I.~.g.t.) & >.W.( { E.t.u.A e >.l s >.l 7 ) I._ Q p d u . y d p M g u p p p p p Q.T.P.P.P.P. X",
"P.` ` ` _ ` _ ` ` ` I.` ` P.` Y.P.i l _ ( ( ] ( t.r S r.Y.K.K.` P.E 6 ) _ ) p i d 8 & f f g M g p p u p u { R.T.P.` ` |.",
"_ ` ( ` / _ ] _ _ P.P.` ` P.` ` R 6 ` ` _ / _ _ W t q.<.Q.` ` ( T.` l s _ _ E u d i 6 : d j p x h d p i u J.Q.L.` ` U.Q.",
"_ P./ ( / / ' _ ' P.` _ _ _ _ s 6 ` ` I./ _ I./ 8 L.t.{ I.` _ ` 2X` / : / / _ j p d p : : j d d k h p i u ~ K.Q._ { T.O.",
"I._ ( ` / ] ' ( _ T._ _ _ _ 8 : ) _ _ I._ / T.! l / 3XI.Q.I.' T.U.I./ R l _ ( ( j f h f : & h d f m d h d m K.I._ { U.{ ",
"U./ I.( / / / / ` I._ ` _ _ _ / ` ` _ I.` / ` T.( ( T.R.I.I.` 2X` I.( P.! ( K./ ( k f j f f j f f f m d d b K.K.P.K.Q.}.",
"I.` T.' ] _ ' ( ` T.' P.' I.` ` _ T._ I.` ` _ R.P./ P.R.I.I.I.R.{ P.I._ ] ] ` P.( ` ! b l j j j f k k m d h ~ E.I.P.I. X",
"P.I.P.( ` _ ` ( P.P._ P.` I._ P._ I.T.P.` I._ P.T._ P.T.T.P.U.T.` K.I.] P.[ ( ` _ ` { ( ^ k j k j g f b b p ^ I.T.P.U.7X",
"P.T.` ` P.( ` ` K.K.` ` T.T.K.Q.P.` T.` ` ` ` ` I.P.` I.P.P.I.Q.P.P.` ` ` _ ( _ K.[ ` ` / K.Q m k g j l x b m R.T.U.T..X",
"T.T.` T.] ( ` ` ` ` P.` T.P.T.I.I.P.T.` ` ` ` _ ` P.` P.` ` Q.` ` ` ` ` { ` / { [ _ K.( ] I.[ { ~ ~ Q m k m m I.T.T.T..X",
"T.U.U.I._ _ _ ` ` _ _ P.T.T.T.T.T.T.I.` _ _ _ _ _ _ _ ` { ` { ` ` _ ` { { { Q.` _ _ I./ ] U./ K.' ' Q.] K.~ M ^ !.Y.R..X",
"T.R.T._ Q.` ' _ I.' ' T.R.T.T.T.T.T.I.P.' ' ' ' ' ' ' _ ` _ ` ` K.] P._ { _ T.` ' ` U./ K.I._ ` ' ] Y.' { T.R.E.W.Y.R..X",
"T.R.R.' ] R.{ ' 2X' ' R.T.R.T.R.R.T.T.` { ' ' ` ' ' ' ' ` ` ` I.` _ ` U.{ [ I.T._ U.I./ U.` U.` ] I.I.K.' T.R.T.!.2X2X.X",
"8X8X9X@XO.7X0XO.0XO.7X9X8X9X8X9X8X8X7X|.7XO.7X@X|.}.}.@X@X#X7X8X8XXX#X7X7X@X7X8XXX8X#X@X8X@X8X9X8XoXoXoX}.8X0X8X0X0X0X0X"
};
