/* XPM */
static char *_97f57e3788f41c1aaddc11fbf598defBja5ugl078Snxp28[] = {
/* columns rows colors chars-per-pixel */
"60 60 227 2 ",
"   c #000000",
".  c #060C03",
"X  c #0C1404",
"o  c #111D08",
"O  c #1A250B",
"+  c #18250B",
"@  c #1D2C15",
"#  c #202B0B",
"$  c #282C06",
"%  c #28310D",
"&  c #373C0B",
"*  c #293B16",
"=  c #302D03",
"-  c #303C33",
";  c #413F08",
":  c #3C410B",
">  c #3C4E1C",
",  c #354518",
"<  c #2B4019",
"1  c #364C28",
"2  c #3D5726",
"3  c #3C5034",
"4  c #43511A",
"5  c #535A15",
"6  c #494B0B",
"7  c #5D6418",
"8  c #6D690E",
"9  c #616715",
"0  c #656C18",
"q  c #6C751F",
"w  c #445B24",
"e  c #465A22",
"r  c #465A38",
"t  c #4C662A",
"y  c #536828",
"u  c #5B742E",
"i  c #57712E",
"p  c #4B6C34",
"a  c #4E7234",
"s  c #547432",
"d  c #5C7A33",
"f  c #587837",
"g  c #617D35",
"h  c #637427",
"j  c #3F5356",
"k  c #495E43",
"l  c #455B42",
"z  c #475959",
"x  c #4D6348",
"c  c #516B49",
"v  c #5E7849",
"b  c #597556",
"n  c #536E51",
"m  c #627E5C",
"M  c #657D56",
"N  c #657C4C",
"B  c #5A7377",
"V  c #556D6A",
"C  c #647F7C",
"Z  c #5B833C",
"A  c #57823D",
"S  c #7F8722",
"D  c #648136",
"F  c #668A3D",
"G  c #6B8D3D",
"H  c #688536",
"J  c #738E37",
"K  c #74923C",
"L  c #7C993E",
"P  c #6E913E",
"I  c #5E8840",
"U  c #668747",
"Y  c #6A9C4A",
"T  c #6A9544",
"R  c #739B45",
"E  c #7B9D42",
"W  c #739E48",
"Q  c #64805D",
"!  c #6B865B",
"~  c #768C55",
"^  c #6FA44E",
"/  c #72A54F",
"(  c #7BA449",
")  c #76A84E",
"_  c #7CAB4E",
"`  c #7EA145",
"'  c #6FA451",
"]  c #72A650",
"[  c #77A850",
"{  c #7BAA50",
"}  c #5E806E",
"|  c #6C8A65",
" . c #698866",
".. c #728D65",
"X. c #74946D",
"o. c #7A966A",
"O. c #6B8B74",
"+. c #6F9471",
"@. c #729571",
"#. c #769972",
"$. c #7B9C72",
"%. c #779D7A",
"&. c #758F70",
"*. c #7EAC62",
"=. c #7EA177",
"-. c #88871B",
";. c #959618",
":. c #979915",
">. c #A09E0C",
",. c #AAA715",
"<. c #859C39",
"1. c #8B9628",
"2. c #A19C21",
"3. c #9CA72C",
"4. c #94A434",
"5. c #90A83E",
"6. c #A7AC26",
"7. c #B0AA22",
"8. c #ACB225",
"9. c #B8B729",
"0. c #ABB632",
"q. c #B2BD35",
"w. c #C6BB1F",
"e. c #C3BE2B",
"r. c #B8C638",
"t. c #BAC22D",
"y. c #CFCF19",
"u. c #F1EF18",
"i. c #F7F20D",
"p. c #DCD52D",
"a. c #CCCD38",
"s. c #C7CB38",
"d. c #D2CE33",
"f. c #CAD538",
"g. c #D4DC33",
"h. c #D6D433",
"j. c #D3CA27",
"k. c #E3D627",
"l. c #DEE22C",
"z. c #E7E724",
"x. c #83A444",
"c. c #82AE4E",
"v. c #8AAB46",
"b. c #91AE45",
"n. c #86B04E",
"m. c #8BB34D",
"M. c #8EB247",
"N. c #91B64D",
"B. c #95B94D",
"V. c #9BBD4C",
"C. c #98B446",
"Z. c #81AE50",
"A. c #87B150",
"S. c #8AB250",
"D. c #93B85F",
"F. c #A1BF4B",
"G. c #849E6E",
"H. c #819F70",
"J. c #84AF6F",
"K. c #86A56A",
"L. c #8BB463",
"P. c #86B06F",
"I. c #8CB36E",
"U. c #86B064",
"Y. c #95B962",
"T. c #9CBE62",
"R. c #92B76E",
"E. c #95B96F",
"W. c #9CBD6D",
"Q. c #90B663",
"!. c #84A373",
"~. c #83A67A",
"^. c #89AA78",
"/. c #8AB271",
"(. c #92B770",
"). c #97B779",
"_. c #A0BF6D",
"`. c #A4C24B",
"'. c #ABC54A",
"]. c #AEC849",
"[. c #B3CA49",
"{. c #B7CD48",
"}. c #A5C25F",
"|. c #9FC068",
" X c #A4C26C",
".X c #AAC56B",
"XX c #ADC86A",
"oX c #A6C461",
"OX c #ACC874",
"+X c #C1D140",
"@X c #688586",
"#X c #718C82",
"$X c #79999C",
"%X c #739486",
"&X c #7FA881",
"*X c #7C9DA2",
"=X c #7EA0A5",
"-X c #7DA2A9",
";X c #84AB81",
":X c #8AAF81",
">X c #8BB283",
",X c #8CB689",
"<X c #8EBA8E",
"1X c #86B187",
"2X c #92B482",
"3X c #94BD8D",
"4X c #9ABD87",
"5X c #92BD90",
"6X c #82A59C",
"7X c #A0BD82",
"8X c #819FA1",
"9X c #84A3A4",
"0X c #86A9AD",
"qX c #86ABB2",
"wX c #8AAEB2",
"eX c #8CB3BA",
"rX c #8DB3B8",
"tX c #93B6B8",
"yX c #97C08F",
"uX c #9CC38E",
"iX c #A2C68E",
"pX c #ABCB8E",
"aX c #A6C68A",
"sX c #B2CF8E",
"dX c #94BCC3",
"fX c #9DC6CB",
"gX c #A5CBCC",
/* pixels */
" XW. X XJ./.XXR.XX(.W. XW..X.X.XW.|.E.J.W.I.E.I.E.I.E.P.(._.(.W.W.E.(.W. XI.R. XW.|.W.E._.I.W._..X_.(._.^..X X_.XX.X.XOX",
"V.V.N.`.{ ' '.V.'._ V.B.V.V.'.B.N.`.S._ c.m.m._ B.[ S.{ Z.c.V.c.V.c.m.A.V.m.A.B.B.B.m.m.V.m.b.V.'.V.V.'.M.F.V.V.`.'.V.}.",
"B.`.m.`.F./ '.`.`.c.'.m.`.V.V.V.V.B.n.B.c.N.N.c.B.N.Z.Z.m.c.N.N.V.c.N.c.B.B.N.B.S.V.{ B.F.V.N.V.F.F.].F.'.V.`.F.`.[.`.oX",
"B.`.'.`.'.B.'.B.V._ '.S.'.c.`.B.A.V.m.B.N.N.S.m.B.N.( N._ A.S.m.m.m.m.m.A.m.B.B.c.c.c.N.m.B.N.N.V.'.'.V.`.V.V.F.'.].'.oX",
"B.V.V.'.B.V.'.N.c.v.F.c.B.{ V.m.] N.m.m.`.n.m.B.N.m.m.N.{ c.c.m.S.c.c.c.c.c.c.F.c.) S.m./ V.V.c.B.[.V.B.B.N.F.'.F.F.[.}.",
"m.V.m.].m.m.'.m.) '.Z.c.N.V.m.{ ) _ n.n.B.m.{ B.m._ V._ c.m._ c._ _ c.c.c.N.c.V.m.] N.c./ '.B.c.m.{.B.N.S.].N.].[.N.[.D.",
"_ B.c.F.m._ '.) m.F./ c.F.c.V.W _ _ _ ) n.m.) B.m._ B.n.) m.c.c.c.[ m.[ ) N._ N.B.] V._ _ F.].m.m.[.F.S.N.'.V.F.`.N.'.T.",
"/ m.m.N.N._ `.^ V.N.c.V.m.m.b./ / B.^ ' _ m.^ v.N.m.A.B.) m.c.[ V.{ c.N.Y m.c.n.F./ F.V.v.x.m.[.c.[.'.c.F.V.'.c.V.V.V.}.",
"c.n.B.n.B.c.F._ V.c.V.F._ / > e ^ V.[ / [ c.) H G n._ B.N.N.m.n.N.v.Z.J G N.N.c.V.V.'.v., e v.'.N.V.F.c.F.F.F.[ m.V.N.oX",
"M.m.V.n.V.m.V.m.V._ ].B.^ ] c.u t m.m._ ) c.[ N.* _ m.m.B.N.V.B.S.S.x.y V.S.V.c.F.{.N., g c.N.V.V.m.F.n.F.n.F.( N.V.N.T.",
"B.N.N.N.B.B.B.B.B.m.].m./ / [ C.2 a V.] / [ [ V.a a A.m.n.B.B.V.m.m.t E [.M.N.N.{.F.e g N.N.N.N.N.S.N.v.B.c.[.A.c.N.N.T.",
"m.m.M.F.N.m.m.'.m.m.'._ / m.] N.c.* <.) ] ^ _ `.x.* U '._ N.B.m.F.u w V.[.B.c.F.{.g t N.m.v.m.n.S.b.n.S.n.Z.].V.m.M.N.Y.",
"A.A.V.B.A.A.S.'.m.N.F._ n.C./ c.N.x.# x.] ' N.N.N.Y > d <.s d G w y ( F.[.N.x.[.4.+ C._ c.c._ c.{ N.{ { { m.F.].Z.m.c.Q.",
"_ n.'._ { c.F.N.B.m.V._ [.A./ _ V.[.i 4 M.) N.c.V.c.s   .         <.M.`.F.M.V.F.O g V./ N.) N./ ] V.] ' _ N.N.{.m.c.S.L.",
"_ N.B._ n.V.B.c.V.S.V.V.[.{ ] ) ].F.G   y C.m.( V.G $             # b.V.`.N.F.,   x.B.S.N.) _ F.] b.S.] B.Z.A.{.F.) F.U.",
") V.V.V._ '.n.[ V.S.B.[.F.) / S.[.N.x.e   y c._ V.2 *           + 4 g V.V.N.e   i V.N.V.S.c.] F.S.c.V.] F.( F.[.[.[ '.L.",
"n.V.) ].`.N.N.S.N.x.4.F.v.R Y F.].A.S.n.d   e c.B.a                 J V.M.w   K N.B.B.V.Y b.W x.x.T b._ V.[ F.].].m.`.Y.",
"V.m./ N.V.x.d b  .H.G.K.$.X.$...M v D D T d   w v.R               % v.x.,   J E D D N !  .#.$.H.G.X.H...U g b.F.`.V.V.}.",
"m.m._ E v G.3XuX3XiXaX2X^.;X2X:X2X;X1X3X=.$.Q k 3 i   6 w.j.k.w.8 # i 3 x | $.~.3X:X>X).;X;X:X2X:X3XpX5X5X3X..f ( N.B.|.",
"B.Z.F | aXaXiX4X1X^.4X2X;X>X:X2X~.k n m | !  .$.$.n = j.k.p.p.p.j.8 M @.o... ...b k l ~.:X;X:X2X:X2X^.3X5X4XyX3X| F N.|.",
"c.K #.3XiX4XpXiX3X,XH.:X#.^.1Xo.#.3X<X3XiX3XuXuX>Xz ;.p.p.d.a.d.p.7.k ).uXyXuXyXyX3X<X..X.3X!.$.~.~.3X3XuXuXuX3XyX#.L Y.",
"( b yX#.:XiXsXyX4X5XiX~.@.n l 4X3X<X3XiXuX;X2X$.| @ 7.d.d.s.s.a.d.e.k G.=.^.uXyX5X5X3X3X:X3 M @.~.uXuX5XyX5XpX;X~.yXN D.",
"_ b yX3X .K.4X3X4X<X2XX.+.#.~.$.@.@.$.$.Q x b =.%X  -.a.a.e.{.s.d.7.- $.$.n n | @.@.$.@.$.$.!.| X.>XiX3X,X).o.Q 3XyX~ D.",
"_ T  .yXaX7X!.@.m  .#.,X3X<X5XuX3X,X..$.;XyX=.%X9X    e.h.a.d.d.s.6 z wXO.>X<X~.X.+.,XuX5X3XpX3X1X$. .m K.=.2XaX3XQ M.U.",
"c.c.R c ).pXuX3X$.~.+.%.3X1X%.@.#.x $.yX1XO.$X0X8X      -.9.9.2.;     qX*X*XO.1XpX .M G.@.$.aX4X%.@.^.^.pX5X4X^.a x.V.L.",
"c.c.m.c.4.r | 2X5XuX<XuX3X<X<X1X1X<X>X .=XeXeX%XG O                 , I =XeXqX$XG.1X2X7X,X<XsXpXiX3XuXsX^.m p x.m.V.B.Y.",
"_ B.m.V.].d eX9X@X .&.:X&X&X&X%. .@X-XfX0X=X! d O                     O f o.$XqXdX9X%X..%.;X).4X2XX.&.#XwXwX<.B.V.V.B.T.",
"m.`._ `.`.( @XfXfXfX*X*X*X*XeXdXeXwX0X$X} P *   2     & 1.3.1.h       e   > F } 8XwXtXtXeXwX9X9X*XwXgXgXgXV N.F.V.B.m.D.",
"F.N.m.`.B.) T @XfXdX*X@X@Xj B eXqX$Xb E p   o K f   h r.0.3.4.4.:     G p     p U m 8XqXwXV z @X@X9XgXgXC x.V.F.V.B.B.|.",
"V.V.B.V.A.' Z.Y b $XrXdX-XB *XV 2 M.n.L   X E M.O 5 0.& & 0 5 9 &     < _ F     E N.E * B 9XC rXdXwX%XN x.S.F.N.`.V.n.D.",
"B.m.`.V._ ) m._ _ F.F A I I D @ Y `.B.>   F B.E   6.f.f.g.g.g.h.f.r.&   / c.d   t S.] x.  K U K K R b.A._ B.B.S.'.m._ |.",
"m.c.F.V./ m.B.Z.`.V.] ' Y R + f _ `.G   y B.S.G   r.g.g.g.g.l.g.g.f.7   T c.) 1   T ] N.u * ` N.b.n.N.] m.B.B.A.'._ m.D.",
"c.c.V.V.^ B.B.m.V.N.^ / R 4 @ ) S.N.#   x.m._ Z 7 s.6.6.;.-.8 0 0 9     P _ / F   1 ^ m.W   t ( N._ ) ) B.m.N.m.`._ B.D.",
"{ S.N.V._ V.N.V.V.Z./ ) B.m.F _ m.P   * m._ ) i 0 0                     A _ / ^     T Z.^ U _ ) _ ) ' _ A.B.m.m.V.m.m.|.",
"M.c.m.V.m.B.V.B.B.c./ m.B._ m./ m.e   p m.) / d 7 5 6 ,.y.y.y.y.8.S =   A / ^ / .   a ^ / c.) / _ ) _ _ _ B.n._ B.N._ T.",
"B.c.c.N.m.B.F.B.B.n.n.N.m._ N./ M.g   w B.c._ d 9 t.l.z.u.i.u.z.l.g.6.  A _ _ _ .   Z ' m._ / / ^ ^ _ B._ n.N._ N.N._ D.",
"m.S.n.m.m.V.B.m.m.m.m.m.c.m.B._ m.m.t # m.m.m.g 9 g.l.z.u.i.u.z.l.g.3.  I { N.`   g ] / N./ / / ^ ) ' m.B._ B._ n.m._ D.",
"N.m.m.n.m.'.B.N.m.A.m.n._ m.m.N.V.m.x.  ` m.B.F 7 d.8.,.>.>.>.:.:.8.-.  T m.c.L + B./ _ N./ ] ^ ^ n.^ ) `._ B._ _ m.B.|.",
"n.B.n.n.V.'.m.m.B.A.B.m.n.n.m.`.m.S.Z.4 G m.M.R & 1.                    ( A.c.D t B._ m.c./ _ / ^ ^ B.' B.`.n.B.n.V.B.D.",
"c.V.c._ '.`.n._ V.V.N.B._ c.V.V.B._ c.2 s m.m.W   1.6 ;.:.:.:.;.;.:   X c._ _ i y S.c.N.c./ N.) ^ _ B.m.m.`.n.V.N.`._ D.",
"c.V.N.m.'.`.m._ B.`.c.B.c.m.F.N.N.Z.W X Z c.Z._ + q.f.g.g.l.z.g.g.r.  2 c.c.c.i % ( c.N.) ) S.F.) n._ `.n.`.B.m.`.V._ |.",
"V.m.V.B.`.`.V.c.`.F.B.N.c.N.F.c.N.W #   W c.c._ 2 1.s.t.8.8.8.6.8.0.  s _ B.) T   , ) N.c.c._ F.B._ ' `.V.`.V.) `.N.B.U.",
"V._ V.V.V.F.V.V.`.B.V.B.m.V.V.c.m.B.a Z _ _ _ ) d 0 S                 G _ `./ m.s H V.Z._ N.) B.`.n.' `.`.`.`.m.V.B.B.oX",
"M._ B.V.N.V.B.B.V.N.B.B.N.B.B.m.m.M.) ) ) ) ) ) Y   1.3.q.r.r.0.q     N._ `./ n.V.[ `.V.c.m.N.c.`.V.) `.`.`.V.V.`.B.B.oX",
"m.) m.N.m.B.N.N.n.m.B.m.m.N.N.m.m.n.) ] [ ] ^ n.] * 4 r.r.f.+X+X4.  y m.n.B.[ c.V.n.B.V.v.c.V._ V.V.V.`.V.`.B.B.V.B.m.T.",
"m.m.m.c.c.m.m._ c.m.m.m.m.m.m.m.m.n.^ ^ _ ) / S.] G   4 %     5 $   ` n.{ m.n.n.V.B.m.B.B.N.V.m.B.B.B.B.B.B.B.m.B.B.m.D.",
"c._ m.{ Z._ n.) _ n.n.n.n.n.c.m.n.n.) ^ ] ^ ' n.c.c.t             g c.m.) n.B.m.B.N.B.m.M.B.B.m.B.N.N.N.B.m.B.N.m.m.n.D.",
"c._ _ _ ) _ _ { _ _ n.n.n._ c.c.n._ { ) ' / / [ M.) / i       + D n.S.c.{ _ _ n.m.n.n.m.n.m.m.m.m.N.n.m.m.m.B.B._ _ _ L.",
"_ _ / _ ^ [ ^ [ ) _ A._ _ _ _ _ _ _ _ _ ) ^ _ ^ n.B._ _ K     Y B._ c.) ) ) ) c.n.n._ n._ n.B.n.n.B._ _ m.B.N.m._ _ N.*.",
") c.^ ' ^ / / ] ] m._ _ _ _ _ _ _ _ ) m.^ ) m.) _ n.V._ m.* 2 _ V.n.) ' / / / _ _ n._ N._ _ _ B._ B._ _ n.V._ m.) _ B.*.",
"m.[ ) _ ^ ^ ^ ] [ N.) _ ) ) ) ) _ ) _ m.) ^ B._ ^ ^ `.m.n.t a B.m.m.^ ^ / ) / / ] A.' n.n.^ ) B.n.m.) ) n.B.n.m._ _ B.*.",
"N.^ n.) ] / ^ ^ ) N.) _ ) ) _ ) m._ ^ m._ ] _ V.) ^ B.`.n.` ) `.c.m./ c./ / c./ ^ _ ^ ] B.^ ^ n.N._ _ ^ N.B.B._ A._ m.U.",
"n._ m.' ^ [ ^ ] _ B.] m.[ S._ _ ' B.[ N._ _ ) V.n.^ n.V.N.m.N.V.{ c.m./ / / _ c.^ { _ ^ S.c.[ _ B._ _ ) m.B.n._ m.n.n.D.",
"n.B.n./ _ ) _ / _ m.) _ [ m.[ S.) N.N.n.n.n.) n.N.) n.N.N.n.N.B.c.Z.m.] c._ ^ c.{ _ _ ^ _ c.c.) n.n._ _ n.N.B.B.B.n.B.T.",
"m.B._ c._ / _ _ _ m._ _ B.m._ S.n._ B._ _ _ _ _ m.n.n.n.n.n.S.n.c.n._ _ _ _ ^ ) { { c.) / S.c.[ _ _ ) n._ m.B.B.B.m.N.|.",
"B.B._ B.[ / _ _ _ _ A._ B.m.B.S.B.A.B._ _ ) _ ) n._ _ n._ _ A._ c._ _ _ { _ ' { { [ x./ ^ N.[ _ ) _ ) ) V._ V.V.B.B.B.|.",
"B.B.N.S.) ) ) _ ) ) ) n.B.B.B.B.B.N.A._ _ ) ) ) ) ) ) _ [ _ { _ { ) _ _ { { m._ ] ^ m.) ] N.^ c.^ ^ m.) A.B.V.B.B.B.B.|.",
"B.B.B._ m._ ' ) N.' ' N.V.B.B.B.B.B.m.A.' ' ' ' ' ^ ' ) { [ _ _ c.] _ ) _ { B._ ] _ m.^ _ m.) _ ^ ^ B.^ { B.F.B.B.V.V.|.",
"B.V.V.' ' V.*.' `.' ' V.B.B.B.B.B.B.B._ *.' ' [ ' ^ ^ ^ { [ _ m._ ) _ B._ { N.N.{ N.m.^ N.A.S._ ] A.N._ ' B.F.B.B.`.V.|.",
" X|.XX/.=.|..X*.XX(.L.XX XXX|.XX X X|./. X*./.|.I.P.P.P./.|.|.|.|.R.R. XE.(.E..XE. XE./. X/.|.XX|.|.W.|.J. XOX XXXXXXXOX"
};
