/* XPM */
static char *d6364c40f93b460a94d3325a5b04b9eeDcO9K98adJxZ45nm[] = {
/* columns rows colors chars-per-pixel */
"60 60 219 2 ",
"   c #000000",
".  c #070E03",
"X  c #101906",
"o  c #15220A",
"O  c #1A260B",
"+  c #1E2A0D",
"@  c #1D2C17",
"#  c #363B0B",
"$  c #283915",
"%  c #2A2D07",
"&  c #2A3933",
"*  c #413F08",
"=  c #2D4119",
"-  c #3B4C1B",
";  c #354519",
":  c #3A5322",
">  c #3B5826",
",  c #3E5234",
"<  c #324730",
"1  c #444407",
"2  c #535A15",
"3  c #4A5112",
"4  c #5D6518",
"5  c #6B690E",
"6  c #656A17",
"7  c #64701F",
"8  c #455B24",
"9  c #475B25",
"0  c #465A3F",
"q  c #4B662B",
"w  c #4C6428",
"e  c #546928",
"r  c #5B732E",
"t  c #4C6A35",
"y  c #4C7033",
"u  c #547333",
"i  c #5A7631",
"p  c #5B7A35",
"a  c #537A38",
"s  c #506F31",
"d  c #6A7B2A",
"f  c #627C33",
"g  c #465C43",
"h  c #435658",
"j  c #4E6647",
"k  c #536B49",
"l  c #58774D",
"z  c #536E52",
"x  c #5B7758",
"c  c #617D5C",
"v  c #627B54",
"b  c #647F4B",
"n  c #5B7272",
"m  c #576F67",
"M  c #657E7D",
"N  c #7D841F",
"B  c #5B833C",
"V  c #64893D",
"C  c #6B8D3C",
"Z  c #678537",
"A  c #6E913F",
"S  c #73923D",
"D  c #7C963B",
"F  c #778B30",
"G  c #638549",
"H  c #6B9443",
"J  c #6B9B4A",
"K  c #679546",
"L  c #739B44",
"P  c #7B9E44",
"I  c #729A45",
"U  c #68845C",
"Y  c #6FA34E",
"T  c #7DA245",
"R  c #72A54F",
"E  c #7AA44A",
"W  c #76A84F",
"Q  c #7CAB4E",
"!  c #77A146",
"~  c #6FA451",
"^  c #72A650",
"/  c #76A950",
"(  c #7CAA50",
")  c #658563",
"_  c #6C8A64",
"`  c #6B8B6A",
"'  c #65846B",
"]  c #728D64",
"[  c #6F916D",
"{  c #75956D",
"}  c #7C9A6D",
"|  c #6B8872",
" . c #739571",
".. c #759973",
"X. c #7B9C72",
"o. c #7A9F7B",
"O. c #7EAC62",
"+. c #7CA279",
"@. c #88881A",
"#. c #969718",
"$. c #959815",
"%. c #A09E0C",
"&. c #AAA714",
"*. c #949C29",
"=. c #899C35",
"-. c #889328",
";. c #9AA62D",
":. c #97A531",
">. c #8BA23D",
",. c #A9AA25",
"<. c #ADB224",
"1. c #AAB22A",
"2. c #B8B626",
"3. c #ABB935",
"4. c #ABB12E",
"5. c #C5B91E",
"6. c #C3BE2A",
"7. c #B8C63B",
"8. c #B5C133",
"9. c #D0CF19",
"0. c #F1EE18",
"q. c #F4F113",
"w. c #F8F309",
"e. c #DDD42C",
"r. c #D9DF2E",
"t. c #CDCC36",
"y. c #C3CA38",
"u. c #D1CE33",
"i. c #C8D438",
"p. c #D3DB33",
"a. c #D8D631",
"s. c #D1C927",
"d. c #E1D425",
"f. c #DDE12C",
"g. c #E8E823",
"h. c #82A545",
"j. c #82AE4E",
"k. c #88AA47",
"l. c #86B14E",
"z. c #8BB34D",
"x. c #91B64D",
"c. c #95B94D",
"v. c #9BBC4C",
"b. c #94B246",
"n. c #81AE50",
"m. c #87B150",
"M. c #8AB350",
"N. c #93B85F",
"B. c #A1BF4B",
"V. c #819E70",
"C. c #859D6A",
"Z. c #84AF6F",
"A. c #85AE66",
"S. c #8BB463",
"D. c #86B06F",
"F. c #8CB36E",
"G. c #86B064",
"H. c #95B962",
"J. c #9CBE62",
"K. c #92B76E",
"L. c #95B96F",
"P. c #9CBD6D",
"I. c #90B663",
"U. c #83A274",
"Y. c #83A679",
"T. c #89AB78",
"R. c #8AB271",
"E. c #95B872",
"W. c #90AE79",
"Q. c #A0BF6D",
"!. c #A2C14B",
"~. c #A6C24B",
"^. c #A4C24B",
"/. c #AAC54A",
"(. c #ADC547",
"). c #B3CA49",
"_. c #B6CC47",
"`. c #A5C25F",
"'. c #9FC068",
"]. c #A4C26C",
"[. c #AAC56B",
"{. c #ADC86A",
"}. c #A6C461",
"|. c #ACC874",
" X c #C0D040",
".X c #688586",
"XX c #718D82",
"oX c #7C9B9E",
"OX c #719089",
"+X c #7C9DA2",
"@X c #7DA0A6",
"#X c #809F9E",
"$X c #85AC82",
"%X c #8AAF81",
"&X c #8DB384",
"*X c #8BB68A",
"=X c #8EBA8E",
"-X c #87B288",
";X c #93B481",
":X c #93BD8D",
">X c #99BB85",
",X c #83A59C",
"<X c #A1BC80",
"1X c #82A2A3",
"2X c #8AACAD",
"3X c #83A7AC",
"4X c #8AAEB1",
"5X c #87ACB2",
"6X c #8DB1B4",
"7X c #8DB4BB",
"8X c #94B8BA",
"9X c #97C08F",
"0X c #9CC38E",
"qX c #A2C68E",
"wX c #A6C98E",
"eX c #AAC98A",
"rX c #97BDC2",
"tX c #9BC3C7",
"yX c #A5CCCD",
/* pixels */
"].P.].].Z.R.{.K.{.E.P.].P.[.{.].'.'.L.D.P.K.K.F.E.F.K.R.F.P.E.L.P.E.K.P.P.A.K.].P.P.P.L.Q.D.P.Q.[.Q.K.Q.D.Q.[.Q.{.[.[.|.",
"v.v.x.~.( ~ /.v.~./ v.c.v.v.^.c.c.!.M.( j.z.z.E v./ z.Q n.z.v.z.v.j.z.L v c C c.c.c.z.x.v.z.z.v.B.B.v./.x.B.B.v.!.~.v.}.",
"c.^.z.^.v.Y /.!.~.m./.m./.v.v.c.v.c.l.c.Q x.x.j.x.x.j.j.z.( x.z.c.m.h.) qXqX} S j.v.W c.B.v.x.v.B.B.(.B.~.B.B.B./.).^.`.",
"c.^./.!./.c./.v.v.h./.z.^.l.!.v.m.v.l.c.x.x.z.z.v.M./ x.l.z.l.z.z.k.k 0X:XX.qX] L m.j.x.m.v.x.c.B.(./.v.B.v.v.B.~.(./.}.",
"v.v.v.(.v.v./.c.n.j.B.j.c.( v.z./ x.x.l.^.l.z.x.c.l.l.c.( z.l.l.m.H Y.:Xc =X:X<Xk E l.z.R v.B.j.c.).v.c.v.c.v.(.v.^.).}.",
"z.v.z.(.l.l./.z.E /.m.j.x.v.z.E W Q l.l.c.l.l.c.z.Q v.Q Q l.( ! a 9 :X%XV.wX:XwX{ K c.l.R ~.x.j.M.).v.b.z./.c./.).x.).H.",
"W c.j.B.z.W /.W z.B.R n.B.j.v.^ Q Q Q W l.l.Q c.z.l.c.l./ z.L .X8X' 0Xo.,XqX:X:X>Xy v.Q Q B.(.z.z._.B.m.x./.v.v.!.c.(.J.",
"R l.z.x.c.Q ~.R v.c.Q v.z.z.B./ R c.Y ~ j.l.R z.x.z.m.c.( E .XtX1X%X:X{ *X:X:X:XwXz !.v.x.x.z.).n.(./.j.B.v./.m.v.v.v.`.",
"l.l.c.z.v.j.v.Q B.j.v.v./ W v.j.R v./ R W m./ z.Q l.l.c.x.x yXtXXX<XV.c :X<X:X>XeXU /.c.v.z.z./.c.v./.Q B.B.B./ x.v.x.J.",
"x.l.c.l.v.z.v.z.v.Q /.v.Y R j.v.R z.z./ R Q / c.Q Q l.M.z.oXtXyX| :X$X] wX:X;X$XeXT.h.z.v.j.x.v.v.z.B.j.B.m.B./ x.v.c.J.",
"c.c.c.x.c.x.v.c.x.z.(.M.^ R R v.Q j.v./ R / / !.( R l.x.S 6X3X1X{ :XV.V.eX:XV.>XeXV.D z.x.x.x.x.x.M.x.z.x.k.).M.j.x.x.J.",
"z.z.x.v.z.z.z./.z.z./.j.R x.R x.l.R /.W R R / !.l.R Q /.V tX.X1X;X:X$X>XC.T.%X>X<XV.h.x.z.j.z.m.m.x.k.m.m.n.).c.m.x.x.H.",
"l.l.v.c.z.j.M./.z.x.B.E m.v.R j.c.c.^.x.~ ~ c.c.x.^ P x.=.@X.X+X&XwX*XwXC.V.V.E.>X .b.n.n.( Q j.Q c.( ( ( z.B.(.m.z.l.S.",
"j.l.~.j.n.j.B.x.v.z.v.Q ).j.R Q v.).z.v.c./ c.Q v.Q ; I >.M h 1X-XwX>XwXW.z %X>XW.V.k.^ v.E x.R Y v.J ^ E c.x._.z.h.z.S.",
"W z.c.W j.v.x.j.v.m.v.v.).( R Q (.B.z.x.v.v.x.E v.A $ o Z #Xn 7X$X<XV.wXW.g <X;X%XV.b.m.x.R Q B.^ x.- K v.n.M._.!.R B.G.",
"W v.B.v.Q (.m./ v.M.c.).~.R R j._.x.z.l.x.v.l.E v.Q c.C % n 8XrX$X>XV.qXC.>X{ ;X%X_ c.v.z.j.R ~.k.q w Y B.^ B.).)./ (.S.",
"l.v.R /.~.z.z.z.x.x./.(.v.Q Y ~.(.m.z.l.j.c.c.j.v.W z.c.k.8 6X8X` >XU.0XX.qXX.T.&Xv v.v.Y v.W k.e q v.Q B./ ^./.).x.v.J.",
"c.x.R x.v.v.l.l.l.c././.x.Q z.~.c.E l.z.l.z.z.i 8 C m.c.z.E oX2XOX>Xk >XX.0X>Xj &XG x.v.R l.h.- Z Q c.c.c.l.c./.^.c.v.`.",
"z.z.Q z.v./.z.z.Q v.^.v.l.Q ^.l.r + E z.j.E e       + S l.l.v 2X2X;XU.] X.qX0Xz *Xf z.b.V t O D l.l.^.z.l.l.c.c.z.x.c.J.",
"c.l.j.j.^.B.c.v.W v.^.v.Q z.l.v.S   . : :   + w q $     - A I +XtX| 0XX.X.0X9XU *Xp j.9   = h.c.Q x.c.Q Q z.Q l.Q Q c.J.",
"Q c.( l.v.z.~.c.Q Q v.c.W c.R v.j.L a p D I z.c.Q ( P w     u ' 2X@X>X;Xc :XqX| o.I i   9 j.z.z.l.c.l.Q M.M.c.Q l.Q v.'.",
"j.l.l./ l.c._.l.z.Y c.c.Q j.Q v.j.^ Q v.c./ c.l./ / c.R =..   C 1X4X .qXj %XqXc  .s   > z.j.v.l.l.z.l.l.M.Q /.( Q l.^.N.",
"( Q l.Q l.(.^.l.z.R z.x.Q R j.c.j.R c.z.j.j.z.j./ W x./ v.P o = U 8X+X%Xx %X:X] x   9 R j.W /.j.Q l.c.l.Q v.v.c.Q Q ~.S.",
"l.m.l.( c._.c.l.l.l.R l.j.R Q z.R W x.L K C a r u i Z Z h.z.S   u XX2XXXY. .=X{ j : W x.W W (.j.W W F W /.M.c.!.l.z.!.S.",
"Q m.m.l.~./.x.m.j.x.R j.j.R W I u > O   % 4 6 6 6 6 4     + Z 8 O Z 1X+XOX_ $X .9 J m.B.R R (.x.y $ C ).B.j.z.!.Q c.v.G.",
"l.( l.m._.v.m.x.R x.Y c.R B $   4 *.3.*.@.y.p.8.2 7 y.7.;.2       @       @ k z d H s 7 B ! B.- Z R j._.x.j.M.B.z.!.c.'.",
"( c.M.c.).l./ x.R x.W z.>   3 :.N i.i.1 . <.f.f.2   <.i.i.3.4           @.,.#.%       ; O s 2 D v.z.^./.z.j.x.v.v.c.x.J.",
"z.!.l.^.!.Q W l.W j.j.s   3 B.-.  8.p.#.  &.g.g.&.  ,.p.i.# 3.#       6.t.a.e.s.1           d ~.z.c./.^.M.M.x.!.v.c.z.J.",
"v.c.z.~.c.W R Q W Q C   . % (.3.  <.f.$.  %.0.q.9.  #.r.p.1 :.F     #.u.y.t.a.e.5.          D v.z.x.~.c.z.z.v.B.v.c.c.N.",
"B.v.c.v.l.R l.K > $         7.3.  <.g.$.  %.w.q.9.  @.r.p.7 :.:.    6.6. Xy.u.e.d.          u v.x.x.v.x.l.x.v.c.!.v.l.J.",
"c.z.~.v.W R l.W p e         7.8.  <.f.#.  %.0.0.9.. 5 f.p.6 :.*.    6. XB.t.u.e.d.          s v.x.z.v.l.W v.v.z.^.x.Q J.",
"z.j.~.v.R z.c.l.^.v.J o   2 _.4.  1.p.#.  $.g.g.9.  5 p.u.4 ;.d     *.u.6.t.u.e.5.          C z.z.z.x.R z.x.x.m./.Q z.'.",
"j.j.v.v.R v.c.z.B.x.R a   % =.7   1.p.-.  #.f.f.<.  6 p.i.# #       * y.u.u.u.e.5     +     9 ( z.Q W / x.z.x.z.!.Q c.N.",
"W z.c.v.W v.z.v.v.j.R R Z         3.8.1   1.p.p.@.  4 y.8.            3 ,.2.,.5 O @   ; o B 8 u Q Y W Q l.c.l.x.v.z.z.'.",
"z.j.z.c.z.c.v.c.c.j.R z.c.H w             N ;.,.%     4 #         =   h & g g x q T a y K z.^ > q K Q Q Q c.z.Q c.x.Q J.",
"x.j.m.x.z.c.v.c.x.l.l.x.x.Q x.R S f 9 X                   = C 9 + V 4X4X..` $X .< h.^ ~ M./ ~ J B : B v.Q l.c.W x.x.Q N.",
"x.z.z.z.z.v.v.z.z.z.z.z.j.l.c.Q z.z.z.x.k.! A C C C L T k.z.p   Z ,X@X|  .o.0X .g ; J R x.^ ~ Y W Y V Q v.Q c.Q z.z.Q I.",
"x.z.l.z.z./.c.c.z.l.m.z.Q l.l.v.v.z.M.z.z.l.c.Q z.l.m.z.l.C   ; } 7XoX*Xz %X9X] )   : Q c.^ Y ^ W Q ~ ~ ^.Q c.Q Q z.!.S.",
"j.x.l.j.v.~.z.z.c.m.c.z.l.l.l.~.l.l.l.z.l.z.x.l.j.j.l.l.Z     H #X4X .:Xk :X:X]  .C   8 h.^ Q ^ Y Y c.W c.!.z.c.Q v.c.N.",
"j.v.j.j.^.~.l.Q v.v.c.x.j.j.v.v.c.A u e p A k.Q Q j.V ;     i ' 2XoX;XY._ :X:X] Y.P V   = J M.E W W c.x.l.^.Q v.x./.Q N.",
"Q v.z.z./.!.c.E c.~.j.c.j.m.B.x.f   + s q O   . .       q T S 1XtX` 9X_ ..9X9Xc ;Xp j.r   o I B.Y Q Q !.Q ^.c.l.^.!.z.S.",
"v.x.v.v.!.!.v.j.~.v.x.c.j.c.B.m.Z = k.l.j.Q p       : P ( n.c 6X1X*X_ .. .qX=Xg %XC Q z.I u o F c.Q W 7.c.~.!.W !.z.c.G.",
"v.j.v.v.v.!.v.v.~.c.v.c.z.v.v.j.l.c.l.W W Q Q G u K n.j.v.I #X6XXX>Xx :X .wX*Xg $Xb v.j.Q x.J w 4 W ~ ^.^.^.^.l.!.c.c.}.",
"z.W c.v.z.v.c.c.v.x.c.c.x.x.x.z.z.z./ R W W W E R / / c.L ; 6X8X_ ;X{ 0XX.wX` Y.;Xx !.v.j.z.x.l.Z - Y 7.^.^.v.!.!.c.c.}.",
"x.E z.c.z.c.x.x.l.z.c.z.x.x.x.z.z.z.Y R / ^ Y n.W Q J d   n 6XrXY.0XX.0X+.W.` $XW._ c.v.z.j.B.Q v.Z ; b.v.!.c.c.!.c.z.J.",
"z.l.l.l.l.z.z.Q j.z.z.z.z.z.z.z.z.l.Y ^ Q / R M.R H   $ C +Xm 2XW.0XY.0X+., =XT.;XX.h.v.x.x.v.z.c.c.w Q c.c.v.z.z.c.z.N.",
"z.W l.n.j.j.l.W Q l.l.l.l.l.j.j.l.l.R R R R R z.j.j.> T S .Xh +X%X0X:X:X..x Y.&X&X+.h.z.z.x.z.x.c.c.z.c.c.c.c.z.l.l.l.N.",
"j.W Q Q W Q W W Q Q z.Q l.l.j.j.j.l./ W ~ Y R W x.R Y M.G rX.X@X%X9X;X:X) {  .T.&X} P z.z.z.z.z.z.c.l.l.l.l.c.z.l.Q l.S.",
"W Q R Q R / ~ / ^ Q z.Q Q Q Q Q Q Q Q Q W Y W R l.v.Q Q A 7X.X+X&X:X+.-X[ +.+.-X&X..I l.j.j.c.l.Q v.Q l.l.v.x.l.j.Q z.G.",
"W l.Y R Y R R R ~ z.Q Q Q Q Q Q Q Q W l.W W l.W W l.v.Q S 2X+X7X} :X....$X=X..-X:X{ H z.Q Q Q v.W c.Q Q l.v.Q z./ / c.O.",
"l.( R Q R ~ Y / / z.Q Q W W W W Q W W z.W Y c.Q Y R ~.x.l.OXrXyX| 0XOXx =X=X=X+.=X..K l.l.R R c.l.l.W R l.c.l.z./ Q c.O.",
"c.Y l.W R Y Y Y Q c./ Q W W Q W x.Q W z.Q W Q v.Y Y v.v.l.G tXyX| :X+.U =X=X9X-X=X) ~ ~ c.R R l.c.Q Q R x.c.z.l.l.n.M.G.",
"l.W x.~ Y W R Y Q c./ Q / z.Q Q ^ c./ x.Q Q W v.l.Y l.v.x.k..XtX3X$X0X .-X=X:X:X=Xl E ~ m.j.( Q c.Q Q Q z.x.x.Q l.l.l.N.",
"l.x.l.Y ( W l.~ Q z./ l./ z./ M.^ x.z.z.Q z.W l.c.R l.c.x.l.T ' 5XU 9X..$X:X=X9X*Xp ( / Q j.j.R l.l.Q Q l.x.c.x.c.l.c.'.",
"z.c.Q l.Q R W Q l.Q Q Q x.z.( M.l.Q c.Q Q Q Q Q z.l.Q z.l.l.z.z.H t =X-X[ =X=X=X` J j.E R m.j./ Q Q W l.Q l.c.c.c.c.c.H.",
"c.c.Q c.W R Q Q Q Q l.Q c.z.c.c.x.z.c.Q Q W Q W Q Q l.l.Q Q l.Q Q H ..9Xc $X=X=Xt / j.R R x./ Q W Q W W c.l.v.c.c.c.c.'.",
"c.c.c.M./ ^ / Q Q W W Q c.M.c.c.c.x.z.Q ^ / ^ W ^ W W Q / ( ( ( n.^ j =X=X$X9X_ K Y l.R ^ x.R j.R Y z.R z.c.v.c.c.c.v.'.",
"c.c.c./ z.Q ~ W x.~ R c.v.c.c.c.c.c.z.z.~ ~ R ^ R ~ R W ( / ( Q j.Y I v :X=X{ C ~ Q z.R j.z.R j.R R c.Y ( c.v.c.c.v.v.'.",
"c.c.v.~ ~ v.( ~ ^.~ R v.v.v.c.c.c.c.c.( O.~ ~ / ~ ~ R R ( / Q M.l.W Q h.G z S c.( l.z.R x.( z.Q R m.x.Q / c.!.c.c.!.v.'.",
"|.'.{.F.+.'.|.O.{.F.S.{.'.|.'.{.].].|.O.].R.O.'.R.D.R.O.R.'.'.'.P.K.F.].P.K.L.[.L.].P.R.[.R.'.{.'.'.P.'.+.].[.].{.{.{.|."
};
