/* XPM */
static char *e11c129b1caa48c9b37e8ec4b10973a4cSj2WF0wcS1nbiZs[] = {
/* columns rows colors chars-per-pixel */
"60 60 218 2 ",
"   c #000000",
".  c #070D03",
"X  c #0D1404",
"o  c #141E08",
"O  c #15220A",
"+  c #19250B",
"@  c #1E280A",
"#  c #1D281B",
"$  c #242D0B",
"%  c #292F0A",
"&  c #373C0B",
"*  c #283A16",
"=  c #2D3B33",
"-  c #403F08",
";  c #3E410A",
":  c #2D441B",
">  c #31441A",
",  c #394819",
"<  c #394E2E",
"1  c #3B5423",
"2  c #3C5827",
"3  c #4C4B08",
"4  c #495316",
"5  c #565C15",
"6  c #5D6417",
"7  c #6D690E",
"8  c #656914",
"9  c #636A19",
"0  c #68721E",
"q  c #475C23",
"w  c #435B25",
"e  c #425738",
"r  c #4A662A",
"t  c #556C29",
"y  c #59732E",
"u  c #4C6E31",
"i  c #566B35",
"p  c #4E7235",
"a  c #537332",
"s  c #577936",
"d  c #5C7A33",
"f  c #687A2B",
"g  c #627B33",
"h  c #465C42",
"j  c #425558",
"k  c #4B6349",
"l  c #546C48",
"z  c #5A774A",
"x  c #597352",
"c  c #5F7958",
"v  c #617B57",
"b  c #637E5B",
"n  c #57706C",
"m  c #607C64",
"M  c #607B7D",
"N  c #5A843E",
"B  c #788B2D",
"V  c #688637",
"C  c #64863B",
"Z  c #6B8D3D",
"A  c #718C37",
"S  c #73923C",
"D  c #7B973C",
"F  c #5E8A41",
"G  c #648B45",
"H  c #679546",
"J  c #6C9543",
"K  c #6C9D4A",
"L  c #749B45",
"P  c #7A9E44",
"I  c #67835D",
"U  c #738B5F",
"Y  c #6FA34E",
"T  c #7DA245",
"R  c #72A54F",
"E  c #7BA54A",
"W  c #76A84E",
"Q  c #7CAB4E",
"!  c #6FA451",
"~  c #72A650",
"^  c #76A850",
"/  c #7BAA50",
"(  c #668563",
")  c #6D8B65",
"_  c #6C8C6A",
"`  c #728E66",
"'  c #6C9367",
"]  c #72936D",
"[  c #7A976C",
"{  c #6C8A73",
"}  c #6F9471",
"|  c #729671",
" . c #769A74",
".. c #7B9C72",
"X. c #799F79",
"o. c #7EAC62",
"O. c #7DA178",
"+. c #88871B",
"@. c #999817",
"#. c #929618",
"$. c #949619",
"%. c #A29F0A",
"&. c #ADA918",
"*. c #899428",
"=. c #949E2A",
"-. c #829A3B",
";. c #A09C22",
":. c #9CA82D",
">. c #94A535",
",. c #A8AB26",
"<. c #ACB225",
"1. c #B6B629",
"2. c #B1B52D",
"3. c #A8B533",
"4. c #C5BA1E",
"5. c #C5BF2B",
"6. c #B8C331",
"7. c #B8C536",
"8. c #D0CF19",
"9. c #F7F20D",
"0. c #F1EE17",
"q. c #D0C829",
"w. c #DDD42C",
"e. c #DCD828",
"r. c #C9CB39",
"t. c #D1CF34",
"y. c #C9D438",
"u. c #D3D033",
"i. c #D4DC33",
"p. c #E2D423",
"a. c #DDE12D",
"s. c #E9E922",
"d. c #84A543",
"f. c #8BAB45",
"g. c #86AA48",
"h. c #82AE4E",
"j. c #92AD42",
"k. c #8FB047",
"l. c #86B04E",
"z. c #8CB34D",
"x. c #9CB847",
"c. c #91B64D",
"v. c #95B94D",
"b. c #9BBD4C",
"n. c #81AE50",
"m. c #82A85F",
"M. c #87B150",
"N. c #8AB350",
"B. c #8AB05F",
"V. c #92B85A",
"C. c #A1BF4B",
"Z. c #829F71",
"A. c #86B064",
"S. c #8BB463",
"D. c #86B06F",
"F. c #8CB36E",
"G. c #90B663",
"H. c #95B962",
"J. c #9CBE62",
"K. c #92B76E",
"L. c #95B96F",
"P. c #9CBD6D",
"I. c #85A775",
"U. c #82A57A",
"Y. c #8BAD7C",
"T. c #8AB271",
"R. c #92B770",
"E. c #94B778",
"W. c #A0BF6D",
"Q. c #A2C14B",
"!. c #A4C24B",
"~. c #A6C24B",
"^. c #AAC54A",
"/. c #AFC748",
"(. c #B6CC46",
"). c #B3CA49",
"_. c #A5C25F",
"`. c #9FC068",
"'. c #A4C262",
"]. c #ACC860",
"[. c #A4C26C",
"{. c #AAC56B",
"}. c #ADC86A",
"|. c #ACC874",
" X c #627E84",
".X c #698685",
"XX c #709089",
"oX c #77999E",
"OX c #7FA881",
"+X c #7B9DA2",
"@X c #7EA1A5",
"#X c #819E9E",
"$X c #84AB82",
"%X c #8AAF81",
"&X c #86B187",
"*X c #8DB283",
"=X c #8AB489",
"-X c #8EBA8F",
";X c #93B582",
":X c #95B986",
">X c #93BD8D",
",X c #9BBF8B",
"<X c #80A49C",
"1X c #81A2A5",
"2X c #86A9AD",
"3X c #86ACB2",
"4X c #8DAFB2",
"5X c #8EB2B4",
"6X c #8DB4BB",
"7X c #93B6B9",
"8X c #96C08F",
"9X c #9BC28E",
"0X c #9BC290",
"qX c #A1C68D",
"wX c #A8CA8E",
"eX c #96BDC2",
"rX c #9CC5CA",
"tX c #A5CBCD",
/* pixels */
"[.P.[.`.D.T.}.K.}.K.P.[.P.{.{.{.[.`.L.D.P.F.K.F.K.F.R.F.R.W.R.P.P.L.R.L.[.R.R.[.L.[.L.L.W.F.P.W.W.W.L.W.D.W.{.W.}.{.{.|.",
"b.b.c.Q./ ! !.C.^./ b.v.v.b.~.b.v.C.z.Q h.z.c.W v./ M./ n.h.b.h.b.h.z.M.b.z.l.v.v.v.l.v.b.z.c.v.C.C.b.!.k.C.C.C.~.!.b.'.",
"v.Q.v.!.b.~ !.!.!.h.!.l.^.b.b.v.b.b.l.v.Q v.c.h.v.c.h.n.l.h.v.z.b.M.c.M.v.v.c.v.h.b.Q v.C.b.v.b.^.C.(.C.!.b.C.C.~.).b.].",
"v.!.!.!.!.v./.b.b.h./.N.!.l.!.v.M.v.z.c.c.c.z.z.v.c.E c.h.M.N.z.c.l.l.l.l.c.v.v.h.h.h.v.M.v.c.v.C.C.^.C.C.b.b.C.!././.].",
"v.C.b./.b.b.!.v.h.g.!.h.b.E b.c.~ c.c.z.b.l.l.v.v.l.l.c.h.l.h.l.h.M.h.l.h.h.M.b.h.W M.z.E v.x.h.v.).C.v.b.v.C./.C.C./.'.",
"l.b.l./.z.z./.z.E ^.n.h.z.b.z.W W Q l.l.v.z.l.v.z.Q b.h.Q l.h.h.Q h.g.h.h.c.h.C.l.W v.h.R !.v.h.z.).b.c.c.~.v.^./.c./.J.",
"Q v.h.C.z.W ^.^ M.!.~ h.C.n.v.R Q Q Q ^ z.z.W v.z.h.v.l.W z.h.h.h.~ M.W W c.W v.b.R b.Q / C.^.z.N.).C.z.v.^.b.b.!.c./.J.",
"R z.z.v.v.W !.R b.c.h.b.z.z.C.W R v.Y Y Q l.R z.c.z.M.v.^ g.P ~ x.h.h.c.R M.g.M.C.R C.b.v.c.c./.n./.C.h.C.b.!.N.b.b.b._.",
"h.l.v.z.b.h.b.h.b.h.b.C./ W v.M.R b.^ R ^ l.~ z.h.l.h.v.z.V r f.v.l.h.!./ v.c.h.b.C.C.v.C.M.z.!.v.b.C.h.C.C.C./ N.b.c.'.",
"c.l.b.g.b.z.b.l.b.Q /.v.Y R h.b.W z.z./ W Q / v.W Q z.l.v.r * v.l.M.k.!.b.N.v.h.C.(.v.N.b.n.v.x.x.z.C.g.b.N.C.E c.b.z.'.",
"v.c.v.c.v.v.v.b.v.l./.l.R ~ ~ b.W l.b.R R ~ W !.Q ^ h.c.d..   -.N.z.c.b.(.N.v.v.(.C.v.k.v.c.v.c.v.N.v.N.c.g.).M.h.v.v.J.",
"z.z.z.C.z.z.z.!.c.z.^.h.R z.W c.l.R ^.W ! R / !.l.R Q -.O       f z./ C.).v.h.C.(.c.z.c.z.h.z.h.N.k.N.h.M.n./.b.l.z.z.H.",
"l.l.C.v.l.N.N.^.z.c.C./ N.x.R h.c.v.Q.c.~ ~ z.c.c.! d             t W C./.c.n./.C.n.C.h.g.n./ h./ c./ / / z.C./.l.l.l.H.",
"l.l.!.Q / h.!.c.b.z.b.E ).n.R Q b.).z.b.c./ v.h.b.L   $ 5     % 4   S !.^.N.b.!.b.c.b.~ v.W v.~ ~ v.~ ~ / v.c.(.c.h.l.B.",
"W z.v./ l.b.c.h.b.M.v.b././ ~ Q /.C.z.v.!.v.l.g.b.r   >.y.y.y.(.C.3 , C.C.c.C.!.c.b.v.N.c.R E C.E k.N.K v.n.z.(.C.W C.A.",
"W b.C.b.Q ^.l.^ b.N.b.).!.W R h.).v.l.z.z.b.l.E v.    0 3.7.7.3.=.:.  d.b.v.b.b.N.b.v.v.M.N.~ C.N.h.b.~ C.~ C.).(.~ ^.S.",
"l.b.R /.!.z.v.l.c.c.!.).v.Q R !./.l.V a h.v.v.h.D                 +.0 V v.v.v.v.S d v.b.R b.W c.b.Q b.W b.^ !./.).z.C.J.",
"v.z.R v.b.v.l.l.z.v.).!.v.Q c.!.v.Q >   J l.c.z.g   3.<.<.<.<.<.6.y.:.w k.v.c.g.  @ d.C.R M.v.v.b.Q b.v.v.z.b.!.Q.b.b.'.",
"z.z.W z.C.!.z.z.Q b.!.C.l.Q C.l.v.h.E $ a M.z.l.w   7.i.i.a.a.a.a.i.2.+ z.v.l.V X E z.b.Q Q c.v.z.l.!.z.h.l.z.v.z.z.v.J.",
"v.l.l.h.Q.!.v.b.W v.Q.v.W c.l.v.z.Q W a t c.l.v.X   ; #.$.@.@.@.#.; :.  f.c.l.d 1 Q l.c.z.W z.v.l.c.v.Q l.l.Q l.h.n.v.J.",
"h.v./ l.v.z.^.v.Q Q C.v.R v.R C.l.Q W r V g.l.f.                    *.& -.h.z.Z 1 Q h.h.v.M.z.z.Q v.l.N.z.z.v.n.n.h.v.H.",
"Q l.l.^ l.v.(.l.z.Y v.c.Q l.Q b.h.W W @ D ^ v.P   B <.$.@.%.%.%.&.<.t.8 Z M.v.L   L W / l.h.C.l.l.z./ h.l.n.!.Q h.n.^.G.",
"/ Q l.Q l./.Q.l.c.R z.z./ ! Q v.h.Y V   E h.z.Z   ,.i.a.s.0.9.0.s.a.i.8 C h.h.c.+ r l.R h.W !.h.l.Q v.l.M.v.C.c.Q M.^.S.",
"l.M.Q M.v.(.v.l.l.l.R l.l.! M.c.W C   . W l.R S   ,.i.s.s.0.9.0.s.e.6.8 d W W h.r   a c.W Q /.h.W Q b.h.^.z.z.b.M.N.C.S.",
"M.Q Q M.!./.c.z.Q c.R h.g.~ / Q ~ a   . / W W Z   % +.<.8.8.p.8.&.3 5 6 p ~ ~ R f   w b.Y ~ /.b.W R N./.!.h.N.!.z.v.v.S.",
"M.Q c.M.).b.M.c.W c.R v.R ! F ! Y L     R R h.Z                     0 9 d R ! ~ ;   V /.Y F ).^.b.W l.).N.n.z.C.z.b.v.H.",
"Q v.N.v.).l./ c.R z./ z.K 2   H h.W 1   N W l.J     9 8 8 7 +.#.,.2.7.6 s z.R H   $ M./.K * 4 j.v.z.!./.l.M.c.b.!.v.z.J.",
"N.Q.l.Q.!.Q R h.W h.h./ R H * r h.z.J   : v.R d.  6 y.y.a.a.i.i.i.i.7.  F c.Q 2   G V.b.d o >.C.z.v.^.Q.c.z.N.!.b.v.z.J.",
"b.c.l.~.v.W R Q ~ ~ J S z F F   G C.~ y   A W k.  & 7.y.i.i.y.i.y.y.:.  G / D   , l.v.E $ V -.D Z D x.v.z.z.b.C.b.v.b.S.",
"C.b.b.b.z.Y l.Y x XX4X6X3X X+Xn * f.l.f.    Z z.>     & 6 8 6 ; & 3.5 + Q H X   G v.E q n 1X X2XeX5X#Xc E z.C.v.C.b.z.J.",
"v.z.!.b.W W T M rXtX@X.X.Xj n 2X3X<Xm S d     d S     & >.:.:.3.7.9   d C o   g G v oX5X7Xn j .X.X1XrXrX.Xd.v.z.!.z.l.'.",
"l.l.Q.b.W c.n rXtXtX3X+X+X+X2XeX7X7X7XoX{ D ,   w       0 =.:.B &     w   : d _ +X3X2X7XeX6X1X1X+X1XtXrXtX.Xf.l.!.l.l.V.",
"Q l.b.Q.R -.4X2X.X_ _ OX$X;XU.X.( XX1XeX3X@X' s @                     @ s I oX3XeX@X.X_ O.OX*X$XY.} ( .X@X7XC k.C.h.v.V.",
"Q l.v.b.G i ( E.qX,X-X-XqX0X-X>X;X:X;X` oX3X6X<XZ :                 @ z .X6X3X+X{ OX=X=X&X-X8X>X8X-X-X8X&X} e G v.z.z.J.",
"z.Q T l ..9XqXqXI.U.| U.:X=XU.| [ v ) 8X:X} +X1X3X    - ;.1.2.+.      +X2X+X{ &X-X .k  .| O.=X=XO.} O.O.:X9X9XY.l P h.J.",
"v.T c 9X9X:XI...b m Z.:X0X,X9X-X9X9X..) Y.:X&X{ 5Xj 3 q.u.r.r.t.1.    1X.X$X>X$X .] =X-X9X-X-X-X&X| ( I ] O.*X>XqXU J S.",
"z.G 9X,XI [ E.:X0X0X:X[ ) ..I.....[ ....` l x ..X.= ,.u.r.r.r.r.u.+.  $XX.x k b | ..| | ..O. ._ _ OX-X8X9X%X..I ,X9Xx B.",
"v.x 8X*X%XwX9X9X0X>X,XU.| c < *XqX0X0X9X0X:X*X..] h 5.t.r.r.r.t.u.&.# ` | $X%XqX-XqX-X-X:Xh k } O.8X-X-XwX8X9X*X .9Xb m.",
"g.D | 8X9XwX9X9XqX>XI.U.| Z.>X[ ` >X>X0X8X0X0X8X%Xh ,.w.t.t.t.t.w.@.l *X,X,X>X0X>X0X>X[ _ $XOX .OX| :X-X9XwX>X9X8XI.A H.",
"l.b.Z ( wXwX9X-X,XY.:X*X%X%X;X;XY.h h I ) ( ) ] | v 7 w.w.w.w.w.w.% x [ | ( ( ] I x h Y.$X$X&X$XU.&XY.:X:XwX9XqX) -.h.V.",
"Q b.N.d.g ` :X>XqXwX,X%X%X%X;X;X*X$XY.:XO. .) k < t O 7 4.p.p.&.3   a < h b [ X.;X&X%X;X$X$X%XE.$X>X8XwX>X9X[ l >.b.z.S.",
"b.z.b.b.~.x.A z ` Z.Z...| ..Z.) b z C s J C   * L R $               P E 2   u J C V z v ( |  .Z.o.' } ` G B f.W Q.c.v.S.",
"C.Q b.b.b.~.b.C.C.f.-.d.P f.k.M.l.b.n.^ N . 1 L / s                 a h.W t   d W v.b.n.h.c.H d.k.K K !.b.!.!.z.Q.v.v.`.",
"z.W v.b.N.C.v.v.b.v.b.v.v.v.v.M.c.z.R r   1 K W ^ p > $           * w v.g.C.1   q L ~.C.h.z.c.h.Q.Q.! Q.!.Q.b.!.Q.v.v.'.",
"c.W c.c.z.v.v.c.l.l.v.z.c.c.c.z.c.l.H   * K R n.^ K O             $ D l.z.v.~ w   Z c.C.g.n.C.W b.Q.v.Q.Q.Q.v.v.Q.v.v.`.",
"l.z.z.h.l.l.z.W g.z.z.z.k.h.z.z.l.l.p O E W R N.~ M.F             g c.h./ z.h.h., y z.v.v.c.v.c.v.v.v.v.v.v.v.z.v.N.h.`.",
"l.W M.h.M./ l.W Q l.l.l.l.l.N.h.l.E O F ! ! Y l.h.h.2 w S d a S d , E c.W l.c.c.f.@ T c.c.c.c.c.v.v.v.v.v.v.v.l.l.l.h.S.",
"h.W Q Q W Q Q / Q Q z.h.l.h.h.h.Q r a W R ! ~ ~ k.1 u M.z.l.W Q h.Z * E W Q Q l.z.Z > g.z.z.z.M.z.z.l.l.l.l.v.v.h.Q l.S.",
"W g.R Q Y ^ Y ^ W Q z.Q Q Q Q Q y w Q Q W Y Q R Z t Q l.z.Q Q R v.Q d u ~ R W h.z.h.a w Q l.v.l.Q v.Q l.l.v.z.z.h.Q v.o.",
"W l.Y ! Y R Y ^ ! z.Q Q Q Q E u : R W z.R R z.R 1 Q C.W z.Q W Q b.h.W * Y R W Q W l.Q t r W h.v.Q v.Q Q l.C.Q z.W Q v.o.",
"M.^ R Q R Y ! R W z.W Q W W 2 : P W W z.W R v.Z p R !.z.l.l.R v.c.z.Y N s W Y R ~ n.R h.q : Y v.l.z.W R l.v.l.z.^ Q v.o.",
"v.R z.W ! R Y Y Q v.W Q W W Y K l.Q Y z.Q R Q v.R Y v.Q.l.c.Q !.h.z.R h.K R h.Y R Q R ~ v.H Y l.v.Q Q Y c.v.z.l.M.Q N.A.",
"z.Q c.! Y ^ Y R Q b.W M.^ z.Q Q R v.W c.Q Q W b.l.Y z.b.c.c.z.b.Q h.c.~ ~ ~ Q h.R Q W ~ h.h.W h.c.Q Q Q z.c.z.Q l.l.z.V.",
"l.z.l.R l.Y Q ~ Q z.W Q / N./ Q R c.c.l.l.l.W l.c.W l.c.c.l.c.v.h.h.M.R l.W Y h.W W E ~ E N.h.W l.l.Q Q l.c.v.c.v.l.v.J.",
"z.v.W l.Q R W Q l.Q Q Q c.c.Q v.l.l.v.Q Q W Q Q z.l.Q z.l.l.z.l.h.h.Q Q h.W R W h./ h.W ~ M.h.~ Q Q Q Q Q l.v.v.v.c.c.`.",
"v.v.Q v.W R h.Q Q Q M.Q c.M.v.N.z.l.v.Q Q Q Q W Q Q l.Q l.Q Q l.h.h.W h./ W ! / W W h.~ R c.W Q W Q W Q v.l.b.b.c.v.v.`.",
"v.c.c.N.^ ^ W Q / W W l.v.N.b.v.v.v.M.Q W W W R W W W / ^ / / Q / W Q W / / z.Q ~ R z.Y R v.Y h.R Y z.R N.c.b.v.v.v.b.`.",
"v.v.v./ N./ ! W z.R R z.b.v.v.v.v.v.v.M.! ! ! R R ! ! W / ^ Q Q h.~ h.W Q W v.h.Y Q z.R h.z.W Q R R v.R / v.Q.v.v.v.b.`.",
"v.v.b.! ! v./ ! Q.R R b.v.b.v.v.v.v.v.Q o.! ! ^ Y ! R R / / Q z.l.W Q c.l.W z.v./ N.z.R c./ z.Q R l.c.Q ! v.Q.v.v.Q.b.`.",
"[.`.}.F.D.`.[.T.}.F.F.}.[.}.`.}.[.[.`.D.[.o.T.`.D.D.D.D.R.L.`.`.P.K.K.[.L.L.L.[.L.[.P.D.{.T.P.}.[.`.L.`.D.[.{.[.}.}.}.|."
};
