/* XPM */
static char *a77476c9caf142c1822fa24e223511e0cye7ttZrYxduRDYI[] = {
/* columns rows colors chars-per-pixel */
"60 60 217 2 ",
"   c #000000",
".  c #080C02",
"X  c #0B1304",
"o  c #151F08",
"O  c #1B260A",
"+  c #17240B",
"@  c #1B271B",
"#  c #242D0B",
"$  c #373C0B",
"%  c #273815",
"&  c #2D2F07",
"*  c #2C3A34",
"=  c #413F08",
"-  c #2E441C",
";  c #324419",
":  c #38491B",
">  c #3C400A",
",  c #3C5423",
"<  c #3C5A28",
"1  c #3B4F30",
"2  c #47551B",
"3  c #4B4F0F",
"4  c #5D6518",
"5  c #6D690E",
"6  c #646915",
"7  c #646B17",
"8  c #6B751F",
"9  c #455B24",
"0  c #485B26",
"q  c #44563B",
"w  c #4C6529",
"e  c #556927",
"r  c #5B742E",
"t  c #4A6B33",
"y  c #537332",
"u  c #5A7531",
"i  c #5C7A34",
"p  c #587A3A",
"a  c #4E7133",
"s  c #627D33",
"d  c #647C2F",
"f  c #465C43",
"g  c #465858",
"h  c #4D6549",
"j  c #5B7447",
"k  c #5A7656",
"l  c #566E4F",
"z  c #617C5A",
"x  c #627B4D",
"c  c #5B7272",
"v  c #597165",
"b  c #617B7D",
"n  c #7F841C",
"m  c #5A833D",
"M  c #5F883F",
"N  c #7C8725",
"B  c #64893D",
"V  c #6C8D3C",
"C  c #668437",
"Z  c #748C35",
"A  c #6C903E",
"S  c #74933C",
"D  c #7B973B",
"F  c #6D802E",
"G  c #67844A",
"H  c #6B9443",
"J  c #699847",
"K  c #749C46",
"L  c #7A9D43",
"P  c #719B46",
"I  c #65815E",
"U  c #6C865B",
"Y  c #6FA44E",
"T  c #7CA246",
"R  c #72A54F",
"E  c #7BA449",
"W  c #76A84E",
"Q  c #7CAB4E",
"!  c #6FA451",
"~  c #72A550",
"^  c #76A850",
"/  c #7BAA50",
"(  c #6C8A65",
")  c #688766",
"_  c #718D65",
"`  c #6E916D",
"'  c #72926C",
"]  c #7B996E",
"[  c #789668",
"{  c #6B8A72",
"}  c #6F9471",
"|  c #739671",
" . c #759973",
".. c #7C9C72",
"X. c #799E7B",
"o. c #7EAA64",
"O. c #7EA176",
"+. c #7BA27B",
"@. c #9F9E0D",
"#. c #88871A",
"$. c #969718",
"%. c #8A901E",
"&. c #A39F08",
"*. c #ACA918",
"=. c #859C39",
"-. c #8D9727",
";. c #A09C21",
":. c #9AA62E",
">. c #94A331",
",. c #A8AC26",
"<. c #ADB224",
"1. c #B7B829",
"2. c #A9B735",
"3. c #B0AB25",
"4. c #C5B91F",
"5. c #C3BD2A",
"6. c #B7C638",
"7. c #D0CF19",
"8. c #F1EE18",
"9. c #F7F20D",
"0. c #DED52B",
"q. c #DADF2D",
"w. c #DCD023",
"e. c #CECD35",
"r. c #C5CC3A",
"t. c #C4CA36",
"y. c #D1CF33",
"u. c #CCD636",
"i. c #C5D33A",
"p. c #D4DC32",
"a. c #D6D432",
"s. c #D0C929",
"d. c #E2D524",
"f. c #DBE02D",
"g. c #E5E624",
"h. c #83A545",
"j. c #8BAD46",
"k. c #82AE4E",
"l. c #8AAE4A",
"z. c #87A946",
"x. c #86B04E",
"c. c #8BB34D",
"v. c #91B64D",
"b. c #95B94D",
"n. c #9BBD4C",
"m. c #81AE50",
"M. c #86B150",
"N. c #8AB350",
"B. c #92B85A",
"V. c #90AC43",
"C. c #A1BF4B",
"Z. c #A2BB45",
"A. c #829F70",
"S. c #84AF6F",
"D. c #82AF61",
"F. c #8BB463",
"G. c #86B06F",
"H. c #8CB36E",
"J. c #86B064",
"K. c #95B962",
"L. c #9CBE62",
"P. c #92B76E",
"I. c #95B96F",
"U. c #9CBD6D",
"Y. c #90B663",
"T. c #86A878",
"R. c #8AB273",
"E. c #92B770",
"W. c #97BA70",
"Q. c #A0BF6D",
"!. c #A4C24B",
"~. c #AAC54A",
"^. c #AFC748",
"/. c #B3CA49",
"(. c #B6CC47",
"). c #A5C25F",
"_. c #9FC068",
"`. c #A4C26C",
"'. c #AAC56B",
"]. c #ADC86A",
"[. c #A6C461",
"{. c #ACC874",
"}. c #6B8786",
"|. c #718E82",
" X c #79999C",
".X c #729386",
"XX c #7FA881",
"oX c #7C9EA2",
"OX c #7FA1A4",
"+X c #84AB82",
"@X c #8AAE81",
"#X c #87B186",
"$X c #8CB384",
"%X c #8BB68A",
"&X c #8EBB8E",
"*X c #87B388",
"=X c #93B682",
"-X c #93BD8E",
";X c #98BF8C",
":X c #98BA84",
">X c #82A59C",
",X c #82A2A4",
"<X c #87AAAE",
"1X c #83A6AA",
"2X c #8AAEB2",
"3X c #87ACB1",
"4X c #8DB0B4",
"5X c #8CB3B9",
"6X c #95BABC",
"7X c #91B5B8",
"8X c #96C08F",
"9X c #9BC28E",
"0X c #97C190",
"qX c #A2C68E",
"wX c #94BCC2",
"eX c #9DC4C7",
"rX c #A4CCCE",
/* pixels */
"`.U.`.`.S.G.].P.].E.U.`.Q.`.'.'._._.W.S.U.E.P.H.W.H.W.G.E.Q.W.W.Q.W.H.U.`.H.P.`.I._.U.I.'.G.U.Q.'.Q.I.Q.G.'.'.Q.].'.'.{.",
"n.n.v.!./ ! !.!.~./ n.v.n.n.!.n.b.C.N.Q H j x P v./ l.Q m.k.n.k.n.k.c.M.C.N.M.b.b.b.c.c.n.x.N.n.C.C.n.~.l.C.n.n.!.~.n.[.",
"b.!.c.!.C.R !.!.!.k.~.x.~.n.n.b.n.b.M.D | ;X9Xz h.v.k.k.x.m.b.c.n.k.v.k.b.b.v.b.k.n.Q b.C.n.v.n.C.C.^.C.!.C.C.C.~.^.!.[.",
"b.!.~.!.!.b.~.n.n.k.~.c.!.k.!.n.x.n.E _ qX@X;X;Xj l.Q v.k.M.c.c.v.x.x.c.M.v.b.b.x.k.m.b.l.n.v.v.C.~.~.n.!.n.n.C.!.^.^.[.",
"b.C.n.^.n.n.~.b.k.l.C.k.b./ n.c.W c.p ;XqX@Xz qXO.S x.B.k.x.k.x.k.x.k.x.k.k.k.C.m.W l.N.W n.C.k.v./.C.v.n.v.C.~.C.!.^.[.",
"x.n.x.^.c.x.~.c.R ~.k.k.v.n.l./ W E ( 8XqX;X' -X;Xt D M.Q x.k.k.k.Q k.k.k.v.k.C.x.~ v.k.R !.v.m.N.(.n.v.N.~.v.^.^.v./.K.",
"Q b.k.C.x.Q ~.W x.~.~ m.C.k.n.~ Q i %X&X;X0X+XA.9XI 4Xv J c.k.k.k.~ x./ W v.Q v.n.R n.Q / C.^.c.c.(.C.l.v.~.n.C.!.v.^.L.",
"R c.c.v.b.Q !.R C.v.Q C.x.c.!.~ R G &X%X-X;X*X..qXT.2XrXc z.x.~ n.m.k.c.~ l.k.x.C.R !.n.v.v.v.^.m.^.C.k.~.b.~.M.n.n.n.).",
"k.x.b.x.n.k.n.k.n.k.n.C.W W b.l.~ U &X%X-X0X-Xz X.8X{ rXeXx c.k.v.x.k.~./ v.c.k.n.n.~.n.C.k.l.~.v.n.~./ ~.n.C./ c.n.v.[.",
"v.x.n.x.n.c.n.x.n.Q ^.b.! W k.n.P ..0X+.&X-X-XI +.8X{ rXeX Xv.b.M.l.x.~.n.l.n.k.C.(.v.x.n.k.b.n.C.l.C.k.C.l.C.~ v.n.v.L.",
"b.v.b.v.b.v.b.b.b.x.^.x.R R ~ n.J  .qX@X .&X@XT.| &X` 2X,X4XD n.c.c.N.n./.N.b.v.(.C.v.v.v.v.v.v.v.N.v.c.v.m./.N.l.v.v.L.",
"c.c.c.C.v.c.c.~.v.c.~.k.R c.W c.P | =X+XX.XX' 9XT.&X+X,X}.7XS c.!.v./ C./.b.m.!.(.v.c.v.N.l.c.k.l.v.M.l.M.m./.b.M.c.v.B.",
"x.x.n.b.x.x.c.~.c.v.Z./ l.b.R k.h.A.W.@X| { _ 9X:X&X+X,X}.7XS N.z.n.^ C.^.v.m.^.C.k.C.Q k.k.Q k./ v./ / / l.C.^.N.x.x.Y.",
"k.x.!.Q k.k.!.B.v.c.n.Q /.l.~ Q j.T.@X=XT.l A.;X;X;X+X,Xg }.H K 9 ~.c.!.~.N.n.~.n.v.n.~ v./ v.W ~ n.~ ! / v.v.(.x.k.x.F.",
"Q c.b.Q x.n.v.K w l.n.n././ ~ Q Z.A.@X=X9Xq A.-XT.;X=X3Xv ,X=.%   h.C.n.C.v.!.!.v.n.b.M.v.~ Q C.~ v.c.~ n.k.l.(.!.W C.J.",
"W n.C.n./ ~.x.K : r n.^.!.~ ! x.(._ @X@X{ :XA.-XA.-XA.6X<Xb   y P n.n.b.n.n.n.n.N.n.v.n.M.l.~ C.l.m.n.~ C.R C.(.(.~ ~.F.",
"x.n.W ~.!.c.b.x.j.: F (.n.Q R !.^.z @XA.( qX..-XA.@XI 6X2X; h.b.c.n.b.b.b.b.b.b.v.b.b.n.R n.Q c.n.Q n.W C.^ !.^./.c.C.L.",
"b.c.R b.n.n.k.x.c.v.e e z.Q c.!.b.x @Xf -X9X..;Xz &X|.7XoXK v.v.v.h.d S v.v.c.b.v.c.v.C.~ x.v.n.n.Q n.b.b.M.b.!.!.b.n.).",
"c.c.Q c.C.!.v.M.Q n.!.F O y j.l.n.j @Xf -X0X....( %X,X7Xv M.x.L 9       C v.x.c.T - C n.Q Q c.n.c.c.!.x.Q c.b.b.c.c.b.K.",
"b.M.k.k.C.!.b.n.W n.C.b.H O   r v.p %Xz -X9X .[ ;X) wX,XD E e       . X   O w r # . y v.x.W c.b.Q b.b.M.Q c.Q M.x.Q c._.",
"k.v.m.k.n.x.~.b.E Q n.v.R j.% . C H +.( qX-X( T.*X X<X{ F     : D z.b.n.j.H i e y H Q x.v.M.c.c.Q b.x.Q v.N.b.Q Q x.n._.",
"Q x.Q / k.b.(.l.c.R b.v.Q x.W 2 . p | _ 9X%Xl ;X} 2XoXB     m x.v.Q v.n.x.N.b./ W W Q / c.Q C.k.c.c.Q M.N.Q !.Q x.Q !.B.",
"/ Q x.x.k./.!.x.j.W c.v.Q R k.c.,   ( ( 8XT.k $X X5X[ -   V x.c.x.W n.c.c.x.M.c.W R c.^ k.W !.k.x.Q n.Q Q n.n.v.Q Q !.F.",
"x.M.x./ n.(.v.Q K k.W x.x.R Q b.P - h ' -XO.| { OXOXC   d v.v.T A m S B V J P k.v.R Q v.Q Q ^.k.Q Q n.M.~.N.b.!.M.N.!.F.",
"Q M.Q M.!.^.v.M.i 9 m k.x.R W Q ! K 1 | +X{ | 2X4XA O 9 V ;                   X e a V C.! ! ^.n.^ W c.~.!.M.N.!.Q b.n.B.",
"M.Q v.x.(.n.M.v.W z.< 0 R R J t j h.w z f f * g . ;         $ 4     & :.,.N             < H (.~.n.~ x.(.v.Q N.!.c.n.b._.",
"Q b.N.b./.x./ v.R c.Q u , m + -   % o 5 3.5.3.3             2.i.4   #.p.p.,.. $ t.1.        Z Z.b.c.!.~.M.x.b.b.!.b.v.K.",
"N.!.M.C.!.Q R x.Q k.k./ ,     +     5 w.y.y.e.s.$       > $ r.u.6   <.f.q.$.  %.p.,.  8 =.#   D c.b.~.!.v.c.N.!.n.b.c._.",
"n.b.x.!.b.W ^ Q Q / k.v.B           4.0.e.e.r.e.;.    8 :.7 i.p.5 . 7.g.g.$.  $.p.,.  2.6.4   O h.v.!.v.c.c.n.!.n.b.b.B.",
"n.n.n.C.x.Y x.~ W k.C.~ t           d.0.e.r.r.e.1.    >.:.7 u.q.5   7.8.9.@.  $.f.<.. 2.(.      . 0 Z x.M.c.n.b.C.n.x.L.",
"b.c.!.b.W ^ c.Q k.!.k.R t           w.0.a.r.r.e.1.    >.:.7 p.q.#.  7.9.9.&.  $.f.<.  6.i.        % e T Q b.b.c.!.b.Q L.",
"c.m.!.n.Y c.b.x.n.C.Y Y m           3.0.a.e.e.y.#.    -.2.> p.p.$.  7.8.8.@.. $.f.,.  1.i.#     S k.v.R v.v.b.M.~.Q c.K.",
"k.x.n.n.Y b.b.c.!.c.Y R t           3 s.d.a.e.1.      $ 6.$ i.p.,.  *.g.g.&.. %.p.1.  >.6.2   t c.Q W W b.c.v.c.n.Q b.K.",
"/ x.v.n.Q n.v.n.n.k.R m 2 r O %   .   & $.3.#.          4 2.i.u.,.  3 q.f.<.  3 u.6.N >.:   0 W Q Y W Q x.b.c.c.n.v.c._.",
"c.k.c.n.v.b.n.b.b.Q a ; j.Q S < r D r l l @       O       2 :.r.6.7 3 6.u.t.n -.<.-.8   % V W W Q W Q Q Q b.c.Q b.c.Q L.",
"v.k.x.v.c.v.C.v.S ; r l.c./ v.Y c.z.q ] =X( X.,X,XB O , s O     4 7 6 6 4 4 $ . + 9 a J x.Q Y Y W Y W n.Q x.v.Q b.b.W B.",
"v.c.x.c.c.C.b.x.C x.c.c.k.c.v.Q l.0 f ] 9X .T.|.<X.Xi   S x.L V V r a r p B D T ~ v.R W v.~ R ~ Y W ! M.n.Q c.Q c.c.Q _.",
"v.x.c.x.c.!.b.b.x.c.x.c.Q c.c.v.w   U ( 9X@Xk @X X6XU ; + D x.x.v.x.x.c.Q x.x.v.R n.~ Q v.~ Y R Y x.W Y !.Q b.Q Q c.n.F.",
"x.b.x.x.n.~.v.c.n.x.b.c.x.x.x.e   u  .( ;X@Xh ;X} 4XoXG   X B k.b.x.x.x.x.x.Q n.W v.Q c.k.R Q ~ Y Y b.Y b.n.x.b.Q n.b.K.",
"k.n.k.Q !.!.x.Q n.!.v.v.k.k.0   s H ..' -X;Xz +X%XoX3X) y     w z.k.x.Q Q K B i s h.k.v.k.R c.Q Y Q b.c.c.~.x.n.b.!.Q K.",
"Q C.c.c.!.!.c.Q v.!.k.b.T ;   9 v.s %Xz -X0X ...-X{ wXoXA A :     % w 9 O   , , X   B v.W W x.C.Y x.Q !.x.!.b.c.!.!.Q _.",
"n.c.n.n.!.!.n.x.!.n.b.Z + r D h.v.p =Xl -X0X| ` X.#XOX2Xk k.C.V #       w j.W Q E # t v.k.k.Q !.b.Q Y ~.n.!.n.W n.c.b.D.",
"n.k.n.n.n.!.n.C.!.b.d : P n.n.x.x.G +Xf &X-X .%Xh %X|.<X XW n.x.B.S , y / !.R x./ z.n.k.k.b.W b.!.x.! !.!.!.!.x.!.b.b.[.",
"c.W b.n.c.n.b.b.n.e w v.v.b.b.N.c.z +X+.| &X| &X .#X) 7X2Xw v.b.b.v.Q b.k.!.Y x.n./ C.n.k.x.v.k.!.n.W !.!.!.n.!.!.b.b.[.",
"v.W v.v.x.n.v.c.9 e c.v.v.v.v.c.v.U XXXX{ *X| 8X} %XX.eX5Xc # S b.b.n.x.c.v.W x.n.x.b.n.l.k.C.Q n.!.b.!.n.!.b.b.n.b.c.L.",
"x.x.c.k.x.c.c.K : x.c.c.c.c.c.c.k.] XXXX#Xf +.8X .8XXX4Xc OXC O % S c.x.Q c.x.x.b.b.c.n.v.v.n.c.b.b.b.b.b.n.b.c.b.b.M.B.",
"x.E x.k.k./ x.W W x.x.x.x.x.k.x.L  .XXXX+.h  .8X&X8X+X,Xg c V L : c.x.c.W x.c.v.v.v.v.v.v.v.c.v.b.b.c.b.b.c.b.c.c.c.M._.",
"Q Q W k.W Q W Q Q Q c.Q x.k.x.k.R  .+XXX .} ` -X:X&XXXOX}.1XM Q L x.x.k.W k.Q c.c.x.c.x.x.c.c.x.c.c.c.x.c.c.b.b.Q Q Q D.",
"Q Q R Q Y ^ R ^ W Q c.Q Q x.Q Q T | +.R.XXX.` XX..qX+XoX}.wXG Y b.Q k.R Q R W k.c.Q x.x.Q x.b.x.x.b.Q x.x.b.v.c.Q x.c.D.",
"W x.Y ~ Y Y Y ^ ~ c.Q W W Q W Q A | 8X%X .8X*XX.} 9X] oXOX3XM / n.k.W Y R R W W Q x.Q c.Q W Q n.Q v.Q Q x.n.Q c.W Q b.o.",
"c.^ R Q R Y Y ~ / c.W W W W W W Y } 8XO.*X&X9XI X.&X' rXeXoXP b.c.c.R R R W R R ~ M.R m.x.R R b.x.c.W R c.b.x.c.W Q b.o.",
"v.Y c.W ! Y Y Y W b.W Q W W Q W j.I 8X%X8X&X8XU | &X|.rXeXk / !.k.c.R k.Y W k.R Y Q Y R b.R R x.v.Q Q Y c.b.c.x.x.Q c.D.",
"c.Q v.! Y ^ Y R Q b.W x.W N./ / W x &X-X8X8X*X| -X+XOXrX.Xh.c.n./ m.c.W R R Q k.R Q W R l.k.W k.b.Q Q W c.v.c.Q c.x.x.K.",
"x.c.x.R x.Y Q ~ Q c.W x./ c.Q Q R m :X8X8X8X+X+.qX) 6X}.T x.c.b.k.m.l.~ k.Q Y k.Q Q Q R / k.k.W x.x.Q Q x.v.b.v.b.x.b.L.",
"c.b.Q k.Q R Q Q Q M.Q Q c.b.Q b.x.K [ 8X8X-X .#X8X1 i k.x.x.c.c.k.x.Q Q Q W R W k.~ Q Q ~ l.m.~ Q Q Q x.Q c.b.b.b.c.v._.",
"b.b.Q b.W R Q Q Q Q x.Q b.M.b.N.v.x.j -X-X#XI &XT.B k.Q x.Q M.Q k./ Q Q / Q Y Q / W k.^ ~ N.W Q W Q W W b.x.n.b.b.b.b._.",
"b.b.b.M.^ ~ ^ Q / W W x.b.b.b.b.v.v.T ) &X .&X&Xh ~ W W ^ Q / Q Q ^ Q W Q Q M.Q ~ Y c.Y ~ b.Y k.Y Y c.W N.b.n.b.b.b.b._.",
"b.b.b.^ M./ ~ ^ c.! ~ c.b.b.b.b.b.b.c.V } &X&XI M ! ~ W / ^ Q Q M.R Q Q Q ^ b.x.~ Q c.R k.c.W Q Y Y b.Y / b.n.b.b.n.n._.",
"b.b.n.~ ! n./ ! !.! ~ n.b.n.b.b.b.b.v.x.G k l P ~ Y ~ Y Q / Q M.x.W Q v.Q Q c.b.Q v.c.Y v./ c.Q ^ M.v.Q ! b.C.b.b.!.n._.",
"`._.].H.o._.{.G.].P.H.].`.]._.].`._._.G.U.o.G.H.H.G.G.G.E._.I._.U.P.P.`.U.P.I.`.I.`.I.R.`.R._.]._._.U._.G._.{.`.].].].{."
};
