/* XPM */
static char *_dd9faab55c248f7ba657921a5e97ad4bKco4T8wNCUlGXFb[] = {
/* columns rows colors chars-per-pixel */
"60 60 221 2 ",
"   c #17151F",
".  c #1D161E",
"X  c #1D181F",
"o  c #23161E",
"O  c #29171D",
"+  c #24181F",
"@  c #2D1A1F",
"#  c #361B1D",
"$  c #3D221F",
"%  c #171620",
"&  c #1A1721",
"*  c #1E1821",
"=  c #201720",
"-  c #221922",
";  c #2B1B21",
":  c #331D21",
">  c #3A1D20",
",  c #392121",
"<  c #411D1B",
"1  c #48261E",
"2  c #54291E",
"3  c #6E341D",
"4  c #492922",
"5  c #583123",
"6  c #673923",
"7  c #763B23",
"8  c #3B4D2D",
"9  c #3D5230",
"0  c #77461F",
"q  c #41532F",
"w  c #435632",
"e  c #465A34",
"r  c #4A5D34",
"t  c #4B5A35",
"y  c #565C33",
"u  c #784122",
"i  c #4C6335",
"p  c #4E6339",
"a  c #4F6937",
"s  c #536539",
"d  c #546B3A",
"f  c #5B6C3D",
"g  c #566637",
"h  c #5C713C",
"j  c #63673B",
"k  c #6D6C33",
"l  c #5E7342",
"z  c #677341",
"x  c #677844",
"c  c #646F40",
"v  c #86491E",
"b  c #995C1F",
"n  c #AA5F1F",
"m  c #94661F",
"M  c #AB6F1F",
"N  c #864723",
"B  c #8A5422",
"V  c #9B5B24",
"C  c #965623",
"Z  c #A75C22",
"A  c #9C6220",
"S  c #97772B",
"D  c #AA6523",
"F  c #BC6D24",
"G  c #B56924",
"H  c #BC7425",
"J  c #B67325",
"K  c #A77621",
"L  c #C77E1F",
"P  c #C47A24",
"I  c #CA7D24",
"U  c #C27424",
"Y  c #6C8647",
"T  c #738C4B",
"R  c #75974B",
"E  c #749E53",
"W  c #73944F",
"Q  c #6FA44E",
"!  c #72A54F",
"~  c #76A84E",
"^  c #7CAB4E",
"/  c #7CA64F",
"(  c #6FA451",
")  c #72A550",
"_  c #76A850",
"`  c #7BAA51",
"'  c #7BA751",
"]  c #7DAA63",
"[  c #AA8629",
"{  c #B78A26",
"}  c #AB8F31",
"|  c #BBA93F",
" . c #94822F",
".. c #D9961E",
"X. c #CC8F1D",
"o. c #E29C1E",
"O. c #E0961D",
"+. c #E4A31E",
"@. c #E9A51D",
"#. c #EAAB1E",
"$. c #E6A91F",
"%. c #EEB21E",
"&. c #F0B51E",
"*. c #CE8324",
"=. c #C88722",
"-. c #D28525",
";. c #D58B24",
":. c #D88B25",
">. c #D69122",
",. c #DB9323",
"<. c #DD9B23",
"1. c #DD9628",
"2. c #D59823",
"3. c #C99725",
"4. c #E29D23",
"5. c #E39C26",
"6. c #DDA224",
"7. c #DBA729",
"8. c #D6AB33",
"9. c #CBB33D",
"0. c #DDBB3B",
"q. c #D6B73A",
"w. c #CCAE3B",
"e. c #E4A423",
"r. c #E9A623",
"t. c #E5AA24",
"y. c #EAAD24",
"u. c #E5AE2A",
"i. c #EBAC29",
"p. c #E8A528",
"a. c #ECB324",
"s. c #EEBA26",
"d. c #E5B32D",
"f. c #EBB42A",
"g. c #EEBB2B",
"h. c #E6B126",
"j. c #F1BD24",
"k. c #F0BD29",
"l. c #F0B721",
"z. c #EBBC32",
"x. c #E3BC3B",
"c. c #E4B634",
"v. c #E4AF32",
"b. c #D9C33C",
"n. c #CEC23F",
"m. c #EEC12D",
"M. c #F3C325",
"N. c #F6CC25",
"B. c #F2C32B",
"V. c #F5CC2B",
"C. c #F7D026",
"Z. c #F7D12B",
"A. c #E7C438",
"S. c #F2CC33",
"D. c #F2C632",
"F. c #829C4A",
"G. c #82AE4E",
"H. c #81A24D",
"J. c #94AE4D",
"K. c #9CAA48",
"L. c #86B04E",
"P. c #8CB34D",
"I. c #91B64D",
"U. c #95B94D",
"Y. c #9BBC4C",
"T. c #9BB34E",
"R. c #82AD51",
"E. c #8BAD53",
"W. c #87A455",
"Q. c #94AD54",
"!. c #87B151",
"~. c #8AB251",
"^. c #94B352",
"/. c #98B855",
"(. c #A5AB4A",
"). c #A5B44C",
"_. c #A1BE4C",
"`. c #ACB74B",
"'. c #B8B947",
"]. c #A5BB53",
"[. c #B5BE55",
"{. c #84AF6F",
"}. c #82AF61",
"|. c #8BB463",
" X c #86B06F",
".X c #8CB36E",
"XX c #86B064",
"oX c #95B962",
"OX c #9CBE62",
"+X c #92B76E",
"@X c #95B96E",
"#X c #9CBD6D",
"$X c #95B565",
"%X c #86AF70",
"&X c #8AB271",
"*X c #92B770",
"=X c #97BA70",
"-X c #AEBE6C",
";X c #C4B944",
":X c #CCBC44",
">X c #C6B647",
",X c #D5BB46",
"<X c #C8AE44",
"1X c #E1B842",
"2X c #A2C14B",
"3X c #A6C24B",
"4X c #A4C24B",
"5X c #ABC54A",
"6X c #AFC647",
"7X c #B3CA49",
"8X c #B6C849",
"9X c #A8C25B",
"0X c #B8C251",
"qX c #9FC068",
"wX c #A4C26C",
"eX c #AAC56B",
"rX c #ADC86A",
"tX c #A6C461",
"yX c #ACC774",
"uX c #C7C345",
"iX c #D7C844",
/* pixels */
"wX#XwXqX%X&XrX+XrX@X#XwX#XeXrXwXqXqX=X{.@X*X@X.X@X$X-X.X*X#X=X=X#X*X*X#XwX.X*XwXqXqX*X=X-X{.#XwXwX#X+X-X] wXwXwXrXeXeXyX",
"Y.Y.I.2X` ( 5XY.3X~ Y.U.U.Y.3XY.U.2X~.^ L.P.P./ T.<X1XE.R.L.Y.E.Y.L.P.L.Y.P.L.U.U.U.~.I.Y.P.P.Y.3X_.Y.5X~.2X4X/.3X5XU.tX",
"U.2XU.4XY.! 5X2X5XL.5XL.5XY.Y.U.Y.U.L.U.` U.T.E.Y.c.c.>XP.Q.I.P.U.L.P.L.U.U.I.I.L.Y.^ U._.U.I.Y.4X_.6X3X5XY.4XY.3X7X2XtX",
"U.4X4X4X5XU.5XY.Y.H.5XP.3XL.3XU.!.2XI./.`.I.:X1X'.v.f.c.:X0.P.P.P.P.P.P.~.I.U.U.L.G.^ U.P.U.U.U.Y.6X4XY.Y.Y.Y.4X5X5X5XtX",
"Y.Y.Y.6XY.Y.5XU.G.G._.G.U.' /.^.R.x.`.,XS.;XA.m.g.v.f.z.g.z.`.E.E.G.G.L.G.G.L.Y.G.~ P.P.! Y.Y.G.I.7XY.U.Y.U.Y.5XY.3X6XtX",
"P.Y.L.5XL.P.5XP.~ 5XL.G.I.Y.iX,X'.z.x.A.m.S.D.B.D.f.f.f.z.k.:XR.E.G.T.^ G.I.G._.L.) I.G.Q 5XU.^ P.8XY.P.P.5XU.5X6XU.7X/.",
"~ U.G._.P.~ 5X~ P.4X) ` 4XR.[.z.z.z.z.z.B.B.m.D.B.k.k.k.k.g.0.E.Q.Q.,X_ ' ^._ I.U.( Y.G.^ _.5XP.P.7X_.P.I.5XY._.3XU.5XqX",
"! P.P.I.U.^ 4XQ Y.U.^ 4XT.~.].:Xz.f.k.g.k.D.V.B.B.B.k.z.k.s.0.W.).,X,X^.) P.).(.4X! 2XU.I.I.I.8XG.7X5X^ 3XY.5XL.U.Y.U.tX",
"L.L.U.L.Y.G.Y.^ Y.G.Y.:Xz.z.A.>X1Xk.i.k.k.k.D.z.D.B.k.k.k.k.,X(.`.m.x.[.G.q.f.x.Y.Y.5XU._.L.P.5XI.Y.3X^ 5XY.3X~ P._.U.9X",
"I.L.Y.L.Y.P.Y.P.3XG.8Xz.m.B.k.k.z.z.i.i.f.f.k.z.B.B.k.f.k.k.z.(.;Xk.0.3X0.s.g.g.5X8XU.P.Y.^ U.Y.Y.P._.L.Y.L._.~ I.U.P.qX",
"U.I.U.I.U.I.U.U.,XA.iXz.k.B.B.B.k.i.i.p.i.p.v.p.l.k.f.i.k.V.N.D.c.B.g.c.s.k.k.u.uX5X'.;XU.P.I.I.I.P.I.I.U.G.7XP.L.U.U./.",
"P.P.I.Y.P.I.P.0X>Xf.m.B.s.k.g.f.k.i.p.5.5.1.8.1.5.p.p.p.i.M.B.B.B.k.s.f.k.f.f.f.x.z.f.0.P.P.P.L.P.I.G.G.L.^ 7XY.L.P.P.oX",
"L.L.Y.U.P.L.~.8Xd.f.i.f.f.a.B.B.k.i.5.I -.I -.1.-.-.1.1.:.i.i.j.k.k.k.s.k.j.s.s.f.f.s.<XL.^ ^ G.~ U.^ / / P.2X5XL.P.~.oX",
"L.L.3X^ G.G.4XP.x.f.f.f.i.i.N.k.k.5.1.:.U H V J U D H A V 1.-.1.l.a.k.k.l.k.s.s.s.f.g.(.U./ I.! ! U.! Q / U.U.8XP.G.~.E.",
"~ I.U.^ L.Y.I.G.'.g.u.f.i.i.a.p.5.1.I I H N 6 4 6 4 5 - ; A G -.:.e.f.M.p.p.a.k.y.s.0.P.I.! / _.~ J.P.Q Y.G.L.7X4X~ Y.XX",
"! Y.Y.Y.G.uX;X9.:X0.f.i.i.4.5.5.:.-.I I J 4 - - - - - - * - 4 N V ,.i.y.,.4.y.f.y.B.[.T.P.G.) _.P.G.Y.! 3XQ Y.8X7X) 5X|.",
"P.Y.~ 5X4Xq.g.d.f.s.f.u.5.5.:.-.I U D V N - - - - & - - - - - - u *.>.P =.5.t.a.k.S.iXY.Q Y./ I.Y.^ Y.~ Y.) 4X7X6XI.Y.OX",
"U.P.! I.Y.Y.0.f.g.g.g.d.5.I I U U Z N > - - - - - - - - - - * - = @ 7 V -.<.<.u.B.S.0X_.] P.U.U.U.L.U.U.U.L.U.3X5XY.Y.OX",
"P.P.^ P._.5X).d.u.u.t.e.1.-.F Z C 7 : - = - - - - ; - ; ; - - * = * ; B *.*.>.f.D.:XJ.].' ^ I.U.P.L.2XP.L.L.I.U.P.P.U.qX",
"U.L.G.R._.5Xn.u.u.t.e.<.;.;.P G N > - - & = - ; ; - - - - ; - - * * o 6 V H t.B.k.f.x.0XP._ P.I.^ U.U.L.^ P.^ L.L.^ U.qX",
"` U.^ ~.iXS.m.s.u.t.t.<.,.P F G C ; = = & = - - & & % * - - ; - * = * 1 J 6.t.4.y.y.k.S.[.E.I.P.L.U.L.^ L.P.U.^ ^ L.U.oX",
"^ P.R.:Xm.B.m.m.h.e.p.<.,.U n C 7 ; & & = - = & & & & % * & ; - = = . B 5.6.I 5.y.k.V.j.g.:X_.G.L.P.^ ~.L.!.5X^ L.^ 3XoX",
"^ G.!.'.d.h.a.a.a.t.e.<.:.U n v 4 & * * & - = % % % % % & * - ; + . o 6 P f.k.M.V.k.y.a.s.:X5X^ L.^ U.L.L.U.2X~.^ !.3X|.",
"R.R.G.R.'.8.t.g.V.B.s.y.,.I G v : & * & = = % % % % % % % & * - + o . o B 1.s.s.4.o.y.a.q.R.6XG.~ ^ Y.L.5XL.I.2XL.~.2X|.",
"L.G.!.^ 9X0XA.B.s.y.e.<.;.*.G Z 4 . . . = = &   % % % % % & % - @ X . . M >.y.k.4.#.y.c./ ! 6XY.~ ! P.5X5X!.L.2X^ U.U.|.",
"^ R.P.!.7X3Xd.y.a.y.p.e.;.H Z v # . . . = = &   % % % % % & * - O . . o C 4.o.s.r.4.+.r.8.K.7X5XU.~ L.7XI.^ ~.4XP.2XU.OX",
"!.U.P.Y.7Xq.g.y.t.t.e.4.;.L Z 7 # o . . = = =   % % & & % & * ; @ X X X 5 F ..t.s...4.+.#.h.uXY.U.I.Y.5XL.L.U.U.2XU.~.OX",
"L.2X^ 3Xb.g.a.a.r.e.o.,...*.G C 1 = . . o - =   % % & % % * - , o o . 1 =.$.s.V.B.,.+.+.t.y.z.5XI.U.5X4XI.~.I.3XU.U.I.OX",
"Y.U.P.3XU.(.d.s.a.r.,.:.I U J n 7 O + . = = : ; o = & & * ; , ; o o o 0 k.V.V.V.>X8.a.a.k.m.iX3XP.I.2XU.P.P.Y.2XY.U.U./.",
"_.Y.U.Y.P.w.7.e.+.<.........=.n 7 # o o o o = ; ; ; ; : , : ; - o . o m z.B.s.3.{ `.J.'.)._.^ Y.P.U.Y.U.!.P.Y.U.2XY.L.OX",
"U.P.2XY.q.7.<.6.t.%.#...L n b Z n 0 o o o o o o O - ; : ; O - - . o < A r.4.+.y.e.a.<XI.U.P.^ Y.U.P.U.L.^ U.U.P.3XI.^ OX",
"P.G.2XY.J.uXd.a.y.....;.=...>...,.=.v # O o o O o o O O o = = = . # G e.4.O.@.y.t.a.g.q.I.! L.P.P.P.I.! P.U.U.L.3X^ P.qX",
"^ G.Y.Y.) ;Xu.6.6...<.h.%.%.s.M.l.4.=.v 2 o O o o O o o o O o o # m &.&.a.O.O.4.+.t.s.s.>X) P.^ P.^ ~ / I.P.I.P.Y.^ U.oX",
"^ P.I.Y.(.7.6.6.6.s.M.M.s.N.M.M.l.l.l.a.C 2 # o O o o O # O o < v =.M.N.M.y.O.o.+.r.t.h.8.J.G._ L.! Q ` P.U.L.P.Y.U.P.qX",
"P.G.P.U.P.Y.'.'.b.V.M.M.C.N.N.N.N.N.M.r.<.D b # O O O O # { K H $.s.N.N.N.M...o.+.+.6.} k T ~ ~ ^ Q G.^ L.P.P.^ U.I.G./.",
"I.G.P.U.P.U.2X`.V.M.V.C.C.N.N.N.V.M.l.l.M.M.M.K v < 2 b X.m.$.l.M.m.N.N.N.N.o.o.o.+.6.w i i x E ! ! ! Y.^ G.I.^ I.U.` |.",
"P.P.P.P.P.Y.Y.A.S.Z.Z.C.C.N.N.s.l.l.M.N.N.N.N.y.L ....s.M.N.y.N.N.M.V.V.Z.B.#.#.+.$.t.y r i a h W ! Q P.U.^ P.^ P.P.L.|.",
"I.P.L.L.P.5X'.S.Z.V.V.s.s.h.#.$.M.C.N.N.N.N.M.@.M.M.M.N.C.k.@.M.N.N.Z.Z.Z.a.#.&.&.M.g.k s r e i a R ! ! 2XG.U.G.L.P.Y.|.",
"L.U.L.L.Y.5Xd.y.u.q.;Xh.$.$.#.%.C.N.C.C.C.C.a.M.N.N.N.C.Z.@.#.N.C.N.N.Z.V.o.o.} [ }  .y w y e r i i G.Q U.Y.L.I.^ U.U.oX",
"G.Y.^ G.4X5X(.).].Y.9.%.#.$.%.V.Z.C.C.Z.Z.M.&.N.C.N.C.C.M.@.&.N.C.N.M.j.a.@.+.S f e r e e 8 t r i e h I.P.3XL.Y.P.5X^ oX",
"^ Y.P.P.3X4XP.^ U.8Xm.s.#.a.x.Z.Z.Z.Z.Z.V.%.M.C.N.C.Z.Z.#.#.j.N.C.C.M.#.$.$.$.[ g g r r r r 8 q t w e W.E.3XU.P.4X2XP.|.",
"Y.I.Y.U.2X3XY.L._.b.B.z.9.'.[.Z.Z.Z.Z.Z.&.M.C.Z.C.C.j.&.#.%.M.C.C.C.M.#.@.$.#.{ r j t r i r q 8 8 9 w Y /.3XY.~ 2XP.Y.XX",
"2X^ Y.Y.Y.2XY.Y.2X'.2XU.P.U.Y.Z.Z.Z.V.j.M.C.Z.Z.Z.M.%.%.@.&.M.C.Z.Z.n.| o.$.%...k q j r w r w q 9 8 9 e Y.5XY.P.Y.U.U.tX",
"P.~ U.Y.U.Y.U.U.Y.I.U.U.I.U.I.A.V.M.a.M.C.Z.Z.Z.M.%.M.%.#.&.M.N.V.V.).Y.| ..#.X.S r e j r r r r t 9 9 9 F.2XY.2X4XU.U.tX",
"I.~ P.I.P.U.I.P.L.P.I.I.P.U.Y.k.s.#.>XV.Z.Z.Z.b.%.%.m.%.e.;Xk.%.m.A.U.P./ K ..X.[ s i g y e r e 9 p 9 e l 2XU.U.2XU.P.qX",
"P.L.I.G.L.P.P.^ L.P.P.P.P.P.'.s.a.w./ S.Z.A.b.^.y.#.m.+.8.G.q.a.`.U.P.L.^ y k S S a i s g k e r p e p e i U.U.P.U.I.~./.",
"P.~ L.^ L.^ L.~ ^ L.L.L.L.L.).d.q.G.! `.^._ ^ R.8.$.m.+.'.L.^ '.L.P.L.P.~ Y r y r i i a s c s e r p t p e E.U.P.L.L.L.|.",
"^ ~ ^ G.~ ~ ^ ~ ^ ^ P.^ L.^ L.T.G.G.' ~ ( ) ) ~ 9.6.h.7.I.L.^ ^ G.P.P.^ / ! r r r i i s a d z y e r e t w ' U.P.L.^ L.|.",
"~ G.! ~ ! ~ ! ~ ~ ^ P.^ ^ ^ ^ ^ ^ ^ ^ ^ ~ ( ^ Q I.7.<.| P./ ^ ! U.^ G.~ ~ ~ h r i e i i i d i f i r r r w H.I.P.^ ^ U.] ",
"~ G.! ! ! ! ! ! ( P.^ ^ ^ ^ ^ ~ ^ ^ ~ L.Q ~ P.Q ~ T.w.G.P./ ~ ^ Y.G.~ Q ! ! ~ f e i i i a h i i j d r e w R G.~.~ ^ U.] ",
"P.~ ! ~ ! Q Q ! _ P.~ ~ ~ ~ ~ ~ ^ ~ ~ I.~ ( U.^ Q ! 5XP.L.L.! U.I.I.Q Q Q / ! E d i a a d d d a i z i p p x G.P._ ^ I.] ",
"U.Q P.~ Q ! Q Q ^ U.~ ^ ~ ~ ^ ~ I.~ ~ P.^ ( ^ 2XQ ! U.2XL.I.^ 4X^ P.! G.Q ! G.! Q x a d a d d a d a x i i l G.G.L.^ ~.}.",
"P.~ I.! ! ~ ! ! ^ U.~ P.~ P.^ ~ ~ U._ P.L.^ ~ Y.L.! L.Y.P.P.P.Y.^ G.P.~ ! ! ^ L.Q ` R l d f d d a f h z p s R R.L.L.P.oX",
"L.I.L.! ^ ! ^ ! ^ P.~ ^ _ P.~ !.~ P.U.P.^ L.~ L.I.) L.I.U.P.P.U.^ !.L.! L./ ! ^ ^ / ^ Q T d d d d s s l f p T P.U.L.U.qX",
"P.U./ ^ G.! / ^ ^ !.^ L.P.U.!.P.L.^ U.^ ^ ^ ^ ^ P.L.L.P.P.L.P.P.L.L.` ^ ^ ~ Q ~ G._ ` _ ) H.T l f s d d z l x U.U.I.U.OX",
"U.U.^ U.~ ! ^ ^ ^ ^ L.^ P.P.~.U.P.L.U.^ ^ ~ ^ ~ L.^ ^ ^ ^ ^ ^ !.^ ^ ^ ^ ^ ^ Q ^ _ ~ L._ ( I.~ ' E W Y l f x x ^.U.U.U.OX",
"U.U.U.L.~ ~ ~ ^ ^ ~ ~ L.U.U.U.U.U.U.P.^ ~ ~ ~ ~ ~ ~ ~ ~ _ ^ ^ ^ L._ ^ ~ ^ ^ ~.^ ) ! P.! ( I.Q L.! ! L.) R.T x T /.T./.qX",
"U.U.U._ P.^ ( ~ P.( ( I.Y.U.U.U.U.U.P.!.~ ( ( ( ( ( ~ ~ ^ _ ^ ^ ^ ) ^ ^ ^ _ U.^ ! ^ P.! L.~.~ ^ ! ! U.! ` U.Y.W.Q.Y.Y.qX",
"U.U.Y.( ( OX` ( 4XQ ( Y.U.U.U.Y.U.U.U.^ ] ( ( _ Q Q ( ( ^ _ ^ P.L.~ ^ U.^ ^ ~.I._ ~.P.! I.^ ~.` ! P.I.G.( U._.U./.3XY.OX",
"wXqXrX.X] qXwX&XrX.X.XrXqXrXqXrXwXwXqX&XwX] &XqX.X X X X&XqX@XqXqX*X*XqX@X@X=XeX@XwXqX XeX&XqXrX#X#X=X#X%XwXeXeXyXrXrXyX"
};
