/* XPM */
static char *_8e2c76f5bcf47bff0a642ac21941fbbaO9QGeJdEKHRLfRw[] = {
/* columns rows colors chars-per-pixel */
"60 60 146 2 ",
"   c #6FA44F",
".  c #72A54F",
"X  c #76A84F",
"o  c #7CAB4E",
"O  c #6FA451",
"+  c #72A650",
"@  c #76A850",
"#  c #7BAA50",
"$  c #7EAC62",
"%  c #82AE4E",
"&  c #85B04E",
"*  c #8BB34D",
"=  c #91B64D",
"-  c #95B94D",
";  c #9BBC4C",
":  c #81AE50",
">  c #86B150",
",  c #8AB350",
"<  c #91B650",
"1  c #91B851",
"2  c #90B65F",
"3  c #95BA5F",
"4  c #A1BF4B",
"5  c #82AF61",
"6  c #84AF6F",
"7  c #86B064",
"8  c #8BB463",
"9  c #86B06F",
"0  c #8CB36E",
"q  c #90B663",
"w  c #95B962",
"e  c #9CBE62",
"r  c #95B76E",
"t  c #91B76E",
"y  c #94B86F",
"u  c #96B96F",
"i  c #97BA6F",
"p  c #93B96E",
"a  c #9FBE6A",
"s  c #98BA6D",
"d  c #99BB6E",
"f  c #9ABB6E",
"g  c #99BC6F",
"h  c #9CBD6D",
"j  c #9EBE6D",
"k  c #9FBF6D",
"l  c #9DBD6E",
"z  c #9EBD6E",
"x  c #9BBC6E",
"c  c #84AE70",
"v  c #88AF70",
"b  c #87B172",
"n  c #8CB370",
"m  c #8EB570",
"M  c #89B271",
"N  c #90B770",
"B  c #93B770",
"V  c #94B770",
"C  c #95B970",
"Z  c #99BB70",
"A  c #A0BF6D",
"S  c #AFC647",
"D  c #A1C04A",
"F  c #A3C14A",
"G  c #A2C04B",
"H  c #A3C04B",
"J  c #A2C14B",
"K  c #A3C14B",
"L  c #A2C24A",
"P  c #A3C24B",
"I  c #A4C14B",
"U  c #A4C34B",
"Y  c #A6C24A",
"T  c #A7C24A",
"R  c #A6C34A",
"E  c #A7C34A",
"W  c #A6C24B",
"Q  c #A7C24B",
"!  c #A6C44A",
"~  c #A7C44A",
"^  c #A7C54A",
"/  c #A6C44B",
"(  c #A7C54B",
")  c #A1C14C",
"_  c #A2C04C",
"`  c #A7C24C",
"'  c #A4C24F",
"]  c #A4C24B",
"[  c #A8C449",
"{  c #AAC549",
"}  c #ABC649",
"|  c #A8C44A",
" . c #A8C44B",
".. c #A9C44B",
"X. c #ABC44A",
"o. c #A8C64B",
"O. c #AAC64B",
"+. c #ACC648",
"@. c #ADC749",
"#. c #ACC64A",
"$. c #ACC74B",
"%. c #A8C44C",
"&. c #ABC54A",
"*. c #AEC849",
"=. c #B0C745",
"-. c #B2C947",
";. c #B1C748",
":. c #B1C848",
">. c #B1C949",
",. c #B3CA49",
"<. c #B9CF48",
"1. c #A5C25F",
"2. c #9FC061",
"3. c #9FC06F",
"4. c #A3C162",
"5. c #A7C561",
"6. c #A3C262",
"7. c #ABC760",
"8. c #ACC860",
"9. c #A5C26A",
"0. c #A4C26B",
"q. c #A6C26A",
"w. c #A6C26B",
"e. c #A6C36B",
"r. c #A7C36B",
"t. c #A6C46B",
"y. c #A7C46B",
"u. c #A3C16C",
"i. c #A1C06E",
"p. c #A1C16E",
"a. c #A2C26E",
"s. c #A5C06C",
"d. c #A6C36D",
"f. c #A7C36D",
"g. c #A7C46C",
"h. c #A2C16D",
"j. c #AAC46B",
"k. c #AEC66A",
"l. c #AAC56C",
"z. c #AAC66C",
"x. c #AEC969",
"c. c #AEC86A",
"v. c #ADC86B",
"b. c #B0CA6A",
"n. c #ACC779",
"m. c #A9C77A",
/* pixels */
"p.k l.3.6 9 x.r k.s f A A A 5.r.A p.i 6 f t r 0 r 0 r v N A V i A r 0 s A V r 0.Z a f i A v A A A A r A v A j.A b.A k.n.",
"; ; * / o . | ; 4 o 4 - ; 4 T - - L * o % * * X - @ * # % % - * ; % = % ; * % ; - - * * ; * * ; 4 4 ; X.* 4 4 ; 4 ;.4 8.",
"- L = P ; . | ` 4 * 4 * 4 ; ; - ; - & - % = = % - = % & * : = = - & = % = = < = % ; o - 4 - = - 4 4 ;.4 [ 4 4 4 4 <.4 8.",
"- P ` P | - | ; 4 & 4 * S & T ; % ; * = = = * * ; * # * % % , * = & * * * = = ; * % % = * ; - - 4 ;.S ; 4 ; ; 4 4 =.4 8.",
"- 4 ; @.; ; R - % & 4 % = : ; * + = * * 4 * * = - % * = o * % % % & % % % % % 4 % X * * . ; 4 % = ;.4 = ; ; ; @.4 4 <.e ",
"* ; * @.* * [ * % 4 % % = ; * X o % & % - * % - * o ; % % & % % o % % % % = % 4 * + = % . [ = % = ,.; * * ..= X.4 = =.e ",
"X - % 4 * X | o & 4 . : 4 & ; . o o o X & * . - * % - & X * % % : X & X . = # = - . ; o # 4 ;.* * ,.4 , = X.; ; 4 - 4 e ",
". * * = = o R   ; = % ; * * 4 .   = O . o * . * = * & - X * % + ; : % = . * % & ; . 4 ; = = * ;.: ;.[ % [ - [ * 4 4 4 e ",
"% % - * ; % 4 o ; % ; 4 X X - * . ; + . X % X * % % % - * * = & = % % [ X = = % 4 4 4 = 4 & = 4 = ; 4 : 4 4 4 % * 4 = e ",
"= * ; % ; * ; * ; o @.- . . % ; X = * # + o @ ; o o * * - 1 ; - * * & ..; * ; % 4 <.- * 4 % - ; 4 * 4 % 4 * 4 . = = - e ",
"- = = = = - = ; = * @.* . . . ; X % ; X X + X 4 # . % = * - = ; * * * ; ,.= = = =.4 = * = * = = = * = * = % 4 = % = - e ",
"* * * 4 * * = [ * = [ o . = . = % . | X . . X 4 *   # ..o - = * 4 = # 4 ,.- % 4 -.= = = * & * % & = & & * * <.4 % = = 3 ",
"& * ; - % * , X.* = 4 # * - . % = ; 4 = .   = = = O & = ! & = * * 4 X 4 ;.= > ;.4 % 4 % & % : : o - % X X < 4 4 * % % 2 ",
"% % R % % % 4 < - * ; # -.& . # ; ,.* ; - X - % ; % % & ! ; * : % X.* 4 4 * 4 4 4 = 4   = X = . . ; .   X < = <.= % % 2 ",
"o * - o % ; = % 4 * = ; -.# . X @.4 * = 4 ; & o ; * - > ; L - # X 4 4 ; 4 = 4 4 * ; = * = . : 4 . < *   ; % * <.4 % 4 2 ",
"X ; ; ; o ..* + ; , ; ;.4 X . * ,.= * * = ; & X ; o - * * ; ; % X ; ; ; ; ; ; 4 , ; = ; * % . 4 & % 4   4 . 4 4 4 % 4 2 ",
"& ; . @.4 * = * = = [ =.- % X 4 @.& * * & - - o ; o = - * * - - = - - ; = - = - = - - ;   - # * ; o ; o ; + R @.>.* 4 e ",
"- = . - 4 ; % & * - [ S = o = 4 - % & * % * * * = & & - * o = - = = = = = = = = = = = ;   * = ; - % - - = % ; R R ; ; 1.",
"* * o * 4 R * & o ; 4 4 % o 4 & - o & , % & * * & & o - * > & * ; * = * * = * = * * * ; o # = ; * & 4 * * & * - * * - e ",
"= & % % 4 4 ; - X ; 4 - o = & - * o o & & * & - & & & * - o & & - * = % - = % = % % % = * X * = % = - % % * % % % : 1 e ",
"% = % o ; * [ ; X % ; = . - . 4 * o o % ; o * - o o & & U o o > = * - ; = % = % % o % % = % * * % - & % * , - : : % ; w ",
"o * % o % - <.% * . - = % % % - % + o - = X - * X X - X / , # , = % = 4 * * = % X o X o * % ; % & * # & % : R % % : | 8 ",
"# & & o % =.Y * = . * = o   % = o . = * & % * & + o - X ; * & * % . = & * % % = X . * X % # R % o > ; & : ; ; = : : | 8 ",
"& # % > = <.- % % & . % %   % = X o = o X *   * % & * o = = - * % % = % & % X % - . o = o X S % o o ; o @.* = 4 : , P 8 ",
"# & > o / *.- > % =   % &   o % + o % o o X X * * * * * * = = * % % * . %   . . ;.. , 4 . . =.; . X , X.R % , ` : - ; 8 ",
"# > * > ,.; & * . = . = .   .     & & % @ . o & > > = & & = * & X = % . %       ;.@ * X.. . ,.4 - X * ,.* : * 4 * ; - w ",
"& - , ; -.& # =   = # * .   . . % o X * X X & & o & - & o ) o o % = X * X = .   4 = * ;.. o =.4 - * R @.* % = ; L - = e ",
", D o U R o X & # % % # .     . o * X - . =   = o o = * - ; .   4 = & * . - %   = % = ; . * S 4 * - | L < * , P ; - * e ",
"; = * R - X X # # X * * + . O   + ; X -   - X - & o * = 4 ;   o ; o - * . # 4 . * & - % % ; 4 - * = R - * * ; 4 ; - ; w ",
"4 ; ; ; &   & . . * 4 + . . o . + - % ; o = * = * * ; ; ; ; + * - & 4 % o o = & # = : = & ; o 4 * = ; = % = 4 = 4 ; & w ",
"- * ` - o X * o # 4 %   . . =   . 4 = = * & - * = ; * * * ; , * = = - & o % % - X * . = - * o ; - * ; & o ; ; * R * % e ",
"* % 4 ;   * - : 4 4   .   = * . o 4 * % = = * & & = & * * = - * - - X & o %   = o # . = = X & = * & * X * = = : L % * e ",
"% % ; 4   - - * 4 * .   o 4 + X & - * o - * o o & * > * o = & = = * o o o %   % X O . * # . * # * o X o * * * * L o - w ",
"# % = ; o ; = ; ; % . X - * X % * = % = & o X o & & X % o & & = * = o X . o . . o     % . # % X & .   # * - & * ; = * e ",
"* % * ; * - ; - - % . * - o = . * * - * * X . - X * o @ & % & - o & o X   . .   @ % .   . & . X o + % o % = * & - = % w ",
"= % * = * - D - = * % = = # = . * = = % - & o * * o * o = & * = * o & o . o o o + , O . & o   . .   . ; o % * o = = o q ",
"* * * & * D - * * * * * % * = o * = * * = & * & * & * * * * * * * * o *   % * &   <     = . .       . * - o * o * * % 8 ",
"= * * & * ! - = * & * * o & * - - , , * * * - % & * * & & * & * - & > & # & & -   ;   % - .       & . . L % - % % * ; 8 ",
"% - % % ; R * * - : - * & % * L * * & * & * * & & & & & & * & o - & > & & & & ; % < % * *   %     . - . - ; & - % ; = w ",
"% ; % % R R & % ; P = = % % ; ; - % o * o * * % o & o % % * & & - % o & % o o * & & % * % . * o . o - * * | & ; * R % 3 ",
"o ; = * [ 4 = o = ` % - % * 4 * - # % & % > % o % % # % o % - % * % % % % & % & < % % = . X & 4 . & o U & ^ - & L ) , q ",
"; = ; - R L ; % R ; - = * = 4 % = o - o # % o o % # o * o : ; & = % * % o - X o * - % * % % % 4 - o . U - ^ ) X ) * ; 8 ",
"; % ; 4 ; 4 ; ; R - ; - * ; ; % * - o X o o # X # X % % ; o L * - * % % o 4   * % = 4 % % = . - U o   ^ ! ! L & ) - ; 2.",
"* X = ; = ; - - ; = = - * ; = * = * # X @ X X X X X X - * = 1 - - - % ; % 4   * - X 4 4 % * * & L L . L ! D ; D L - - 1.",
"= X = = * - = = & * - * = * = * * * . . @ + . : . # + ; X ; - ; - = - * & * X & 4 % = 4 & & 4 % L ; - L ; L - - L = = 2.",
"& & * % % * * o % * * * * * * * * &     o X . * X & O o * % = - = = = & % * & & - - * - = = - & - - ; - - ; - , = = * 2 ",
"& X & % : o % X o & & & & & * % & & .   .     & % % X & = & o = & * % = . % * = = = = = = = = = - 1 = = = = = = * * & q ",
"% X o % X o o o o o * % % % % % % % # X O . . X = X . * * & o o & & & o X % % * * & * & * * * & * = & * & * ; 1 o o o 8 ",
"X % . o   X . X X o * o o & o & o o o o X   X   % ; X % * o o . - % % . o . o % * : % % % % = % % - % o & - = * o o - $ ",
"X % . . .   . .   * o X o X X X o o X *   X *   X * ; o * o X o ; % X   .   . o # % X = o o % ; o - o o % 4 % & @ @ - $ ",
"& o . o       . X = X X X X X X o X X * X   - o . . T * * * . - = *     . X . . . % . % * . . - % & o . & = & * @ o 1 $ ",
"= . & X . .     o = X o X X o X * o X * o   o D .   - L & * # L % & . % . . %     % . . = . . % = % o   = ; * % & o , $ ",
"* o = O   X   . o - . & . * o o X = X * & o . ; & . * ; = * * ; % % * X . . o %   o X   & % X : * & & X * - = o * o * 2.",
"% * % . % . o . o * X & o * X & X * = & & & X & = . % = = & = - % % &   & o   % X o o . o & % # & o o o & = = = - & - 2.",
"* - o % o . X o o * o o * 1 o = & & = & o o o X * & & * & & & * % % X o % o   . % X : o . & % . o o X & o * - - - - 1 2.",
"- - % = + . % o o o & o = * 1 1 * & = % o X % X % o o o o & > o % % o % X o   o o . % X . * . # X o X X - & ; - - 1 1 2.",
"- - - , X . X o X X X & - 1 - - - = * o X X X . X X . o X o X X o . : X @ # * %   . & . + =   %     =   * - ; - - - - 2.",
"- - - o & o . X = . . * ; - - - - - * & . .   . . . . X o X o & %   % X % @ = % + # * . % * . %     -   # - ; - - - ) 2.",
"- - ; O   ; # O L   . ; ; - - - - - - o o . . o .     . o o o * % X : * : X = - @ = * . = % * o X & = %   - D - - ' ) 2.",
"a.3.v.0 9 3.t.9 x.m 0 v.3.v.3.v.a.a.3.9 3.9 m t 9 9 9 9 m 3.p 3.a t t A s r s A r A s v j.M z b.3.k i 2.b 3.l.0.v.v.z.m."
};
