/* XPM */
static char *_4941690e12844cef7001232ef4d25494j7mqM3QlreMd40I[] = {
/* columns rows colors chars-per-pixel */
"60 60 226 2 ",
"   c #000100",
".  c #121A06",
"X  c #192308",
"o  c #5C3902",
"O  c #5A3905",
"+  c #643D01",
"@  c #683F00",
"#  c #5C5C00",
"$  c #414100",
"%  c #6B4201",
"&  c #644108",
"*  c #734502",
"=  c #764901",
"-  c #7D4D01",
";  c #7B590A",
":  c #7C5B1B",
">  c #704D1E",
",  c #6B6B00",
"<  c #6D720E",
"1  c #465D25",
"2  c #7E5B25",
"3  c #547335",
"4  c #66772A",
"5  c #2E3D68",
"6  c #76645D",
"7  c #544E65",
"8  c #655D60",
"9  c #7E7461",
"0  c #835101",
"q  c #8A5501",
"w  c #885907",
"e  c #955D01",
"r  c #985F01",
"t  c #865A14",
"y  c #804F01",
"u  c #85620E",
"i  c #89660F",
"p  c #8A680E",
"a  c #9C6101",
"s  c #8B6413",
"d  c #8D6A12",
"f  c #876617",
"g  c #916D13",
"h  c #936D19",
"j  c #957214",
"k  c #997516",
"l  c #9B751C",
"z  c #9E7918",
"x  c #9B7719",
"c  c #A26501",
"v  c #AB6B02",
"b  c #A37D1B",
"n  c #AB771B",
"m  c #B06E02",
"M  c #95722B",
"N  c #A47A23",
"B  c #82785E",
"V  c #6C8E3C",
"C  c #758F37",
"Z  c #6A9342",
"A  c #6B9B4A",
"S  c #679748",
"D  c #729A44",
"F  c #719742",
"G  c #6FA44E",
"H  c #72A54F",
"J  c #76A84F",
"K  c #7CAB4E",
"L  c #7CA347",
"P  c #6FA451",
"I  c #72A550",
"U  c #76A850",
"Y  c #7BAA50",
"T  c #7CAA5D",
"R  c #7CA962",
"E  c #888506",
"W  c #9D9D00",
"Q  c #939300",
"!  c #8D8B15",
"~  c #A6801B",
"^  c #AB841C",
"/  c #B0871E",
"(  c #B2891F",
")  c #A4A402",
"_  c #ABAB00",
"`  c #BEBE00",
"'  c #B4B400",
"]  c #B4B81A",
"[  c #819C3D",
"{  c #8F9C2A",
"}  c #AC8422",
"|  c #AD882F",
" . c #B58C21",
".. c #B98F22",
"X. c #B78A25",
"o. c #BC9224",
"O. c #BE9228",
"+. c #A39A21",
"@. c #8AA23E",
"#. c #A2B12F",
"$. c #C19625",
"%. c #C49A26",
"&. c #CA9C27",
"*. c #C69C29",
"=. c #CA9E2A",
"-. c #C59629",
";. c #C99E37",
":. c #CDA22A",
">. c #D2A62D",
",. c #D6A92D",
"<. c #DAAD2F",
"1. c #DDB02F",
"2. c #D8BD2C",
"3. c #CEA53F",
"4. c #DBAD31",
"5. c #D5A732",
"6. c #DEB131",
"7. c #DEB934",
"8. c #C1B039",
"9. c #E2AF32",
"0. c #E3B533",
"q. c #E6B934",
"w. c #EBBC36",
"e. c #EDBC39",
"r. c #E8B736",
"t. c #F0BF3B",
"y. c #BDC31E",
"u. c #C8C800",
"i. c #D9D900",
"p. c #F0F000",
"a. c #D9C235",
"s. c #EEC136",
"d. c #EFC138",
"f. c #F1C237",
"g. c #F4C53A",
"h. c #F8C73B",
"j. c #F7C83B",
"k. c #FACA3B",
"l. c #9C8A48",
"z. c #89875B",
"x. c #9E9659",
"c. c #8D9845",
"v. c #A48B45",
"b. c #AD9552",
"n. c #82AE4E",
"m. c #87A845",
"M. c #97A749",
"N. c #86B04E",
"B. c #8CB34D",
"V. c #91B64D",
"C. c #95B94D",
"Z. c #9BBC4C",
"A. c #98B345",
"S. c #82AE51",
"D. c #86A95A",
"F. c #86B151",
"G. c #8BB351",
"H. c #8AB25D",
"J. c #92B65D",
"K. c #98B95B",
"L. c #99A456",
"P. c #A1BF4B",
"I. c #A8BA45",
"U. c #AEAB54",
"Y. c #9D9D6D",
"T. c #84AF6F",
"R. c #84AF63",
"E. c #8CB363",
"W. c #86B06F",
"Q. c #8CB36E",
"!. c #85B065",
"~. c #95B962",
"^. c #9CBD63",
"/. c #92B66E",
"(. c #95B96F",
"). c #9CBD6D",
"_. c #94B665",
"`. c #86AF70",
"'. c #8BB272",
"]. c #92B770",
"[. c #99BA72",
"{. c #91AF6A",
"}. c #A6AB68",
"|. c #B5A669",
" X c #A2BE6B",
".X c #A7B86B",
"XX c #B6AE77",
"oX c #A5BC75",
"OX c #ABB776",
"+X c #B6B776",
"@X c #B8B36E",
"#X c #CCA341",
"$X c #C7AB5D",
"%X c #D5B452",
"&X c #CDB14F",
"*X c #E3B740",
"=X c #E1B955",
"-X c #C6AD65",
";X c #CAB866",
":X c #D6B863",
">X c #C4B877",
",X c #D7B871",
"<X c #A2C14B",
"1X c #A6C24B",
"2X c #A4C24B",
"3X c #AAC54A",
"4X c #B3CA49",
"5X c #B4CB47",
"6X c #A5C25B",
"7X c #9FC06F",
"8X c #A4C261",
"9X c #A4C26C",
"0X c #AAC56B",
"qX c #ADC86A",
"wX c #ACC860",
"eX c #B3C769",
"rX c #ABC57A",
"tX c #B6C577",
"yX c #F2C241",
"uX c #E8C256",
"iX c #C8C376",
"pX c #D9C471",
"aX c #E1C27A",
"sX c #B9B981",
"dX c #B5C488",
"fX c #CAC881",
/* pixels */
"9X).9X7XT.Q.qX/.qX(.[.9X).0X0X9X7X9X(.W.).Q.(././.Q.].Q.Q.).].). X].].).9X].].9X).).).(..XQ.).0X0X).(..XW.9X9X9XqX9X9XrX",
"Z.Z.V.<XY H 3XZ.3XU Z.A.C.Z.3XC.C.<XB.K n.B.B.U A.U B.Y S.B.C.n.Z.n.B.n.Z.B.N.C.C.C.B.V.Z.B.B.C.P.P.C.3XB.2XZ.Z.3X3XP.wX",
"C.<XC.2XZ.H 3X2X3Xn.3XN.3XZ.Z.C.Z.C.N.C.n.V.V.n.C.V.S.S.B.n.C.B.C.n.V.n.C.C.V.C.B.C.J C.P.C.C.C.P.P.3X2X3XZ.2XP.3X3XZ.wX",
"C.2X2X2X3XC.3XC.C.n.3XB.3XN.3XC.N.Z.B.B.V.V.B.B.C.V.U V.K N.G.V.V.N.B.B.N.B.C.C.N.S.S.A.B.C.C.C.P.3X3XZ.2XZ.Z.P.3X3X3XwX",
"C.P.P.3XZ.Z.3XC.n.n.P.N.C.n.C.V.J V.B.B.<XN.B.V.C.N.B.V.Y N.n.N.N.N.n.N.n.n.N.Z.n.J N.B.J C.P.n.V.4XP.V.C.C.P.3XP.P.4X6X",
"N.Z.N.3XB.N.3XB.U 3XN.n.V.Z.B.U J K N.N.C.B.n.C.B.K C.n.n.B.K n.Y n.n.n.n.V.n.P.B.I C.n.H 3XC.n.V.5XC.V.B.3XC.3X4XV.4XJ.",
"K C.n.P.B.K 3XJ N.I.H n.P.n.Z.I K K K J B.B.J V.B.n.C.N.J B.N.n.n.I N.U J V.K C.C.G Z.K Y P.3XG.B.5XP.N.C.3XZ.P.1XC.3X^.",
"H B.B.V.C.J 2XH P.V.Y P.N.B.P.U H C.G G J B.I B.V.B.F.C.J B.n.U Z.n.n.V.I N.n.n.P.H <XZ.A.V.V.3XS.4X3Xn.P.Z.3Xn.C.Z.Z.L.",
"n.B.C.N.Z.N.P.n.Z.n.Z.P.U U C.N.H Z.J J J n.J V.n.N.n.C.V.B.V.N.C.N.n.3XU C.V.n.Z.P.I.V.P.N.B.3XV.Z.I.Y 3XZ.2XJ V.2XV.6X",
"V.N.Z.n.C.B.C.B.C.n.3XC.I I D A.J V.N.J U K U C.J J B.B.C.V.C.C.N.B.N.3XZ.N.C.S.P.5XC.B.Z.n.C.A.Z.B.P.N.Z.n.P.A m.m.F 1 ",
"C.V.C.V.C.V.C.C.C.N.3XB.I P S m.D S.Z.J J J J <XH.]._.+X.X9X6X6XV.B.V.C.5XB.C.A.5X2XV.B.C.V.V.V.V.B.V.B.C.m.A.m.m.4 ) # ",
"B.B.B.P.B.V.V.3XV.V.3Xn.S n.3   < V A.A S {.+X;X&X0.w.t.j.d.d.uXpX+XE.P.5XC.n.P.5XV.V.V.B.n.B.N.N.V.N.N.N.D 5Xm.! _ W ) ",
"N.N.Z.C.N.B.G.3XB.V.P.Y N.A.3 Q _ ) { ~.}.| %.>.6.w.g.j.k.k.k.k.k.g.=XtX4XC.S.3X3XS.P.n.n.n.Y K Y V.Y J J B.M.4 ) ` ) C ",
"n.N.1XK n.n.P.V.A.N.Z.Y 5XN.P < ` < ` U.} ^ %.,.0.e.g.j.k.k.k.k.h.h.f.r.iX~.Z.3XC.G.Z.I C.U V.J I Z.I P U C.A.] ` _ E D.",
"K V.C.K n.Z.C.n.Z.G.C.Z.4XY S [ C i., j } -.*.:.<.q.g.j.k.k.k.k.h.g.r.6.4.%XiX6XC.Z.C.F.A.U Y P.D V.m.P A.S.N.C ] 1 A.R.",
"J Z.Z.Z.J 3XN.U Z.G.Z.4XP.U S _.W # i.E o.=.:.,.4.0.r.e.e.f.g.j.t.f.h.g.e.0.6.;XJ.C.C.Z.N.n.H P.G.n.c.P 3XI Z.4X5XA I.D.",
"B.C.J 3XP.V.C.F.V.V.3X3XC.K R tXb p ! l %.:.>.6.w.s.h.k.k.k.k.k.k.k.k.k.h.w.q.,XC.C.C.C.G C.K B.C.S A.U Z.J 2X3X4XB.A.~.",
"C.V.H V.P.C.n.N.B.C.3X3XC.E.OXx.N k ( ..%.:.>.6.q.s.g.g.k.k.k.k.k.k.k.k.f.e.0.3.;X>X).P.P B.m.m.m.3 4 m.V.B.C.3X2XC.Z.6X",
"B.B.n.B.P.P.V.F.K Z.2XP._.b.j z b  .X...o.*.:.,.1.0.w.g.g.h.k.k.j.j.j.f.w.4.>.:.:.%.-X8XY K B.C.m.    . L N.V.C.B.B.C.^.",
"C.n.n.n.P.P.C.Z.J C.2XC.}.z b ~ ^ ( o.$.=.:.:.>.,.4.4.0.r.w.e.w.e.e.e.w.w.q.r.<.,.>.#X7XB.U B.C.Z   ' u.< V D V K F.V.8X",
"n.B.S.n.C.B.3XZ.K K P.C.L.z b ^  ...o.&.:.,.1.0.q.s.g.g.k.k.k.k.k.k.k.k.k.d.d.0.6.6.5.dX^.F.G.B.K ! W , ' ] B.n.Z K C.~.",
"K B.n.J n.C.5XN.B.G K.OXb.b ~ ( ( $.%.:.>.1.6.w.f.j.j.h.k.k.k.k.k.k.k.k.k.j.g.s.0.6.:.%.$XsXP.N.F 1 ` ` #   C n.N.D 3XE.",
"Y N.N.n.S.5X2XB.G.[.|.d g b ^ / ..o.%.=.>.1.1.q.s.g.k.k.k.k.k.k.k.k.k.k.j.j.g.e.6.>.>.:.:.*.iXH.D #.E , i.p.y.V.n.D 3XE.",
"N.Y N.S.C.5XC.S.S.}.d g j k ~ / ..$.$.&.:.,.1.0.q.f.g.k.k.k.k.k.j.j.k.k.d.e.q.q.0.0.1.<.>.:.#XD.J F _ i.,   X m.D n.2XE.",
"Y N.F.K 3X3XC.F.S.v.h j k b ^ /  .o.O.*.=.:.5.,.<.0.0.w.e.e.w.f.k.j.j.d.j.j.j.g.s.w.q.0.4.5.:.XXH H {   u.p.y.<XK C.Z.E.",
"K F.B.F.5XZ.N.B.U v.h k z b / ( ..o.%.*.>.,.<.0.r.w.g.f.f.h.k.k.yXk.k.k.k.j.k.k.g.g.w.0.6.4.5.XXC.J n.! u.$ V 2XB.P.C.~.",
"N.C.B.Z.4XN.K V.I XXj k b ~ / ( o.o.&.:.>.<.6.0.w.f.g.g.k.k.k.k.k.k.yXk.k.k.k.k.j.g.d.w.0.1.=.z Y. X@.I.m.F n.C.<XC.B.^.",
"F.P.K 2X2XK J N.OXf N z b ~ / ( o.%.&.:.>.4.6.q.w.g.j.k.k.k.k.k.k.k.k.k.yXk.k.k.j.g.s.w.0.>.( ^ k x.3XP.B.B.B.3XZ.C.B.^.",
"P.C.F.3XC.J H .Xf u i z } } ^  ...o.*.:.>.,.6.0.w.d.f.j.h.h.k.k.k.yXk.k.h.k.g.h.g.f.q.0.>.$.$.( ( b.qXC.B.B.Z.P.Z.C.C.~.",
"P.Z.C.P.N.G H.x.t p d g k b  . .o.o.%.&.:.>.<.6.0.q.s.f.h.g.h.h.k.k.k.k.j.h.g.t.e.0.9.,.:.:.&.$.$.o.tXV.S.V.Z.C.P.Z.N.^.",
"C.N.2XC.U U B.| p d g j z b ^ / ..o.%.*.:.:.>.5.<.6.0.q.w.7.s.w.f.f.d.g.e.r.r.e.w.e.q.0.6.<.>.:.&.;.rXB.K C.C.B.<XV.K 8X",
"B.n.2XC.I G.G.x.p g j k b ~ ^  .o.o.%.=.>.,.6.0.r.w.e.e.7.U.z.M.7.t.g.g.k.yXh.k.g.g.s.w.q.1.,.>.>.@X^.J B.V.V.B.<XN.B.~.",
"n.N.Z.P.P C.9XXXf d j k z ~ ^  .o.o.:.:.:.,.1.7.q.s.f.j.8.B 5 8 U.h.k.k.k.k.k.k.h.h.g.d.0.0.1.>.$.|.!.Y V.B.B.B.P.n.C.~.",
"Y N.V.C.Y Z.oXM f l j j z ~ ^ /  .o.o.:.:.>.<.2.q.w.g.f.&X7 7 z.M.g.k.k.h.h.k.h.j.g.d.d.0.0.<.*.o.o.+XY B.C.B.B.Z.B.B.^.",
"B.n.V.C.G.Z.x.; ; u N N z z ~ ^ ( ..o.o.%.:.,.,.1.1.0.w.a.z.6 9 2.h.k.k.h.h.g.g.d.e.w.0.4.4.<.>.:.%.$XK n.V.B.n.C.B.n.~.",
"V.N.N.V.G.C.l.; u d d j b } ^ ^ ~ ^  ...o.o.%.:.:.>.,.4.4.2.8.2.r.w.w.w.w.q.w.0.0.4.6.r.e.w.7.6.>.:.$X9XK n.B.K V.V.n.E.",
"V.B.N.B.B.P.c.; u p g k b ^  . .o.o.O.o. ...o.o.$.%.&.=.=.} N N O.;.5.5.5.4.7.r.e.h.k.k.k.g.w.0.<.>.-XJ.C.Y B.K B.B.N.E.",
"V.B.B.N.V.6XsXt t s g k b ~ / o.o.:.>.<.6.0.0.0.7.0.6.;.0 - % @ o > N yXyXk.k.k.yXk.k.k.j.f.w.0.<.>.OXH 2Xn.C.n.n.B.Z.E.",
"n.C.n.n.C.2X).|.u i d j z ~ ^  .o.&.:.,.6.7.e.g.j.k.j.n 0 y = * @ o : -.k.k.k.k.k.k.k.g.h.s.q.1.,.$.>XT C.Z.N.C.N.Z.C.~.",
"n.Z.n.n.3X3XOXu h l d j k z ^ ( o.o.*.:.<.1.0.w.g.g.w.e w q y = % o O h g.g.j.h.k.k.g.d.w.0.6.,.=.$.o.+XN.3XN.Z.B.2XK K.",
"K P.V.V.3XqXM i d j b N x k z ^ ( o.$.&.:.,.<.0.r.w.>.c e e 0 - * + O t >.q.w.w.w.q.0.0.<.,.4.>.>.&.$.-Xn.3XC.B.2XZ.K 7X",
"Z.V.C.C.P.I.f s d j z ~  . . . .^ / ( o.o.&.:.,.,.9.&.v a e q 0 * + + t  .,.5.5.,.,.>.4.r.w.r.6.<.>.:.,XA.1XZ.J <XB.C.!.",
"Z.K Z.Z.Z.eXf s j k z ~ /  .o.-.&.:.>.>.>.5.5.,.<.9.&.m c r q 0 * % O t N 4.0.9.q.f.k.k.j.g.e.w.0.,.>.;X<X3X<XN.<XC.C.8X",
"V.U C.Z.G.P.|.u d k z ^ /  .o.-.:.,.,.1.q.s.g.k.h.h.9.m c r q y = % + s -.k.k.k.k.k.k.k.j.j.g.e.q.9.,.fX2X<XZ.P.<XC.C.8X",
"V.U V.V.B.C.rXb.d h b ~ ^ ( o.o.%.:.,.1.0.w.t.f.h.k.r.m c e q y = % O t >.k.k.k.k.k.k.j.j.j.g.s.w.2.%X8XZ.<XC.C.<XC.B.^.",
"N.N.B.n.n.B.B._.sX| k b ^ / ..o.$.:.:.,.1.0.q.t.t.f.t.v r e q - * + o t 0.j.k.k.k.k.k.k.j.j.f.w.a.:XrXC.Z.Z.C.B.C.C.N.J.",
"n.L N.n.S.n.S.U Y rXOXb.~ / /  .o.$.&.&.:.,.<.1.0.q.q.n e q y = % + O t s.h.j.j.k.k.h.g.f.f.q.=XtX9XV.C.B.C.C.B.N.N.N.J.",
"n.J K n.J K J U Y Y B._. X+X|.b. ...o.$.&.&.:.>.,.,.<.X.q y - * + O + M q.w.s.g.f.g.e.w.e.aX@XrXV.V.N.N.N.N.C.V.N.K N.E.",
"J K H J H U G U J N.N.K K K K H.7X)..XU.>XU.$X%X3.=.:.O.w = * @ + O 2 | 5.%X:X%XpX>X.X.X(.F.K.G.n.C.K N.N.C.B.B.K K C.!.",
"J N.H H H H G J G B.K K K K K K J K K B.H H G.I H J.tX[.K..XOXOXtX.XsX'.P P Y K K N.K V.K K K Z.J C.K K N.Z.n.B.K K C.T ",
"B.U H J H G P H J B.J J J J K J K J J B.I I V.S.H H 1XB.N.N.I Z.V.B.H H G U U U H n.H n.N.H H C.N.B.J H N.C.N.B.J K B.T ",
"C.P B.J G H G G K V.J K G J K J B.K J B.n.A S.Z.H H C.<XF.V.Y P.S.F.H n.P G F.P G K H H C.H G N.C.K K H V.C.B.N.N.K G.T ",
"B.J B.I G J G H K C.P N.P B.K K H C.U B.S.n.A Z.n.H B.Z.B.B.B.Z.J n.B.J H J K n.H Y U G N.n.Y K V.K K K B.V.B.K B.N.N.7X",
"N.V.N.H S.H K H F.B.J N.K B.J N.H V.V.n.n.N.U F.V.H n.V.C.N.C.C.n.S.B.H N.J H K U L Y J Y n.n.U N.N.K K N.V.C.V.C.N.C.8X",
"B.C.J n.n.H J K K N.K K V.V.K V.N.n.V.n.n.Y n.U B.n.n.N.N.N.B.N.n.N.Y K K K H J n.J n.U J N.n.U K K J N.K B.C.C.C.B.B.8X",
"C.C.K V.U H n.K K K N.K C.N.V.V.V.F.V.n.Y J n.J n.n.n.n.K n.n.Y Y n.K K Y K H J J J n.J H V.J K J K J J C.N.Z.C.C.C.C.8X",
"C.C.C.F.J J J N.J J J N.C.V.C.C.V.V.B.K J J J H J J J J U K K K n.J Y J K K N.K P G B.G H V.G n.H H N.H N.C.Z.C.C.C.C.8X",
"C.C.C.K N.K P J B.P H B.Z.C.C.C.C.C.B.G.H H G G H H H J K U Y n.n.I K K K J C.N.J K B.H n.B.J K H H C.H Y C.<XC.C.C.Z.8X",
"C.C.Z.P P Z.Y P 2XH P Z.C.C.C.Z.C.C.C.N.K H I K P H I G N.J S.B.K J K C.F.J B.V.Y V.B.G C.K B.K J N.V.K G C.P.C.C.<XZ.7X",
"9X7XqXQ.W.(.0XW.qXQ.Q.qX9X0X9XqX7X9X7XT.7XW.Q.Q.Q.W.W.W./.(./.).7X/./.9X(./.(.qX/.9X[.W.9X'.7XqX7X7X(.8X'.7X0X9XqXqXqXrX"
};
