/* XPM */
static char *_c10e16083d54c94b7eb5e5fabc4100cuUuEIhAZxoRgdWtz[] = {
/* columns rows colors chars-per-pixel */
"60 60 181 2 ",
"   c #314C16",
".  c #334E18",
"X  c #345217",
"o  c #355418",
"O  c #3A551B",
"+  c #365818",
"@  c #3A5C19",
"#  c #3E621B",
"$  c #3D5B22",
"%  c #435C1E",
"&  c #41671B",
"*  c #446A1D",
"=  c #425E21",
"-  c #436222",
";  c #496424",
":  c #476B21",
">  c #4C6D22",
",  c #446529",
"<  c #45682A",
"1  c #4C6D2B",
"2  c #526E26",
"3  c #516E29",
"4  c #4C7224",
"5  c #4D742C",
"6  c #557927",
"7  c #5D7B25",
"8  c #53732C",
"9  c #58772E",
"0  c #557C2C",
"q  c #5A7B2B",
"w  c #4C7231",
"e  c #557731",
"r  c #557B33",
"t  c #5B7C32",
"y  c #627D2D",
"u  c #5C8236",
"i  c #5E8837",
"p  c #568039",
"a  c #5C873A",
"s  c #5E8A3C",
"d  c #66852D",
"f  c #638434",
"g  c #648A36",
"h  c #6A8B36",
"j  c #658738",
"k  c #638C3C",
"l  c #6B8D3A",
"z  c #708F3A",
"x  c #6F903B",
"c  c #759334",
"v  c #73953C",
"b  c #74993D",
"n  c #7B9A3D",
"m  c #7CA13F",
"M  c #628F42",
"N  c #649143",
"B  c #6B9542",
"V  c #6B9946",
"C  c #679748",
"Z  c #679848",
"A  c #6A9C4A",
"S  c #719540",
"D  c #749B43",
"F  c #799E42",
"G  c #76974C",
"H  c #6FA34F",
"J  c #76A046",
"K  c #7CA445",
"L  c #72A54E",
"P  c #7BA549",
"I  c #76A84E",
"U  c #7CAB4E",
"Y  c #6EA451",
"T  c #72A550",
"R  c #77A850",
"E  c #7AAA50",
"W  c #7EAC62",
"Q  c #839F3D",
"!  c #839C34",
"~  c #89A53E",
"^  c #8DAA3C",
"/  c #93AB3B",
"(  c #81A645",
")  c #85A946",
"_  c #8CAD45",
"`  c #82AE4E",
"'  c #93AE41",
"]  c #8FB147",
"[  c #86B04E",
"{  c #8BB34D",
"}  c #94B246",
"|  c #99B647",
" . c #91B64D",
".. c #94B94D",
"X. c #9BBC4C",
"o. c #80AD50",
"O. c #81A458",
"+. c #87B150",
"@. c #8AB350",
"#. c #90B65F",
"$. c #95BA5F",
"%. c #A8BE43",
"&. c #A1BF4B",
"*. c #82AF61",
"=. c #84AF6F",
"-. c #86B064",
";. c #8BB463",
":. c #86B06F",
">. c #8CB36E",
",. c #90B663",
"<. c #95B962",
"1. c #9CBE62",
"2. c #95B76E",
"3. c #91B76E",
"4. c #96B96F",
"5. c #96B96F",
"6. c #93B96E",
"7. c #9FBE6A",
"8. c #99BB6D",
"9. c #99BC6F",
"0. c #9FBF6D",
"q. c #9DBD6E",
"w. c #9BBC6E",
"e. c #84AE70",
"r. c #88AF70",
"t. c #87B172",
"y. c #8CB370",
"u. c #8EB570",
"i. c #89B271",
"p. c #90B770",
"a. c #93B770",
"s. c #94B770",
"d. c #95B970",
"f. c #99BB70",
"g. c #A0BF6D",
"h. c #A3C14B",
"j. c #A3C24B",
"k. c #A1C04A",
"l. c #A4C34B",
"z. c #A7C24A",
"x. c #A4C14B",
"c. c #A7C44B",
"v. c #A2C14C",
"b. c #A6C24E",
"n. c #A4C14B",
"m. c #A8C44B",
"M. c #AAC54A",
"N. c #ADC749",
"B. c #ACC74B",
"V. c #A8C44C",
"C. c #AAC54A",
"Z. c #B0C747",
"A. c #B2C947",
"S. c #B1C949",
"D. c #B3CA49",
"F. c #B9CF48",
"G. c #A5C25F",
"H. c #9FC061",
"J. c #9FC06F",
"K. c #A3C162",
"L. c #A7C561",
"P. c #A3C262",
"I. c #ABC760",
"U. c #ACC860",
"Y. c #A5C26B",
"T. c #A6C36B",
"R. c #A7C46B",
"E. c #A1C16E",
"W. c #A3C26D",
"Q. c #A7C36D",
"!. c #A5C06C",
"~. c #A7C46C",
"^. c #A2C16D",
"/. c #AAC46B",
"(. c #AAC56C",
"). c #AAC66B",
"_. c #AEC96A",
"`. c #ADC86B",
"'. c #B0CA6A",
"]. c #ACC779",
"[. c #A9C77A",
/* pixels */
"E.0.(.J.=.>.`.3.'.s.w.T.0.T.).R.J.^.4.:.8.p.2.>.3.>.2.y.u.w.s.8.0.a.u.9.E.3.3.^.9.J.8.4.T.r.w.g.T.g.s.g.r.T.T.g.).).T.].",
"X.X.{ c.U L m.X.m.I X...X.X.c.X. .j.{ U ` { { U | R { E o.{ ..[ X.[ { [ k.{ +.......{ { X.{  .X.&.&.X.C.{ &.&.X.z.B.X.I.",
"..j. .j.X.L m.b.z.[ z.{ z.X.X...X...[ ..`  . .` .. .o.o.{ o...{ ..[ { `  ... ...{ ..U ..&... .| &.&.S.&.B.X.b.&.z.S.k.I.",
"..l.b.j.z...M.X...` m.@.z.[ c...[ X.{ {  . .{ { .. .R  .` ` @. .{ { { { [  .....` ` ` ..{ ......&.C.z.X.&.X.X.&.b.N.m.U.",
"X.X.X.N.X.X.z.| ` ) b.` ..E X.{ I  . .{ X.[ {  ...` {  .E { ` [ [ ` [ { ` [ [ &.` U +.{ J ..&.` ..D.X.......X.N.k.j.Z.P.",
"{ X.{ m.{ { c.{ I z.` ` | X.{ I I ` [ ` ..{ ` ..{ U X.` ` [ U ` ` U ` U U ..U X.{ L ..` T B. .o.{ D.X. . .V. .N.S.{ S.<.",
"I ..` l.{ I m.I { V.T U l.o...L I U I E { { I ..{ q ] [ I [ ` ` U I b I I ..U  ...H X.` E &.N.{ { D.&.+. .C.X.&.z.| m.1.",
"L { @.| ..I z.L X...U X.{ { l.L L ..L L U [ L {  .& * K I { [ R X.U : v H b D [ &.L j... . . .S.o.S.V.o.%.X.z.+.X.X.X.G.",
"` [ ..{ ..{ X.` X.` X.&.I U ..[ Y X.I I N g m ..U * & & m  .m [ ..g & c i & 4 ` X.X.V...X.[ { N. .X.%.E B...V.I { l. .P.",
"{ { X.` X.{ ..{ X.U m.X.H I [ X.I { [ I i * # c I u * & * ) 6 u ) * & 7 & & & K &.%...{ X.` ..X.&.{ &.+.&.) &.T  .X.{ H.",
" . . . ... ..... .{ N.{ H L I ..I [ j.I i # # * * 4 & & # d # # 6 * & & @ & # l / d  .{ | {  .{  .{  .{ | ` D.@.` ....1.",
"{ { { k.{  .{ V. .{ m.` L { A m m A c.I A # # # & & & & # & # # & & & @ + @ + d * f )  .{ [ { { +. .+.` +.O.S. .{ { { $.",
"{ [ X. .{ +.@.N.{  .&.U ` | s & # * * i i p # # # # # # # # # @ & & @ @ + + + * * & & J ` U U U U  .E E E ] &.Z.[ { { ,.",
"` [ z.` o.U &. ...{ X.U D.+.A # # # # # # # # + # @ # # @ # # @ @ + + & + + @ @ + & * Z ..J n L T | T T R .. .F.{ U ` #.",
"U .. .U [ X. .` X.+.X.X.S.E L u & & # # + # # + @ + + @ + # # @ & + & & + + @ # + & > j h + k &.R  .{ T X.o.{ D.&.U X.-.",
"I ..X.X.U B.[ R X.@._ / c u a b d * * # + + # + + + + + + @ # # & @ & + & * & @ + + + # + 1 H ~ +.` | T &.T &.D.D.I C.;.",
"[ j.m N.j.{ ..{ { ..4 & & & & # # & # # + + + @ + # + + + + + & & & + @ & & @ + + @ & X + y - 0 X.U ..U X.U z.N.S. .&.1.",
"..{ Y ..j...[ [ [ ^ ^ & & & & # # & # # + # # # + # + + + + + # & & + + + + + + + & & + # @ + v X.` X... .` ..z.z...X.K.",
"[ { I { j.j.c * & & & & # + # # @ # # + + + & & # & # + + + + + + + + + + + + + + * & & & @ o 7 j ` X.( [ { { ..{ { ..1.",
"..[ [ I j.j.m * & & & & # + + + + + + + + @ # & & & + + + + + + + + + + + + + + + @ @ & @ @ o @ x z O D E { ` ` ` o...1.",
"U { [ U ..{ c.^ & & & & # # + + + # # + # # # & # # + + + + + + + + + + + + + + + + + + + + + & X   e U S 8  .o.o.o...<.",
"[ [ [ I ` ..m * & & & # + # + + + # & # # # # # # + + + + + + + + + + + + + + + + + + + + + + + + + t O   e b.` o.[ B.#.",
"I [ [ U ` N.d & & & & # + + + + + # # & # + # # + + + + + + + + + X + + + + + + + + + + + + + + @ o .   O ' &. .o.o.B.-.",
"[ U [ [ ..F...i * & & & + + # & # # # & + + # + # + + + + + + + + + + + + + + + + o + + + + +     . . . y 3 8 n o.@.l.;.",
"o.U [ [ l.c...[ m b & & # @ + # # # # # # + # & # # + + + + + + + + + + + + + + + + + + + + + O o   . X + O O } o...X.;.",
"o.o.@.@.F...[ ` u & & & # + # + + + + + + + + + # # + + + + + + + + + o + + + + + + + + + + + +   o + + + = ( &.{ X...<.",
"[ ..@...A.U i # # & # + # + # & # # + + + + + + + + + + + + + + + + + + + + + + + + + + + + +   o + + + t `  ...j... .1.",
"@.j.U l.j.m p @ + # & # + + # # # # # + + + + + + + + + + + + + + + + + + + + + + + + + + + + X . X o   . 9 n &.X...{ 1.",
"k. .[ ~ p     X # & & # + + # # # # + + + + + + + + + + + + + + + + + + + + + + + + + + X . X .         3 z } &.X...X.,.",
"k.X...| # X   # # # # @ + + # & & & # + + # + + + + + + + + + + + + + + + + + + + + + + o X     X o o + o ; Q ..&.X.[ 1.",
" .{ j.X.s   + # # # + + + + # & & & # # + # # # + + + + + + + + + + + + + + + + + + +       . + @ + + + o .   S j.{ ` H.",
"[ [ j.] +   + @ + X X + # # # # # & & & + # # # + + + + + + + + + + + + + + + + + + + + .     X + + @ .   3 j S j.[ [ 1.",
"[ [ X.X.A f     . + + + + + + + & & & @ @ + + + + + + + + + + + + + + + + + + o o @ + + + X     + + +   S  . .{ &.o...<.",
"I {  .X.B 2 + o . X + + o + + @ & & @ + + + + + + + + + + + + + + + + + + + +   .   X o         + + + o   8 D +... .{ 1.",
"{ ` b q + + o         . X + + @ @ + + + + + + + + + + + + + + + + + + + + + + o .         + + o   . .     = f F .. .o.<.",
"..[ P q + @ o @ + X .   o + + + + + & + + + @ + + + + + + + + + + + + + + + + + + @ o       X + O       e `  .U  . .o.,.",
"{ ( 6 : @ + o o X o + o .   o + @ & # + + & # + + + @ + + + + + + + + + + + + + + o X                     1 ) o.+.{ [ ;.",
" .- + + + + o             . + % & & + + # & + + + + o + + + + + + + @ o + + o + + + o +                   . = t t n X.;.",
"[ 6 j J z & + o o X       X + + + + + + & & @ # + + X + o + + + + + + X     X   o + + + +                       8 |  .<.",
"U } U k + + . .     o + o     X + + + + + & & # + +   +   + + + X + + + o   + + X   o + O X                 = ) { b.E <.",
"9 2 = + + + + .     o o @ o   o X . + + + & & & o @     X + + + X X + + + . o X +                             O ] X.[ H.",
"} o . . . + + + o   o + o X       . + + + # & @ + +     o + o     X + X +   o   + X                             + P ..;.",
"&.B % X + + + o       X           X + + + @ & + o + o   X o o     X + X . X     + X                             ~ ] ..H.",
"{ V 2 + + + + X     o +             + X + + + + X + o     + X o     +           + X                             > ] ..H.",
") - + + + + + + X + + X               . + + X +   X +       . + X   X X                                           O v 1.",
") ; ; X + + + .   . +   X X             +   . .     +       X + +                                                     G ",
"( U o.8 o + + + + + +   o X       +     X           .       X + + .                                           9 [ [ K O.",
"E I I r X X + + + .   % + X     + +               X         X + +                                       . 3   3 [ U [ ;.",
"N O         + @     @ r o .   o + o               + +       . + o                             = e 3     j ..v l U U ..W ",
"I K < , , X +       a u .   @ o o .               . +   =   . . % O                   t $     y U ..k 3 ` X.` +.I E ..W ",
"{ E I I $   X <   % J V   - M .         .       < , o = j       h O     1         =   J K r . j ` +.I L { ..` { I U ..W ",
" .Y P -   $ M r + K H I k L u   . k   ; M   1   w A O Q S     = U       C ,       B r L ..T T o. .` U L { ..{ ` [ U @.W ",
"{ U  .A C T T M V  .I [ I { p 5 M  .s 3 o.8 A = 1 L F X.{ o   ) J   9 C T T B t 5 E U H ` ` U U ] ` [ I { ..{ [ ..U @.H.",
"[ { ` I E T U T [ [ I [ U [ I [ T  . .K ` ) R o.y L `  ...x v ..U K +.T o.U T o.I U U T U o.` U [ U U U `  ...{ ..U ..H.",
"{ ..I ` U L I E [ [ U U {  .U @.+.o...o.o.R o.U { ` U { { [ [ { ` ` U U U I T I ` R ` I J +.` T U U I [ U { ......@...H.",
"....U ..T I ` U U U [ U  .{ .... .+. .` E P o.R U ` ` ` o.U [ U o.o.U ` E U T R E R ` T T @.I U I U U I ..[ X.........J.",
"......+.I I I [ I I I [ .. ..... . .{ E I I I I I I I U I U U R U I o.I U E { U H H { L L { L ` H H { H { ..X..... .X.H.",
"......E [ U H L { H H { ............{ @.L L H H H H H R E I U +.o.L ` I U I ..` T U { L ` { I ` H I ..H E ..v.....X.X.H.",
"....X.Y H X.E Y j.Y H X.X.X...........+.U L L U H H H L U U U { [ I U  .U U {  .U { { H  .` { I L {  .U H ..k.....l.X.H.",
"^.^.`.>.:.J.~.t._.3.3.`.J.`.J.`.^.J.J.:.J.:.>.>.>.:.:.t.3.9.6.J.q.>.6.E.4.6.9.).9.^.9.t.(.i.0.`.J.J.8.J.t.J.~.R.`.`.`.[."
};
